<svg xmlns="http://www.w3.org/2000/svg" xmlns:xlink="http://www.w3.org/1999/xlink" width="1080" zoomAndPan="magnify" viewBox="0 0 810 93.749996" height="125" preserveAspectRatio="xMidYMid meet" version="1.2"><defs><clipPath id="86a671aa09"><path d="M 1.078125 0.335938 L 90.835938 0.335938 L 90.835938 91.847656 L 1.078125 91.847656 Z M 1.078125 0.335938 "/></clipPath><clipPath id="d786d53ba3"><path d="M 31.011719 89.691406 C 35.617188 90.964844 40.847656 91.800781 45.980469 91.800781 C 51.117188 91.800781 56.058594 91.085938 60.609375 89.808594 C 60.707031 89.769531 60.804688 89.769531 60.902344 89.730469 C 78 84.625 90.59375 71.152344 90.835938 55.371094 L 90.835938 0.335938 L 1.078125 0.335938 L 1.078125 55.332031 C 1.320312 71.230469 13.71875 84.707031 31.011719 89.691406 Z M 31.011719 89.691406 "/></clipPath><clipPath id="084a0b8244"><path d="M 90.835938 0.335938 L 180.597656 0.335938 L 180.597656 91.847656 L 90.835938 91.847656 Z M 90.835938 0.335938 "/></clipPath><clipPath id="bafef87d85"><path d="M 120.773438 89.691406 C 125.375 90.964844 130.609375 91.800781 135.742188 91.800781 C 140.878906 91.800781 145.816406 91.085938 150.371094 89.808594 C 150.46875 89.769531 150.566406 89.769531 150.660156 89.730469 C 167.761719 84.625 180.355469 71.152344 180.597656 55.371094 L 180.597656 0.335938 L 90.835938 0.335938 L 90.835938 55.332031 C 91.078125 71.230469 103.480469 84.707031 120.773438 89.691406 Z M 120.773438 89.691406 "/></clipPath><clipPath id="74a1652fc8"><path d="M 180.597656 0.335938 L 270.359375 0.335938 L 270.359375 91.847656 L 180.597656 91.847656 Z M 180.597656 0.335938 "/></clipPath><clipPath id="cdde7adb89"><path d="M 210.535156 89.691406 C 215.136719 90.964844 220.367188 91.800781 225.503906 91.800781 C 230.636719 91.800781 235.578125 91.085938 240.132812 89.808594 C 240.230469 89.769531 240.324219 89.769531 240.421875 89.730469 C 257.523438 84.625 270.117188 71.152344 270.359375 55.371094 L 270.359375 0.335938 L 180.597656 0.335938 L 180.597656 55.332031 C 180.839844 71.230469 193.242188 84.707031 210.535156 89.691406 Z M 210.535156 89.691406 "/></clipPath><clipPath id="ba94268fa2"><path d="M 270.359375 0.335938 L 360.121094 0.335938 L 360.121094 91.847656 L 270.359375 91.847656 Z M 270.359375 0.335938 "/></clipPath><clipPath id="f3e675a85e"><path d="M 300.296875 89.691406 C 304.898438 90.964844 310.128906 91.800781 315.261719 91.800781 C 320.398438 91.800781 325.339844 91.085938 329.894531 89.808594 C 329.988281 89.769531 330.085938 89.769531 330.183594 89.730469 C 347.28125 84.625 359.878906 71.152344 360.121094 55.371094 L 360.121094 0.335938 L 270.359375 0.335938 L 270.359375 55.332031 C 270.601562 71.230469 283.003906 84.707031 300.296875 89.691406 Z M 300.296875 89.691406 "/></clipPath><clipPath id="1d1920af15"><path d="M 360.121094 0.335938 L 449.878906 0.335938 L 449.878906 91.847656 L 360.121094 91.847656 Z M 360.121094 0.335938 "/></clipPath><clipPath id="d5cb17a54f"><path d="M 390.054688 89.691406 C 394.65625 90.964844 399.890625 91.800781 405.023438 91.800781 C 410.160156 91.800781 415.101562 91.085938 419.652344 89.808594 C 419.75 89.769531 419.847656 89.769531 419.945312 89.730469 C 437.042969 84.625 449.636719 71.152344 449.878906 55.371094 L 449.878906 0.335938 L 360.121094 0.335938 L 360.121094 55.332031 C 360.363281 71.230469 372.761719 84.707031 390.054688 89.691406 Z M 390.054688 89.691406 "/></clipPath><clipPath id="03f17e49f1"><path d="M 449.878906 0.335938 L 539.640625 0.335938 L 539.640625 91.847656 L 449.878906 91.847656 Z M 449.878906 0.335938 "/></clipPath><clipPath id="5010204a49"><path d="M 479.816406 89.691406 C 484.417969 90.964844 489.648438 91.800781 494.785156 91.800781 C 499.917969 91.800781 504.859375 91.085938 509.414062 89.808594 C 509.511719 89.769531 509.609375 89.769531 509.703125 89.730469 C 526.804688 84.625 539.398438 71.152344 539.640625 55.371094 L 539.640625 0.335938 L 449.878906 0.335938 L 449.878906 55.332031 C 450.121094 71.230469 462.523438 84.707031 479.816406 89.691406 Z M 479.816406 89.691406 "/></clipPath><clipPath id="749705c052"><path d="M 539.640625 0.335938 L 629.402344 0.335938 L 629.402344 91.847656 L 539.640625 91.847656 Z M 539.640625 0.335938 "/></clipPath><clipPath id="247a9b9c70"><path d="M 569.578125 89.691406 C 574.179688 90.964844 579.410156 91.800781 584.546875 91.800781 C 589.679688 91.800781 594.621094 91.085938 599.175781 89.808594 C 599.273438 89.769531 599.367188 89.769531 599.464844 89.730469 C 616.566406 84.625 629.160156 71.152344 629.402344 55.371094 L 629.402344 0.335938 L 539.640625 0.335938 L 539.640625 55.332031 C 539.882812 71.230469 552.285156 84.707031 569.578125 89.691406 Z M 569.578125 89.691406 "/></clipPath><clipPath id="d0462cca73"><path d="M 629.402344 0.335938 L 719.164062 0.335938 L 719.164062 91.847656 L 629.402344 91.847656 Z M 629.402344 0.335938 "/></clipPath><clipPath id="492cd363ec"><path d="M 659.339844 89.691406 C 663.941406 90.964844 669.171875 91.800781 674.304688 91.800781 C 679.441406 91.800781 684.382812 91.085938 688.933594 89.808594 C 689.03125 89.769531 689.128906 89.769531 689.226562 89.730469 C 706.324219 84.625 718.921875 71.152344 719.164062 55.371094 L 719.164062 0.335938 L 629.402344 0.335938 L 629.402344 55.332031 C 629.644531 71.230469 642.042969 84.707031 659.339844 89.691406 Z M 659.339844 89.691406 "/></clipPath><clipPath id="c8fef83b9e"><path d="M 719.164062 0.335938 L 808.921875 0.335938 L 808.921875 91.847656 L 719.164062 91.847656 Z M 719.164062 0.335938 "/></clipPath><clipPath id="4a48cf7ccb"><path d="M 749.097656 89.691406 C 753.699219 90.964844 758.933594 91.800781 764.066406 91.800781 C 769.203125 91.800781 774.140625 91.085938 778.695312 89.808594 C 778.792969 89.769531 778.890625 89.769531 778.988281 89.730469 C 796.085938 84.625 808.679688 71.152344 808.921875 55.371094 L 808.921875 0.335938 L 719.164062 0.335938 L 719.164062 55.332031 C 719.40625 71.230469 731.804688 84.707031 749.097656 89.691406 Z M 749.097656 89.691406 "/></clipPath></defs><g id="39e3173443"><g clip-rule="nonzero" clip-path="url(#86a671aa09)"><g clip-rule="nonzero" clip-path="url(#d786d53ba3)"><path style=" stroke:none;fill-rule:nonzero;fill:#b73008;fill-opacity:1;" d="M 1.078125 0.335938 L 90.835938 0.335938 L 90.835938 91.847656 L 1.078125 91.847656 Z M 1.078125 0.335938 "/></g></g><g clip-rule="nonzero" clip-path="url(#084a0b8244)"><g clip-rule="nonzero" clip-path="url(#bafef87d85)"><path style=" stroke:none;fill-rule:nonzero;fill:#f9edc7;fill-opacity:1;" d="M 90.835938 0.335938 L 180.597656 0.335938 L 180.597656 91.847656 L 90.835938 91.847656 Z M 90.835938 0.335938 "/></g></g><g clip-rule="nonzero" clip-path="url(#74a1652fc8)"><g clip-rule="nonzero" clip-path="url(#cdde7adb89)"><path style=" stroke:none;fill-rule:nonzero;fill:#b73008;fill-opacity:1;" d="M 180.597656 0.335938 L 270.359375 0.335938 L 270.359375 91.847656 L 180.597656 91.847656 Z M 180.597656 0.335938 "/></g></g><g clip-rule="nonzero" clip-path="url(#ba94268fa2)"><g clip-rule="nonzero" clip-path="url(#f3e675a85e)"><path style=" stroke:none;fill-rule:nonzero;fill:#f9edc7;fill-opacity:1;" d="M 270.359375 0.335938 L 360.121094 0.335938 L 360.121094 91.847656 L 270.359375 91.847656 Z M 270.359375 0.335938 "/></g></g><g clip-rule="nonzero" clip-path="url(#1d1920af15)"><g clip-rule="nonzero" clip-path="url(#d5cb17a54f)"><path style=" stroke:none;fill-rule:nonzero;fill:#b73008;fill-opacity:1;" d="M 360.121094 0.335938 L 449.878906 0.335938 L 449.878906 91.847656 L 360.121094 91.847656 Z M 360.121094 0.335938 "/></g></g><g clip-rule="nonzero" clip-path="url(#03f17e49f1)"><g clip-rule="nonzero" clip-path="url(#5010204a49)"><path style=" stroke:none;fill-rule:nonzero;fill:#f9edc7;fill-opacity:1;" d="M 449.878906 0.335938 L 539.640625 0.335938 L 539.640625 91.847656 L 449.878906 91.847656 Z M 449.878906 0.335938 "/></g></g><g clip-rule="nonzero" clip-path="url(#749705c052)"><g clip-rule="nonzero" clip-path="url(#247a9b9c70)"><path style=" stroke:none;fill-rule:nonzero;fill:#b73008;fill-opacity:1;" d="M 539.640625 0.335938 L 629.402344 0.335938 L 629.402344 91.847656 L 539.640625 91.847656 Z M 539.640625 0.335938 "/></g></g><g style="fill:#31081f;fill-opacity:1;"><g transform="translate(216.595441, 45.294995)"><path style="stroke:none" d="M 3.292969 -37.386719 L 12.378906 -37.386719 C 14.753906 -37.386719 16.945312 -36.796875 18.941406 -35.617188 C 20.894531 -34.464844 22.449219 -32.921875 23.601562 -30.988281 C 24.789062 -29 25.386719 -26.8125 25.386719 -24.425781 L 25.433594 -17.441406 C 25.433594 -15.046875 24.84375 -12.847656 23.664062 -10.847656 C 22.511719 -8.898438 20.96875 -7.34375 19.03125 -6.1875 C 17.070312 -5.015625 14.914062 -4.40625 12.558594 -4.359375 L 9.222656 -4.359375 L 9.222656 -8.800781 L 13.667969 -8.824219 L 13.738281 4.40625 L -1.039062 4.523438 L -1.160156 -37.386719 Z M 3.292969 -28.503906 L 3.292969 -32.945312 L 7.738281 -32.957031 L 7.832031 0.0351562 L 3.386719 0.046875 L 3.351562 -4.394531 L 9.234375 -4.441406 L 9.269531 0 L 4.828125 0.0234375 L 4.757812 -13.242188 L 12.382812 -13.242188 C 13.167969 -13.257812 13.863281 -13.449219 14.476562 -13.8125 C 15.113281 -14.195312 15.625 -14.710938 16.011719 -15.367188 C 16.371094 -15.972656 16.546875 -16.644531 16.546875 -17.382812 L 16.5 -24.425781 C 16.5 -25.175781 16.328125 -25.84375 15.976562 -26.429688 C 15.59375 -27.070312 15.078125 -27.582031 14.425781 -27.964844 C 13.820312 -28.324219 13.136719 -28.503906 12.378906 -28.503906 Z M 9.222656 -18.417969 L 12.09375 -18.417969 C 11.894531 -18.417969 11.6875 -18.375 11.46875 -18.285156 C 11.238281 -18.1875 11.042969 -18.058594 10.886719 -17.894531 C 10.753906 -17.761719 10.644531 -17.589844 10.5625 -17.386719 C 10.472656 -17.171875 10.429688 -16.960938 10.429688 -16.753906 L 10.382812 -24.964844 C 10.382812 -24.796875 10.425781 -24.609375 10.507812 -24.40625 C 10.601562 -24.179688 10.726562 -23.984375 10.882812 -23.824219 C 11.042969 -23.667969 11.234375 -23.542969 11.464844 -23.449219 C 11.667969 -23.367188 11.863281 -23.324219 12.046875 -23.324219 L 9.175781 -23.324219 L 9.175781 -27.765625 L 13.621094 -27.78125 L 13.667969 -13.992188 L 9.222656 -13.976562 Z M 4.796875 -9.535156 L 4.71875 -32.210938 L 12.046875 -32.210938 C 13.015625 -32.210938 13.933594 -32.035156 14.796875 -31.683594 C 15.683594 -31.324219 16.472656 -30.800781 17.164062 -30.109375 C 17.859375 -29.414062 18.382812 -28.625 18.742188 -27.738281 C 19.09375 -26.875 19.265625 -25.96875 19.265625 -25.015625 L 19.3125 -16.753906 C 19.3125 -15.792969 19.136719 -14.882812 18.78125 -14.015625 C 18.433594 -13.160156 17.921875 -12.390625 17.257812 -11.707031 C 16.566406 -10.996094 15.777344 -10.453125 14.886719 -10.082031 C 14.011719 -9.71875 13.078125 -9.535156 12.09375 -9.535156 Z M 4.796875 -9.535156 "/></g></g><g style="fill:#31081f;fill-opacity:1;"><g transform="translate(238.430928, 45.294995)"><path style="stroke:none" d="M 5.929688 -21.253906 L 5.175781 -21.253906 C 4.199219 -21.253906 3.273438 -21.433594 2.398438 -21.792969 C 1.515625 -22.15625 0.730469 -22.6875 0.0351562 -23.378906 C -0.648438 -24.0625 -1.171875 -24.835938 -1.535156 -25.695312 C -1.902344 -26.570312 -2.089844 -27.496094 -2.089844 -28.472656 L -2.089844 -30.921875 C -2.089844 -31.90625 -1.90625 -32.835938 -1.542969 -33.710938 C -1.171875 -34.601562 -0.628906 -35.394531 0.0820312 -36.082031 C 0.777344 -36.757812 1.5625 -37.269531 2.4375 -37.621094 C 3.300781 -37.964844 4.214844 -38.140625 5.175781 -38.140625 L 5.929688 -38.140625 C 6.890625 -38.140625 7.800781 -37.960938 8.667969 -37.609375 C 9.523438 -37.257812 10.292969 -36.75 10.976562 -36.082031 C 11.6875 -35.394531 12.230469 -34.601562 12.601562 -33.710938 C 12.964844 -32.835938 13.148438 -31.90625 13.148438 -30.921875 L 13.148438 -28.472656 C 13.148438 -27.496094 12.964844 -26.570312 12.59375 -25.695312 C 12.230469 -24.835938 11.707031 -24.0625 11.023438 -23.378906 C 10.339844 -22.695312 9.566406 -22.171875 8.707031 -21.808594 C 7.832031 -21.4375 6.90625 -21.253906 5.929688 -21.253906 Z M 5.929688 -30.136719 C 5.707031 -30.136719 5.484375 -30.089844 5.257812 -29.996094 C 5.046875 -29.90625 4.878906 -29.796875 4.742188 -29.660156 C 4.605469 -29.527344 4.496094 -29.355469 4.40625 -29.144531 C 4.3125 -28.917969 4.265625 -28.695312 4.265625 -28.472656 L 4.265625 -30.921875 C 4.265625 -30.71875 4.308594 -30.511719 4.402344 -30.292969 C 4.496094 -30.0625 4.625 -29.867188 4.789062 -29.710938 C 4.925781 -29.578125 5.09375 -29.46875 5.300781 -29.386719 C 5.511719 -29.300781 5.722656 -29.253906 5.929688 -29.253906 L 5.175781 -29.253906 C 5.355469 -29.253906 5.542969 -29.292969 5.738281 -29.371094 C 5.949219 -29.457031 6.125 -29.570312 6.273438 -29.710938 C 6.433594 -29.867188 6.5625 -30.0625 6.660156 -30.292969 C 6.75 -30.511719 6.796875 -30.71875 6.796875 -30.921875 L 6.796875 -28.472656 C 6.796875 -28.695312 6.746094 -28.917969 6.652344 -29.144531 C 6.5625 -29.355469 6.453125 -29.527344 6.316406 -29.660156 C 6.171875 -29.804688 5.996094 -29.921875 5.78125 -30.007812 C 5.570312 -30.09375 5.371094 -30.136719 5.175781 -30.136719 Z M 2.824219 -27.972656 L 12.679688 -27.972656 L 12.679688 4.441406 L -1.617188 4.441406 L -1.617188 -27.972656 Z M 2.824219 -19.089844 L 2.824219 -23.53125 L 7.265625 -23.53125 L 7.265625 0 L 2.824219 0 L 2.824219 -4.441406 L 8.234375 -4.441406 L 8.234375 0 L 3.792969 0 L 3.792969 -23.53125 L 8.234375 -23.53125 L 8.234375 -19.089844 Z M 2.824219 -19.089844 "/></g></g><g style="fill:#31081f;fill-opacity:1;"><g transform="translate(248.689773, 45.294995)"><path style="stroke:none" d="M 21.089844 -19.121094 L 12.148438 -2.507812 L 8.234375 -4.613281 L 8.234375 -9.054688 L 21.195312 -9.054688 L 21.195312 4.441406 L -3.265625 4.441406 L -3.265625 -3.375 L 6.203125 -21.019531 L 10.117188 -18.917969 L 10.117188 -14.476562 L -2.277344 -14.476562 L -2.277344 -27.972656 L 21.621094 -27.972656 L 21.621094 -20.105469 Z M 13.265625 -23.332031 L 17.179688 -21.226562 L 12.734375 -21.226562 L 12.734375 -23.53125 L 17.179688 -23.53125 L 17.179688 -19.089844 L 2.164062 -19.089844 L 2.164062 -23.53125 L 6.605469 -23.53125 L 6.605469 -18.917969 L 2.164062 -18.917969 L 2.164062 -23.359375 L 17.542969 -23.359375 L 5.089844 -0.160156 L 1.175781 -2.257812 L 5.617188 -2.257812 L 5.617188 0 L 1.175781 0 L 1.175781 -4.441406 L 16.753906 -4.441406 L 16.753906 0 L 12.3125 0 L 12.3125 -4.613281 L 16.753906 -4.613281 L 16.753906 -0.171875 L 0.800781 -0.171875 Z M 13.265625 -23.332031 "/></g></g><g style="fill:#31081f;fill-opacity:1;"><g transform="translate(266.242847, 45.294995)"><path style="stroke:none" d="M 21.089844 -19.121094 L 12.148438 -2.507812 L 8.234375 -4.613281 L 8.234375 -9.054688 L 21.195312 -9.054688 L 21.195312 4.441406 L -3.265625 4.441406 L -3.265625 -3.375 L 6.203125 -21.019531 L 10.117188 -18.917969 L 10.117188 -14.476562 L -2.277344 -14.476562 L -2.277344 -27.972656 L 21.621094 -27.972656 L 21.621094 -20.105469 Z M 13.265625 -23.332031 L 17.179688 -21.226562 L 12.734375 -21.226562 L 12.734375 -23.53125 L 17.179688 -23.53125 L 17.179688 -19.089844 L 2.164062 -19.089844 L 2.164062 -23.53125 L 6.605469 -23.53125 L 6.605469 -18.917969 L 2.164062 -18.917969 L 2.164062 -23.359375 L 17.542969 -23.359375 L 5.089844 -0.160156 L 1.175781 -2.257812 L 5.617188 -2.257812 L 5.617188 0 L 1.175781 0 L 1.175781 -4.441406 L 16.753906 -4.441406 L 16.753906 0 L 12.3125 0 L 12.3125 -4.613281 L 16.753906 -4.613281 L 16.753906 -0.171875 L 0.800781 -0.171875 Z M 13.265625 -23.332031 "/></g></g><g style="fill:#31081f;fill-opacity:1;"><g transform="translate(283.795921, 45.294995)"><path style="stroke:none" d="M 9.695312 -28.773438 L 10.683594 -28.773438 C 12.871094 -28.773438 14.886719 -28.230469 16.726562 -27.148438 C 18.53125 -26.082031 19.964844 -24.648438 21.027344 -22.84375 C 22.113281 -21.003906 22.65625 -18.972656 22.65625 -16.753906 L 22.65625 4.441406 L 12.796875 4.441406 L 10.714844 1.578125 L 14.308594 -1.035156 L 14.308594 3.40625 L 13.976562 3.40625 L 13.976562 -1.035156 L 17.507812 1.664062 C 16.566406 2.894531 15.191406 3.828125 13.390625 4.46875 C 11.9375 4.984375 10.378906 5.242188 8.707031 5.242188 C 6.785156 5.242188 4.976562 4.882812 3.277344 4.160156 C 1.332031 3.332031 -0.238281 2.042969 -1.433594 0.289062 C -2.65625 -1.5 -3.265625 -3.652344 -3.265625 -6.164062 L -3.265625 -6.730469 C -3.265625 -9.214844 -2.445312 -11.335938 -0.804688 -13.097656 C 0.40625 -14.398438 1.878906 -15.484375 3.613281 -16.351562 C 5.082031 -17.085938 6.578125 -17.691406 8.109375 -18.167969 C 9.425781 -18.582031 10.566406 -18.933594 11.523438 -19.21875 L 12.800781 -14.964844 L 8.359375 -14.964844 L 8.359375 -17.082031 C 8.359375 -16.8125 8.417969 -16.539062 8.53125 -16.269531 C 8.632812 -16.027344 8.765625 -15.824219 8.929688 -15.660156 C 9.09375 -15.496094 9.296875 -15.363281 9.542969 -15.261719 C 9.808594 -15.144531 10.082031 -15.089844 10.355469 -15.089844 L 10.023438 -15.089844 C 10.261719 -15.089844 10.496094 -15.136719 10.738281 -15.234375 C 10.96875 -15.332031 11.167969 -15.457031 11.328125 -15.609375 C 11.492188 -15.773438 11.632812 -15.976562 11.738281 -16.222656 C 11.863281 -16.507812 11.925781 -16.792969 11.925781 -17.082031 L 11.925781 -10.710938 L -2.324219 -10.710938 L -2.324219 -16.753906 C -2.324219 -18.941406 -1.78125 -20.957031 -0.699219 -22.796875 C 0.363281 -24.597656 1.800781 -26.035156 3.613281 -27.113281 C 5.472656 -28.21875 7.5 -28.773438 9.695312 -28.773438 Z M 9.695312 -19.890625 C 9.128906 -19.890625 8.613281 -19.753906 8.152344 -19.476562 C 7.644531 -19.175781 7.246094 -18.78125 6.957031 -18.289062 C 6.691406 -17.839844 6.558594 -17.328125 6.558594 -16.753906 L 6.558594 -15.152344 L 2.117188 -15.152344 L 2.117188 -19.597656 L 7.484375 -19.597656 L 7.484375 -15.152344 L 3.042969 -15.152344 L 3.042969 -17.082031 C 3.042969 -18.035156 3.226562 -18.9375 3.601562 -19.789062 C 3.960938 -20.609375 4.476562 -21.34375 5.144531 -21.992188 C 5.808594 -22.632812 6.554688 -23.125 7.382812 -23.460938 C 8.21875 -23.800781 9.097656 -23.972656 10.023438 -23.972656 L 10.355469 -23.972656 C 11.285156 -23.972656 12.171875 -23.792969 13.015625 -23.4375 C 13.828125 -23.089844 14.5625 -22.59375 15.210938 -21.941406 C 15.863281 -21.292969 16.359375 -20.558594 16.707031 -19.742188 C 17.066406 -18.902344 17.242188 -18.015625 17.242188 -17.082031 L 17.242188 -11.660156 L 14.078125 -10.710938 C 13.152344 -10.433594 12.050781 -10.09375 10.765625 -9.691406 C 9.6875 -9.355469 8.628906 -8.925781 7.585938 -8.40625 C 6.808594 -8.015625 6.179688 -7.5625 5.699219 -7.042969 C 5.667969 -7.011719 5.652344 -6.992188 5.644531 -6.976562 C 5.628906 -6.925781 5.617188 -6.84375 5.617188 -6.730469 L 5.617188 -6.164062 C 5.617188 -5.480469 5.714844 -4.996094 5.90625 -4.714844 C 6.121094 -4.398438 6.402344 -4.164062 6.75 -4.019531 C 7.339844 -3.765625 7.992188 -3.640625 8.707031 -3.640625 C 9.359375 -3.640625 9.929688 -3.730469 10.421875 -3.902344 C 10.589844 -3.964844 10.707031 -4.015625 10.769531 -4.054688 C 10.671875 -3.992188 10.5625 -3.882812 10.449219 -3.734375 L 11.78125 -5.476562 L 16.570312 -5.476562 L 18.652344 -2.613281 L 15.058594 0 L 15.058594 -4.441406 L 18.214844 -4.441406 L 18.214844 0 L 13.769531 0 L 13.769531 -16.753906 C 13.769531 -17.359375 13.640625 -17.886719 13.375 -18.335938 C 13.089844 -18.820312 12.703125 -19.207031 12.21875 -19.492188 C 11.769531 -19.757812 11.257812 -19.890625 10.683594 -19.890625 Z M 8.359375 -6.449219 L 8.359375 -10.542969 L 12.800781 -10.542969 L 14.429688 -6.410156 C 13.234375 -5.9375 12.085938 -5.554688 10.980469 -5.261719 C 10.679688 -5.179688 10.480469 -5.101562 10.390625 -5.027344 C 10.703125 -5.289062 10.921875 -5.589844 11.039062 -5.925781 C 11.0625 -5.992188 11.078125 -6.042969 11.085938 -6.082031 C 11.082031 -6.050781 11.078125 -6 11.078125 -5.929688 L 11.078125 -5.460938 C 11.078125 -5.867188 10.976562 -6.277344 10.777344 -6.695312 C 10.488281 -7.300781 10.058594 -7.777344 9.488281 -8.125 C 9.1875 -8.308594 8.917969 -8.417969 8.679688 -8.460938 C 8.75 -8.449219 8.882812 -8.441406 9.082031 -8.441406 L 10.355469 -8.441406 C 10.097656 -8.441406 9.84375 -8.390625 9.589844 -8.285156 C 9.351562 -8.1875 9.148438 -8.058594 8.984375 -7.898438 C 8.789062 -7.710938 8.636719 -7.480469 8.523438 -7.210938 C 8.414062 -6.953125 8.359375 -6.699219 8.359375 -6.449219 Z M 17.242188 -6.449219 C 17.242188 -5.507812 17.066406 -4.617188 16.714844 -3.777344 C 16.359375 -2.925781 15.839844 -2.171875 15.160156 -1.515625 C 14.507812 -0.882812 13.777344 -0.402344 12.964844 -0.0664062 C 12.140625 0.273438 11.269531 0.441406 10.355469 0.441406 L 9.082031 0.441406 C 7.34375 0.441406 5.9375 0.117188 4.867188 -0.535156 C 3.9375 -1.101562 3.234375 -1.875 2.765625 -2.859375 C 2.382812 -3.652344 2.195312 -4.519531 2.195312 -5.460938 L 2.195312 -5.929688 C 2.195312 -7.023438 2.355469 -8.023438 2.679688 -8.921875 C 3.097656 -10.089844 3.761719 -11.058594 4.667969 -11.820312 C 5.769531 -12.75 7.113281 -13.425781 8.691406 -13.847656 C 9.46875 -14.054688 10.296875 -14.328125 11.171875 -14.675781 L 17.242188 -17.066406 Z M 17.242188 -6.449219 "/></g></g><g style="fill:#31081f;fill-opacity:1;"><g transform="translate(303.560795, 45.294995)"><path style="stroke:none" d=""/></g></g><g style="fill:#31081f;fill-opacity:1;"><g transform="translate(315.23143, 45.294995)"><path style="stroke:none" d="M 10.917969 -16.726562 L 11.34375 -16.726562 L 11.34375 -12.285156 L 6.976562 -13.109375 L 11.566406 -37.386719 L 26.53125 -37.386719 L 17.929688 4.441406 L 4.332031 4.441406 L -4.273438 -37.386719 L 10.691406 -37.386719 L 15.285156 -13.109375 L 10.917969 -12.285156 Z M 7.238281 -7.839844 L 2.648438 -32.117188 L 7.011719 -32.945312 L 7.011719 -28.503906 L 1.175781 -28.503906 L 1.175781 -32.945312 L 5.527344 -33.839844 L 12.304688 -0.894531 L 7.953125 0 L 7.953125 -4.441406 L 14.308594 -4.441406 L 14.308594 0 L 9.957031 -0.894531 L 16.734375 -33.839844 L 21.085938 -32.945312 L 21.085938 -28.503906 L 15.25 -28.503906 L 15.25 -32.945312 L 19.613281 -32.117188 L 15.023438 -7.839844 Z M 7.238281 -7.839844 "/></g></g><g style="fill:#31081f;fill-opacity:1;"><g transform="translate(335.984503, 45.294995)"><path style="stroke:none" d="M 9.695312 -28.773438 L 10.683594 -28.773438 C 12.871094 -28.773438 14.886719 -28.230469 16.726562 -27.148438 C 18.53125 -26.082031 19.964844 -24.648438 21.027344 -22.84375 C 22.113281 -21.003906 22.65625 -18.972656 22.65625 -16.753906 L 22.65625 4.441406 L 12.796875 4.441406 L 10.714844 1.578125 L 14.308594 -1.035156 L 14.308594 3.40625 L 13.976562 3.40625 L 13.976562 -1.035156 L 17.507812 1.664062 C 16.566406 2.894531 15.191406 3.828125 13.390625 4.46875 C 11.9375 4.984375 10.378906 5.242188 8.707031 5.242188 C 6.785156 5.242188 4.976562 4.882812 3.277344 4.160156 C 1.332031 3.332031 -0.238281 2.042969 -1.433594 0.289062 C -2.65625 -1.5 -3.265625 -3.652344 -3.265625 -6.164062 L -3.265625 -6.730469 C -3.265625 -9.214844 -2.445312 -11.335938 -0.804688 -13.097656 C 0.40625 -14.398438 1.878906 -15.484375 3.613281 -16.351562 C 5.082031 -17.085938 6.578125 -17.691406 8.109375 -18.167969 C 9.425781 -18.582031 10.566406 -18.933594 11.523438 -19.21875 L 12.800781 -14.964844 L 8.359375 -14.964844 L 8.359375 -17.082031 C 8.359375 -16.8125 8.417969 -16.539062 8.53125 -16.269531 C 8.632812 -16.027344 8.765625 -15.824219 8.929688 -15.660156 C 9.09375 -15.496094 9.296875 -15.363281 9.542969 -15.261719 C 9.808594 -15.144531 10.082031 -15.089844 10.355469 -15.089844 L 10.023438 -15.089844 C 10.261719 -15.089844 10.496094 -15.136719 10.738281 -15.234375 C 10.96875 -15.332031 11.167969 -15.457031 11.328125 -15.609375 C 11.492188 -15.773438 11.632812 -15.976562 11.738281 -16.222656 C 11.863281 -16.507812 11.925781 -16.792969 11.925781 -17.082031 L 11.925781 -10.710938 L -2.324219 -10.710938 L -2.324219 -16.753906 C -2.324219 -18.941406 -1.78125 -20.957031 -0.699219 -22.796875 C 0.363281 -24.597656 1.800781 -26.035156 3.613281 -27.113281 C 5.472656 -28.21875 7.5 -28.773438 9.695312 -28.773438 Z M 9.695312 -19.890625 C 9.128906 -19.890625 8.613281 -19.753906 8.152344 -19.476562 C 7.644531 -19.175781 7.246094 -18.78125 6.957031 -18.289062 C 6.691406 -17.839844 6.558594 -17.328125 6.558594 -16.753906 L 6.558594 -15.152344 L 2.117188 -15.152344 L 2.117188 -19.597656 L 7.484375 -19.597656 L 7.484375 -15.152344 L 3.042969 -15.152344 L 3.042969 -17.082031 C 3.042969 -18.035156 3.226562 -18.9375 3.601562 -19.789062 C 3.960938 -20.609375 4.476562 -21.34375 5.144531 -21.992188 C 5.808594 -22.632812 6.554688 -23.125 7.382812 -23.460938 C 8.21875 -23.800781 9.097656 -23.972656 10.023438 -23.972656 L 10.355469 -23.972656 C 11.285156 -23.972656 12.171875 -23.792969 13.015625 -23.4375 C 13.828125 -23.089844 14.5625 -22.59375 15.210938 -21.941406 C 15.863281 -21.292969 16.359375 -20.558594 16.707031 -19.742188 C 17.066406 -18.902344 17.242188 -18.015625 17.242188 -17.082031 L 17.242188 -11.660156 L 14.078125 -10.710938 C 13.152344 -10.433594 12.050781 -10.09375 10.765625 -9.691406 C 9.6875 -9.355469 8.628906 -8.925781 7.585938 -8.40625 C 6.808594 -8.015625 6.179688 -7.5625 5.699219 -7.042969 C 5.667969 -7.011719 5.652344 -6.992188 5.644531 -6.976562 C 5.628906 -6.925781 5.617188 -6.84375 5.617188 -6.730469 L 5.617188 -6.164062 C 5.617188 -5.480469 5.714844 -4.996094 5.90625 -4.714844 C 6.121094 -4.398438 6.402344 -4.164062 6.75 -4.019531 C 7.339844 -3.765625 7.992188 -3.640625 8.707031 -3.640625 C 9.359375 -3.640625 9.929688 -3.730469 10.421875 -3.902344 C 10.589844 -3.964844 10.707031 -4.015625 10.769531 -4.054688 C 10.671875 -3.992188 10.5625 -3.882812 10.449219 -3.734375 L 11.78125 -5.476562 L 16.570312 -5.476562 L 18.652344 -2.613281 L 15.058594 0 L 15.058594 -4.441406 L 18.214844 -4.441406 L 18.214844 0 L 13.769531 0 L 13.769531 -16.753906 C 13.769531 -17.359375 13.640625 -17.886719 13.375 -18.335938 C 13.089844 -18.820312 12.703125 -19.207031 12.21875 -19.492188 C 11.769531 -19.757812 11.257812 -19.890625 10.683594 -19.890625 Z M 8.359375 -6.449219 L 8.359375 -10.542969 L 12.800781 -10.542969 L 14.429688 -6.410156 C 13.234375 -5.9375 12.085938 -5.554688 10.980469 -5.261719 C 10.679688 -5.179688 10.480469 -5.101562 10.390625 -5.027344 C 10.703125 -5.289062 10.921875 -5.589844 11.039062 -5.925781 C 11.0625 -5.992188 11.078125 -6.042969 11.085938 -6.082031 C 11.082031 -6.050781 11.078125 -6 11.078125 -5.929688 L 11.078125 -5.460938 C 11.078125 -5.867188 10.976562 -6.277344 10.777344 -6.695312 C 10.488281 -7.300781 10.058594 -7.777344 9.488281 -8.125 C 9.1875 -8.308594 8.917969 -8.417969 8.679688 -8.460938 C 8.75 -8.449219 8.882812 -8.441406 9.082031 -8.441406 L 10.355469 -8.441406 C 10.097656 -8.441406 9.84375 -8.390625 9.589844 -8.285156 C 9.351562 -8.1875 9.148438 -8.058594 8.984375 -7.898438 C 8.789062 -7.710938 8.636719 -7.480469 8.523438 -7.210938 C 8.414062 -6.953125 8.359375 -6.699219 8.359375 -6.449219 Z M 17.242188 -6.449219 C 17.242188 -5.507812 17.066406 -4.617188 16.714844 -3.777344 C 16.359375 -2.925781 15.839844 -2.171875 15.160156 -1.515625 C 14.507812 -0.882812 13.777344 -0.402344 12.964844 -0.0664062 C 12.140625 0.273438 11.269531 0.441406 10.355469 0.441406 L 9.082031 0.441406 C 7.34375 0.441406 5.9375 0.117188 4.867188 -0.535156 C 3.9375 -1.101562 3.234375 -1.875 2.765625 -2.859375 C 2.382812 -3.652344 2.195312 -4.519531 2.195312 -5.460938 L 2.195312 -5.929688 C 2.195312 -7.023438 2.355469 -8.023438 2.679688 -8.921875 C 3.097656 -10.089844 3.761719 -11.058594 4.667969 -11.820312 C 5.769531 -12.75 7.113281 -13.425781 8.691406 -13.847656 C 9.46875 -14.054688 10.296875 -14.328125 11.171875 -14.675781 L 17.242188 -17.066406 Z M 17.242188 -6.449219 "/></g></g><g style="fill:#31081f;fill-opacity:1;"><g transform="translate(355.514054, 45.294995)"><path style="stroke:none" d="M -1.617188 -37.386719 L 12.679688 -37.386719 L 12.679688 4.441406 L -1.617188 4.441406 Z M -1.617188 -37.386719 "/></g></g><g style="fill:#31081f;fill-opacity:1;"><g transform="translate(365.537582, 45.294995)"><path style="stroke:none" d="M 9.019531 -8.140625 L 9.019531 -27.972656 L 23.3125 -27.972656 L 23.3125 4.441406 L 9.769531 4.441406 L 9.769531 -1.035156 L 14.214844 -1.035156 L 14.214844 3.40625 L 13.789062 3.40625 L 13.789062 -1.035156 L 17.316406 1.664062 C 16.382812 2.886719 15.023438 3.820312 13.25 4.460938 C 11.804688 4.980469 10.464844 5.242188 9.222656 5.242188 L 8.753906 5.242188 C 7.199219 5.242188 5.757812 4.964844 4.433594 4.40625 C 3.054688 3.824219 1.851562 2.964844 0.820312 1.824219 C -1.117188 -0.324219 -2.089844 -3.066406 -2.089844 -6.402344 L -2.089844 -27.972656 L 12.207031 -27.972656 L 12.207031 -8.28125 C 12.207031 -7.765625 12.230469 -7.246094 12.28125 -6.726562 C 12.253906 -7.003906 12.125 -7.277344 11.890625 -7.550781 C 11.546875 -7.953125 11.148438 -8.230469 10.699219 -8.378906 C 10.601562 -8.410156 10.519531 -8.433594 10.445312 -8.441406 L 10.433594 -8.445312 C 10.449219 -8.441406 10.46875 -8.441406 10.496094 -8.441406 L 10.503906 -8.441406 C 10.484375 -8.441406 10.460938 -8.4375 10.429688 -8.433594 C 10.316406 -8.410156 10.195312 -8.371094 10.066406 -8.3125 C 9.667969 -8.136719 9.34375 -7.863281 9.09375 -7.496094 C 9.03125 -7.398438 8.980469 -7.308594 8.949219 -7.226562 C 8.941406 -7.214844 8.9375 -7.203125 8.9375 -7.199219 C 8.941406 -7.210938 8.945312 -7.226562 8.949219 -7.246094 C 8.996094 -7.457031 9.019531 -7.753906 9.019531 -8.140625 Z M 17.902344 -8.140625 C 17.902344 -5.824219 17.421875 -3.953125 16.460938 -2.527344 C 15.757812 -1.484375 14.824219 -0.707031 13.664062 -0.191406 C 12.710938 0.230469 11.65625 0.441406 10.496094 0.441406 C 8.191406 0.441406 6.410156 -0.296875 5.144531 -1.769531 C 4.160156 -2.921875 3.589844 -4.292969 3.4375 -5.886719 C 3.363281 -6.683594 3.324219 -7.484375 3.324219 -8.28125 L 3.324219 -23.53125 L 7.765625 -23.53125 L 7.765625 -19.089844 L 2.351562 -19.089844 L 2.351562 -23.53125 L 6.796875 -23.53125 L 6.796875 -6.402344 C 6.796875 -5.34375 7 -4.585938 7.414062 -4.132812 C 7.5625 -3.96875 7.71875 -3.851562 7.882812 -3.78125 C 8.105469 -3.6875 8.394531 -3.640625 8.753906 -3.640625 L 9.222656 -3.640625 C 9.429688 -3.640625 9.765625 -3.726562 10.234375 -3.894531 C 10.398438 -3.953125 10.507812 -4.003906 10.566406 -4.039062 C 10.472656 -3.980469 10.371094 -3.878906 10.261719 -3.734375 L 11.59375 -5.476562 L 18.65625 -5.476562 L 18.65625 0 L 14.214844 0 L 14.214844 -4.441406 L 18.871094 -4.441406 L 18.871094 0 L 14.429688 0 L 14.429688 -23.53125 L 18.871094 -23.53125 L 18.871094 -19.089844 L 13.460938 -19.089844 L 13.460938 -23.53125 L 17.902344 -23.53125 Z M 17.902344 -8.140625 "/></g></g><g style="fill:#31081f;fill-opacity:1;"><g transform="translate(386.196572, 45.294995)"><path style="stroke:none" d="M 23.972656 -16.753906 L 23.972656 -6.242188 L 7.765625 -6.242188 L 7.765625 -10.683594 L 12.207031 -10.683594 L 12.207031 -6.449219 C 12.207031 -6.699219 12.152344 -6.953125 12.042969 -7.210938 C 11.929688 -7.480469 11.777344 -7.710938 11.582031 -7.898438 C 11.417969 -8.058594 11.214844 -8.1875 10.976562 -8.285156 C 10.722656 -8.390625 10.46875 -8.441406 10.210938 -8.441406 L 11.625 -8.441406 C 11.371094 -8.441406 11.113281 -8.390625 10.859375 -8.285156 C 10.621094 -8.1875 10.417969 -8.058594 10.253906 -7.898438 C 10.058594 -7.710938 9.90625 -7.480469 9.792969 -7.210938 C 9.683594 -6.953125 9.628906 -6.699219 9.628906 -6.449219 L 9.628906 -12.820312 L 23.972656 -12.820312 L 23.972656 -6.777344 C 23.972656 -4.582031 23.421875 -2.554688 22.3125 -0.695312 C 21.234375 1.117188 19.796875 2.554688 17.996094 3.617188 C 16.15625 4.699219 14.140625 5.242188 11.953125 5.242188 L 9.882812 5.242188 C 7.695312 5.242188 5.679688 4.699219 3.839844 3.617188 C 2.027344 2.546875 0.589844 1.097656 -0.476562 -0.734375 C -1.550781 -2.585938 -2.089844 -4.597656 -2.089844 -6.777344 L -2.089844 -16.753906 C -2.089844 -18.941406 -1.546875 -20.957031 -0.460938 -22.796875 C 0.59375 -24.589844 2.015625 -26.023438 3.800781 -27.101562 C 5.652344 -28.214844 7.679688 -28.773438 9.882812 -28.773438 L 11.953125 -28.773438 C 14.15625 -28.773438 16.183594 -28.214844 18.035156 -27.101562 C 19.808594 -26.03125 21.230469 -24.609375 22.300781 -22.835938 C 23.414062 -20.984375 23.972656 -18.957031 23.972656 -16.753906 Z M 15.089844 -16.753906 C 15.089844 -17.3125 14.957031 -17.808594 14.691406 -18.25 C 14.378906 -18.765625 13.964844 -19.179688 13.449219 -19.492188 C 13.007812 -19.757812 12.511719 -19.890625 11.953125 -19.890625 L 9.882812 -19.890625 C 9.324219 -19.890625 8.828125 -19.757812 8.386719 -19.492188 C 7.882812 -19.1875 7.484375 -18.789062 7.191406 -18.289062 C 6.925781 -17.839844 6.796875 -17.328125 6.796875 -16.753906 L 6.796875 -6.777344 C 6.796875 -6.195312 6.933594 -5.667969 7.207031 -5.195312 C 7.492188 -4.707031 7.871094 -4.320312 8.347656 -4.039062 C 8.796875 -3.773438 9.308594 -3.640625 9.882812 -3.640625 L 11.953125 -3.640625 C 12.527344 -3.640625 13.039062 -3.773438 13.488281 -4.039062 C 13.980469 -4.328125 14.375 -4.726562 14.675781 -5.234375 C 14.953125 -5.695312 15.089844 -6.210938 15.089844 -6.777344 L 15.089844 -8.378906 L 19.53125 -8.378906 L 19.53125 -3.933594 L 14.070312 -3.933594 L 14.070312 -8.378906 L 18.515625 -8.378906 L 18.515625 -6.449219 C 18.515625 -5.507812 18.339844 -4.617188 17.988281 -3.777344 C 17.628906 -2.925781 17.113281 -2.171875 16.429688 -1.515625 C 15.78125 -0.882812 15.046875 -0.402344 14.238281 -0.0664062 C 13.410156 0.273438 12.539062 0.441406 11.625 0.441406 L 10.210938 0.441406 C 9.296875 0.441406 8.429688 0.273438 7.601562 -0.0664062 C 6.789062 -0.402344 6.058594 -0.882812 5.40625 -1.515625 C 4.726562 -2.171875 4.207031 -2.925781 3.851562 -3.777344 C 3.5 -4.617188 3.324219 -5.507812 3.324219 -6.449219 L 3.324219 -15.125 L 19.53125 -15.125 L 19.53125 -10.683594 L 15.089844 -10.683594 Z M 12.207031 -17.082031 L 12.207031 -14.355469 L 7.765625 -14.355469 L 7.765625 -18.796875 L 14.070312 -18.796875 L 14.070312 -14.355469 L 9.628906 -14.355469 L 9.628906 -17.082031 C 9.628906 -16.8125 9.6875 -16.539062 9.800781 -16.269531 C 9.902344 -16.027344 10.039062 -15.824219 10.203125 -15.660156 C 10.363281 -15.496094 10.570312 -15.363281 10.8125 -15.261719 C 11.082031 -15.144531 11.351562 -15.089844 11.625 -15.089844 L 10.210938 -15.089844 C 10.484375 -15.089844 10.757812 -15.144531 11.023438 -15.261719 C 11.269531 -15.363281 11.472656 -15.496094 11.636719 -15.660156 C 11.800781 -15.824219 11.933594 -16.027344 12.035156 -16.269531 C 12.148438 -16.539062 12.207031 -16.8125 12.207031 -17.082031 Z M 3.324219 -17.082031 C 3.324219 -18.015625 3.503906 -18.902344 3.859375 -19.742188 C 4.207031 -20.558594 4.703125 -21.292969 5.355469 -21.941406 C 6.003906 -22.59375 6.738281 -23.089844 7.554688 -23.4375 C 8.394531 -23.792969 9.28125 -23.972656 10.210938 -23.972656 L 11.625 -23.972656 C 12.558594 -23.972656 13.441406 -23.792969 14.285156 -23.4375 C 15.101562 -23.089844 15.832031 -22.59375 16.484375 -21.941406 C 17.132812 -21.292969 17.632812 -20.558594 17.976562 -19.742188 C 18.335938 -18.902344 18.515625 -18.015625 18.515625 -17.082031 L 18.515625 -9.914062 L 3.324219 -9.914062 Z M 3.324219 -17.082031 "/></g></g><g style="fill:#31081f;fill-opacity:1;"><g transform="translate(406.337925, 45.294995)"><path style="stroke:none" d=""/></g></g><g style="fill:#31081f;fill-opacity:1;"><g transform="translate(418.008553, 45.294995)"><path style="stroke:none" d="M 11.390625 -38.1875 L 13.082031 -38.1875 C 15.460938 -38.1875 17.648438 -37.597656 19.648438 -36.417969 C 21.605469 -35.257812 23.164062 -33.703125 24.320312 -31.742188 C 25.5 -29.746094 26.089844 -27.554688 26.089844 -25.179688 L 26.089844 -16.6875 L 11.089844 -16.6875 L 11.089844 -25.554688 C 11.089844 -25.332031 11.136719 -25.109375 11.230469 -24.882812 C 11.320312 -24.675781 11.429688 -24.503906 11.566406 -24.367188 C 11.703125 -24.230469 11.871094 -24.121094 12.082031 -24.03125 C 12.308594 -23.9375 12.53125 -23.890625 12.753906 -23.890625 L 11.71875 -23.890625 C 11.917969 -23.890625 12.128906 -23.933594 12.34375 -24.027344 C 12.578125 -24.121094 12.769531 -24.25 12.929688 -24.414062 C 13.0625 -24.550781 13.167969 -24.71875 13.253906 -24.925781 C 13.339844 -25.136719 13.382812 -25.347656 13.382812 -25.554688 L 13.382812 -7.390625 C 13.382812 -7.59375 13.339844 -7.804688 13.253906 -8.019531 C 13.167969 -8.222656 13.0625 -8.394531 12.929688 -8.53125 C 12.769531 -8.691406 12.578125 -8.820312 12.34375 -8.917969 C 12.128906 -9.007812 11.917969 -9.054688 11.71875 -9.054688 L 12.753906 -9.054688 C 12.53125 -9.054688 12.308594 -9.007812 12.082031 -8.910156 C 11.871094 -8.824219 11.703125 -8.710938 11.566406 -8.578125 C 11.429688 -8.441406 11.320312 -8.269531 11.230469 -8.0625 C 11.136719 -7.835938 11.089844 -7.609375 11.089844 -7.390625 L 11.089844 -16.253906 L 26.089844 -16.253906 L 26.089844 -7.765625 C 26.089844 -5.386719 25.5 -3.199219 24.320312 -1.199219 C 23.164062 0.757812 21.605469 2.316406 19.648438 3.472656 C 17.648438 4.652344 15.460938 5.242188 13.082031 5.242188 L 11.390625 5.242188 C 9.011719 5.242188 6.824219 4.652344 4.824219 3.472656 C 2.867188 2.316406 1.308594 0.757812 0.152344 -1.199219 C -1.027344 -3.199219 -1.617188 -5.386719 -1.617188 -7.765625 L -1.617188 -25.179688 C -1.617188 -27.554688 -1.027344 -29.746094 0.152344 -31.742188 C 1.308594 -33.703125 2.867188 -35.257812 4.824219 -36.417969 C 6.824219 -37.597656 9.011719 -38.1875 11.390625 -38.1875 Z M 11.390625 -29.300781 C 10.628906 -29.300781 9.945312 -29.125 9.339844 -28.765625 C 8.695312 -28.386719 8.183594 -27.871094 7.800781 -27.226562 C 7.445312 -26.621094 7.265625 -25.9375 7.265625 -25.179688 L 7.265625 -7.765625 C 7.265625 -7.003906 7.445312 -6.324219 7.800781 -5.71875 C 8.183594 -5.070312 8.695312 -4.558594 9.339844 -4.179688 C 9.945312 -3.820312 10.628906 -3.640625 11.390625 -3.640625 L 13.082031 -3.640625 C 13.84375 -3.640625 14.527344 -3.820312 15.132812 -4.179688 C 15.777344 -4.558594 16.289062 -5.070312 16.671875 -5.71875 C 17.027344 -6.324219 17.207031 -7.003906 17.207031 -7.765625 L 17.207031 -11.8125 L 21.648438 -11.8125 L 21.648438 -7.371094 L 15.53125 -7.371094 L 15.53125 -11.8125 L 19.972656 -11.8125 L 19.972656 -7.390625 C 19.972656 -6.414062 19.789062 -5.488281 19.417969 -4.609375 C 19.054688 -3.75 18.53125 -2.980469 17.847656 -2.292969 C 17.164062 -1.609375 16.390625 -1.085938 15.53125 -0.726562 C 14.65625 -0.355469 13.730469 -0.171875 12.753906 -0.171875 L 11.71875 -0.171875 C 10.734375 -0.171875 9.804688 -0.351562 8.929688 -0.71875 C 8.035156 -1.089844 7.246094 -1.628906 6.554688 -2.339844 C 5.890625 -3.027344 5.382812 -3.796875 5.03125 -4.652344 C 4.675781 -5.515625 4.5 -6.429688 4.5 -7.390625 L 4.5 -25.554688 C 4.5 -26.515625 4.675781 -27.425781 5.03125 -28.292969 C 5.382812 -29.148438 5.890625 -29.917969 6.554688 -30.601562 C 7.246094 -31.3125 8.035156 -31.855469 8.929688 -32.226562 C 9.804688 -32.589844 10.734375 -32.773438 11.71875 -32.773438 L 12.753906 -32.773438 C 13.730469 -32.773438 14.65625 -32.589844 15.53125 -32.21875 C 16.390625 -31.855469 17.164062 -31.332031 17.847656 -30.648438 C 18.53125 -29.964844 19.054688 -29.195312 19.417969 -28.335938 C 19.789062 -27.457031 19.972656 -26.53125 19.972656 -25.554688 L 19.972656 -21.132812 L 15.53125 -21.132812 L 15.53125 -25.574219 L 21.648438 -25.574219 L 21.648438 -21.132812 L 17.207031 -21.132812 L 17.207031 -25.179688 C 17.207031 -25.9375 17.027344 -26.621094 16.671875 -27.226562 C 16.289062 -27.871094 15.777344 -28.386719 15.132812 -28.765625 C 14.527344 -29.125 13.84375 -29.300781 13.082031 -29.300781 Z M 11.390625 -29.300781 "/></g></g><g style="fill:#31081f;fill-opacity:1;"><g transform="translate(441.208811, 45.294995)"><path style="stroke:none" d="M 9.695312 -28.773438 L 10.683594 -28.773438 C 12.871094 -28.773438 14.886719 -28.230469 16.726562 -27.148438 C 18.53125 -26.082031 19.964844 -24.648438 21.027344 -22.84375 C 22.113281 -21.003906 22.65625 -18.972656 22.65625 -16.753906 L 22.65625 4.441406 L 12.796875 4.441406 L 10.714844 1.578125 L 14.308594 -1.035156 L 14.308594 3.40625 L 13.976562 3.40625 L 13.976562 -1.035156 L 17.507812 1.664062 C 16.566406 2.894531 15.191406 3.828125 13.390625 4.46875 C 11.9375 4.984375 10.378906 5.242188 8.707031 5.242188 C 6.785156 5.242188 4.976562 4.882812 3.277344 4.160156 C 1.332031 3.332031 -0.238281 2.042969 -1.433594 0.289062 C -2.65625 -1.5 -3.265625 -3.652344 -3.265625 -6.164062 L -3.265625 -6.730469 C -3.265625 -9.214844 -2.445312 -11.335938 -0.804688 -13.097656 C 0.40625 -14.398438 1.878906 -15.484375 3.613281 -16.351562 C 5.082031 -17.085938 6.578125 -17.691406 8.109375 -18.167969 C 9.425781 -18.582031 10.566406 -18.933594 11.523438 -19.21875 L 12.800781 -14.964844 L 8.359375 -14.964844 L 8.359375 -17.082031 C 8.359375 -16.8125 8.417969 -16.539062 8.53125 -16.269531 C 8.632812 -16.027344 8.765625 -15.824219 8.929688 -15.660156 C 9.09375 -15.496094 9.296875 -15.363281 9.542969 -15.261719 C 9.808594 -15.144531 10.082031 -15.089844 10.355469 -15.089844 L 10.023438 -15.089844 C 10.261719 -15.089844 10.496094 -15.136719 10.738281 -15.234375 C 10.96875 -15.332031 11.167969 -15.457031 11.328125 -15.609375 C 11.492188 -15.773438 11.632812 -15.976562 11.738281 -16.222656 C 11.863281 -16.507812 11.925781 -16.792969 11.925781 -17.082031 L 11.925781 -10.710938 L -2.324219 -10.710938 L -2.324219 -16.753906 C -2.324219 -18.941406 -1.78125 -20.957031 -0.699219 -22.796875 C 0.363281 -24.597656 1.800781 -26.035156 3.613281 -27.113281 C 5.472656 -28.21875 7.5 -28.773438 9.695312 -28.773438 Z M 9.695312 -19.890625 C 9.128906 -19.890625 8.613281 -19.753906 8.152344 -19.476562 C 7.644531 -19.175781 7.246094 -18.78125 6.957031 -18.289062 C 6.691406 -17.839844 6.558594 -17.328125 6.558594 -16.753906 L 6.558594 -15.152344 L 2.117188 -15.152344 L 2.117188 -19.597656 L 7.484375 -19.597656 L 7.484375 -15.152344 L 3.042969 -15.152344 L 3.042969 -17.082031 C 3.042969 -18.035156 3.226562 -18.9375 3.601562 -19.789062 C 3.960938 -20.609375 4.476562 -21.34375 5.144531 -21.992188 C 5.808594 -22.632812 6.554688 -23.125 7.382812 -23.460938 C 8.21875 -23.800781 9.097656 -23.972656 10.023438 -23.972656 L 10.355469 -23.972656 C 11.285156 -23.972656 12.171875 -23.792969 13.015625 -23.4375 C 13.828125 -23.089844 14.5625 -22.59375 15.210938 -21.941406 C 15.863281 -21.292969 16.359375 -20.558594 16.707031 -19.742188 C 17.066406 -18.902344 17.242188 -18.015625 17.242188 -17.082031 L 17.242188 -11.660156 L 14.078125 -10.710938 C 13.152344 -10.433594 12.050781 -10.09375 10.765625 -9.691406 C 9.6875 -9.355469 8.628906 -8.925781 7.585938 -8.40625 C 6.808594 -8.015625 6.179688 -7.5625 5.699219 -7.042969 C 5.667969 -7.011719 5.652344 -6.992188 5.644531 -6.976562 C 5.628906 -6.925781 5.617188 -6.84375 5.617188 -6.730469 L 5.617188 -6.164062 C 5.617188 -5.480469 5.714844 -4.996094 5.90625 -4.714844 C 6.121094 -4.398438 6.402344 -4.164062 6.75 -4.019531 C 7.339844 -3.765625 7.992188 -3.640625 8.707031 -3.640625 C 9.359375 -3.640625 9.929688 -3.730469 10.421875 -3.902344 C 10.589844 -3.964844 10.707031 -4.015625 10.769531 -4.054688 C 10.671875 -3.992188 10.5625 -3.882812 10.449219 -3.734375 L 11.78125 -5.476562 L 16.570312 -5.476562 L 18.652344 -2.613281 L 15.058594 0 L 15.058594 -4.441406 L 18.214844 -4.441406 L 18.214844 0 L 13.769531 0 L 13.769531 -16.753906 C 13.769531 -17.359375 13.640625 -17.886719 13.375 -18.335938 C 13.089844 -18.820312 12.703125 -19.207031 12.21875 -19.492188 C 11.769531 -19.757812 11.257812 -19.890625 10.683594 -19.890625 Z M 8.359375 -6.449219 L 8.359375 -10.542969 L 12.800781 -10.542969 L 14.429688 -6.410156 C 13.234375 -5.9375 12.085938 -5.554688 10.980469 -5.261719 C 10.679688 -5.179688 10.480469 -5.101562 10.390625 -5.027344 C 10.703125 -5.289062 10.921875 -5.589844 11.039062 -5.925781 C 11.0625 -5.992188 11.078125 -6.042969 11.085938 -6.082031 C 11.082031 -6.050781 11.078125 -6 11.078125 -5.929688 L 11.078125 -5.460938 C 11.078125 -5.867188 10.976562 -6.277344 10.777344 -6.695312 C 10.488281 -7.300781 10.058594 -7.777344 9.488281 -8.125 C 9.1875 -8.308594 8.917969 -8.417969 8.679688 -8.460938 C 8.75 -8.449219 8.882812 -8.441406 9.082031 -8.441406 L 10.355469 -8.441406 C 10.097656 -8.441406 9.84375 -8.390625 9.589844 -8.285156 C 9.351562 -8.1875 9.148438 -8.058594 8.984375 -7.898438 C 8.789062 -7.710938 8.636719 -7.480469 8.523438 -7.210938 C 8.414062 -6.953125 8.359375 -6.699219 8.359375 -6.449219 Z M 17.242188 -6.449219 C 17.242188 -5.507812 17.066406 -4.617188 16.714844 -3.777344 C 16.359375 -2.925781 15.839844 -2.171875 15.160156 -1.515625 C 14.507812 -0.882812 13.777344 -0.402344 12.964844 -0.0664062 C 12.140625 0.273438 11.269531 0.441406 10.355469 0.441406 L 9.082031 0.441406 C 7.34375 0.441406 5.9375 0.117188 4.867188 -0.535156 C 3.9375 -1.101562 3.234375 -1.875 2.765625 -2.859375 C 2.382812 -3.652344 2.195312 -4.519531 2.195312 -5.460938 L 2.195312 -5.929688 C 2.195312 -7.023438 2.355469 -8.023438 2.679688 -8.921875 C 3.097656 -10.089844 3.761719 -11.058594 4.667969 -11.820312 C 5.769531 -12.75 7.113281 -13.425781 8.691406 -13.847656 C 9.46875 -14.054688 10.296875 -14.328125 11.171875 -14.675781 L 17.242188 -17.066406 Z M 17.242188 -6.449219 "/></g></g><g style="fill:#31081f;fill-opacity:1;"><g transform="translate(460.738384, 45.294995)"><path style="stroke:none" d="M -1.617188 -37.386719 L 12.679688 -37.386719 L 12.679688 4.441406 L -1.617188 4.441406 Z M -1.617188 -37.386719 "/></g></g><g style="fill:#31081f;fill-opacity:1;"><g transform="translate(470.761912, 45.294995)"><path style="stroke:none" d="M 9.929688 -28.773438 L 11.953125 -28.773438 C 14.15625 -28.773438 16.183594 -28.214844 18.035156 -27.101562 C 19.808594 -26.03125 21.230469 -24.609375 22.300781 -22.835938 C 23.414062 -20.984375 23.972656 -18.957031 23.972656 -16.753906 L 23.972656 -10.710938 L 9.628906 -10.710938 L 9.628906 -17.082031 C 9.628906 -16.8125 9.6875 -16.539062 9.800781 -16.269531 C 9.902344 -16.027344 10.039062 -15.824219 10.203125 -15.660156 C 10.363281 -15.496094 10.570312 -15.363281 10.8125 -15.261719 C 11.082031 -15.144531 11.351562 -15.089844 11.625 -15.089844 L 10.257812 -15.089844 C 10.511719 -15.089844 10.765625 -15.144531 11.023438 -15.25 C 11.292969 -15.363281 11.523438 -15.519531 11.710938 -15.710938 C 11.871094 -15.878906 12 -16.078125 12.097656 -16.320312 C 12.203125 -16.574219 12.253906 -16.828125 12.253906 -17.082031 L 12.253906 -6.449219 C 12.253906 -6.679688 12.203125 -6.917969 12.105469 -7.164062 C 11.996094 -7.429688 11.847656 -7.65625 11.660156 -7.847656 C 11.46875 -8.035156 11.242188 -8.183594 10.976562 -8.292969 C 10.730469 -8.394531 10.492188 -8.441406 10.257812 -8.441406 L 11.625 -8.441406 C 11.371094 -8.441406 11.113281 -8.390625 10.859375 -8.285156 C 10.621094 -8.1875 10.417969 -8.058594 10.253906 -7.898438 C 10.058594 -7.710938 9.90625 -7.480469 9.792969 -7.210938 C 9.683594 -6.953125 9.628906 -6.699219 9.628906 -6.449219 L 9.628906 -12.820312 L 23.972656 -12.820312 L 23.972656 -6.777344 C 23.972656 -4.582031 23.421875 -2.554688 22.3125 -0.695312 C 21.234375 1.117188 19.796875 2.554688 17.996094 3.617188 C 16.15625 4.699219 14.140625 5.242188 11.953125 5.242188 L 9.929688 5.242188 C 7.75 5.242188 5.738281 4.703125 3.886719 3.628906 C 2.046875 2.558594 0.59375 1.105469 -0.476562 -0.734375 C -1.550781 -2.585938 -2.089844 -4.597656 -2.089844 -6.777344 L -2.089844 -16.753906 C -2.089844 -18.941406 -1.546875 -20.957031 -0.460938 -22.796875 C 0.597656 -24.597656 2.035156 -26.035156 3.847656 -27.113281 C 5.707031 -28.21875 7.734375 -28.773438 9.929688 -28.773438 Z M 9.929688 -19.890625 C 9.363281 -19.890625 8.851562 -19.753906 8.386719 -19.476562 C 7.878906 -19.175781 7.480469 -18.78125 7.191406 -18.289062 C 6.925781 -17.839844 6.796875 -17.328125 6.796875 -16.753906 L 6.796875 -6.777344 C 6.796875 -6.195312 6.933594 -5.667969 7.207031 -5.195312 C 7.484375 -4.714844 7.867188 -4.332031 8.351562 -4.050781 C 8.820312 -3.777344 9.347656 -3.640625 9.929688 -3.640625 L 11.953125 -3.640625 C 12.527344 -3.640625 13.039062 -3.773438 13.488281 -4.039062 C 13.980469 -4.328125 14.375 -4.726562 14.675781 -5.234375 C 14.953125 -5.695312 15.089844 -6.210938 15.089844 -6.777344 L 15.089844 -8.378906 L 19.53125 -8.378906 L 19.53125 -3.933594 L 14.070312 -3.933594 L 14.070312 -8.378906 L 18.515625 -8.378906 L 18.515625 -6.449219 C 18.515625 -5.507812 18.339844 -4.617188 17.988281 -3.777344 C 17.628906 -2.925781 17.113281 -2.171875 16.429688 -1.515625 C 15.78125 -0.882812 15.046875 -0.402344 14.238281 -0.0664062 C 13.410156 0.273438 12.539062 0.441406 11.625 0.441406 L 10.257812 0.441406 C 9.335938 0.441406 8.464844 0.273438 7.636719 -0.0585938 C 6.789062 -0.402344 6.039062 -0.90625 5.378906 -1.566406 C 4.71875 -2.226562 4.214844 -2.980469 3.871094 -3.824219 C 3.539062 -4.652344 3.371094 -5.523438 3.371094 -6.449219 L 3.371094 -17.082031 C 3.371094 -18 3.539062 -18.867188 3.878906 -19.695312 C 4.214844 -20.507812 4.695312 -21.238281 5.328125 -21.890625 C 5.984375 -22.570312 6.738281 -23.089844 7.589844 -23.445312 C 8.429688 -23.796875 9.320312 -23.972656 10.257812 -23.972656 L 11.625 -23.972656 C 12.558594 -23.972656 13.441406 -23.792969 14.285156 -23.4375 C 15.101562 -23.089844 15.832031 -22.59375 16.484375 -21.941406 C 17.132812 -21.292969 17.632812 -20.558594 17.976562 -19.742188 C 18.335938 -18.902344 18.515625 -18.015625 18.515625 -17.082031 L 18.515625 -15.152344 L 14.070312 -15.152344 L 14.070312 -19.597656 L 19.53125 -19.597656 L 19.53125 -15.152344 L 15.089844 -15.152344 L 15.089844 -16.753906 C 15.089844 -17.3125 14.957031 -17.808594 14.691406 -18.25 C 14.378906 -18.765625 13.964844 -19.179688 13.449219 -19.492188 C 13.007812 -19.757812 12.511719 -19.890625 11.953125 -19.890625 Z M 9.929688 -19.890625 "/></g></g><g style="fill:#31081f;fill-opacity:1;"><g transform="translate(490.667972, 45.294995)"><path style="stroke:none" d="M 9.019531 -8.140625 L 9.019531 -27.972656 L 23.3125 -27.972656 L 23.3125 4.441406 L 9.769531 4.441406 L 9.769531 -1.035156 L 14.214844 -1.035156 L 14.214844 3.40625 L 13.789062 3.40625 L 13.789062 -1.035156 L 17.316406 1.664062 C 16.382812 2.886719 15.023438 3.820312 13.25 4.460938 C 11.804688 4.980469 10.464844 5.242188 9.222656 5.242188 L 8.753906 5.242188 C 7.199219 5.242188 5.757812 4.964844 4.433594 4.40625 C 3.054688 3.824219 1.851562 2.964844 0.820312 1.824219 C -1.117188 -0.324219 -2.089844 -3.066406 -2.089844 -6.402344 L -2.089844 -27.972656 L 12.207031 -27.972656 L 12.207031 -8.28125 C 12.207031 -7.765625 12.230469 -7.246094 12.28125 -6.726562 C 12.253906 -7.003906 12.125 -7.277344 11.890625 -7.550781 C 11.546875 -7.953125 11.148438 -8.230469 10.699219 -8.378906 C 10.601562 -8.410156 10.519531 -8.433594 10.445312 -8.441406 L 10.433594 -8.445312 C 10.449219 -8.441406 10.46875 -8.441406 10.496094 -8.441406 L 10.503906 -8.441406 C 10.484375 -8.441406 10.460938 -8.4375 10.429688 -8.433594 C 10.316406 -8.410156 10.195312 -8.371094 10.066406 -8.3125 C 9.667969 -8.136719 9.34375 -7.863281 9.09375 -7.496094 C 9.03125 -7.398438 8.980469 -7.308594 8.949219 -7.226562 C 8.941406 -7.214844 8.9375 -7.203125 8.9375 -7.199219 C 8.941406 -7.210938 8.945312 -7.226562 8.949219 -7.246094 C 8.996094 -7.457031 9.019531 -7.753906 9.019531 -8.140625 Z M 17.902344 -8.140625 C 17.902344 -5.824219 17.421875 -3.953125 16.460938 -2.527344 C 15.757812 -1.484375 14.824219 -0.707031 13.664062 -0.191406 C 12.710938 0.230469 11.65625 0.441406 10.496094 0.441406 C 8.191406 0.441406 6.410156 -0.296875 5.144531 -1.769531 C 4.160156 -2.921875 3.589844 -4.292969 3.4375 -5.886719 C 3.363281 -6.683594 3.324219 -7.484375 3.324219 -8.28125 L 3.324219 -23.53125 L 7.765625 -23.53125 L 7.765625 -19.089844 L 2.351562 -19.089844 L 2.351562 -23.53125 L 6.796875 -23.53125 L 6.796875 -6.402344 C 6.796875 -5.34375 7 -4.585938 7.414062 -4.132812 C 7.5625 -3.96875 7.71875 -3.851562 7.882812 -3.78125 C 8.105469 -3.6875 8.394531 -3.640625 8.753906 -3.640625 L 9.222656 -3.640625 C 9.429688 -3.640625 9.765625 -3.726562 10.234375 -3.894531 C 10.398438 -3.953125 10.507812 -4.003906 10.566406 -4.039062 C 10.472656 -3.980469 10.371094 -3.878906 10.261719 -3.734375 L 11.59375 -5.476562 L 18.65625 -5.476562 L 18.65625 0 L 14.214844 0 L 14.214844 -4.441406 L 18.871094 -4.441406 L 18.871094 0 L 14.429688 0 L 14.429688 -23.53125 L 18.871094 -23.53125 L 18.871094 -19.089844 L 13.460938 -19.089844 L 13.460938 -23.53125 L 17.902344 -23.53125 Z M 17.902344 -8.140625 "/></g></g><g style="fill:#31081f;fill-opacity:1;"><g transform="translate(511.562256, 45.294995)"><path style="stroke:none" d="M -1.617188 -37.386719 L 12.679688 -37.386719 L 12.679688 4.441406 L -1.617188 4.441406 Z M -1.617188 -37.386719 "/></g></g><g style="fill:#31081f;fill-opacity:1;"><g transform="translate(522.056432, 45.294995)"><path style="stroke:none" d="M 9.695312 -28.773438 L 10.683594 -28.773438 C 12.871094 -28.773438 14.886719 -28.230469 16.726562 -27.148438 C 18.53125 -26.082031 19.964844 -24.648438 21.027344 -22.84375 C 22.113281 -21.003906 22.65625 -18.972656 22.65625 -16.753906 L 22.65625 4.441406 L 12.796875 4.441406 L 10.714844 1.578125 L 14.308594 -1.035156 L 14.308594 3.40625 L 13.976562 3.40625 L 13.976562 -1.035156 L 17.507812 1.664062 C 16.566406 2.894531 15.191406 3.828125 13.390625 4.46875 C 11.9375 4.984375 10.378906 5.242188 8.707031 5.242188 C 6.785156 5.242188 4.976562 4.882812 3.277344 4.160156 C 1.332031 3.332031 -0.238281 2.042969 -1.433594 0.289062 C -2.65625 -1.5 -3.265625 -3.652344 -3.265625 -6.164062 L -3.265625 -6.730469 C -3.265625 -9.214844 -2.445312 -11.335938 -0.804688 -13.097656 C 0.40625 -14.398438 1.878906 -15.484375 3.613281 -16.351562 C 5.082031 -17.085938 6.578125 -17.691406 8.109375 -18.167969 C 9.425781 -18.582031 10.566406 -18.933594 11.523438 -19.21875 L 12.800781 -14.964844 L 8.359375 -14.964844 L 8.359375 -17.082031 C 8.359375 -16.8125 8.417969 -16.539062 8.53125 -16.269531 C 8.632812 -16.027344 8.765625 -15.824219 8.929688 -15.660156 C 9.09375 -15.496094 9.296875 -15.363281 9.542969 -15.261719 C 9.808594 -15.144531 10.082031 -15.089844 10.355469 -15.089844 L 10.023438 -15.089844 C 10.261719 -15.089844 10.496094 -15.136719 10.738281 -15.234375 C 10.96875 -15.332031 11.167969 -15.457031 11.328125 -15.609375 C 11.492188 -15.773438 11.632812 -15.976562 11.738281 -16.222656 C 11.863281 -16.507812 11.925781 -16.792969 11.925781 -17.082031 L 11.925781 -10.710938 L -2.324219 -10.710938 L -2.324219 -16.753906 C -2.324219 -18.941406 -1.78125 -20.957031 -0.699219 -22.796875 C 0.363281 -24.597656 1.800781 -26.035156 3.613281 -27.113281 C 5.472656 -28.21875 7.5 -28.773438 9.695312 -28.773438 Z M 9.695312 -19.890625 C 9.128906 -19.890625 8.613281 -19.753906 8.152344 -19.476562 C 7.644531 -19.175781 7.246094 -18.78125 6.957031 -18.289062 C 6.691406 -17.839844 6.558594 -17.328125 6.558594 -16.753906 L 6.558594 -15.152344 L 2.117188 -15.152344 L 2.117188 -19.597656 L 7.484375 -19.597656 L 7.484375 -15.152344 L 3.042969 -15.152344 L 3.042969 -17.082031 C 3.042969 -18.035156 3.226562 -18.9375 3.601562 -19.789062 C 3.960938 -20.609375 4.476562 -21.34375 5.144531 -21.992188 C 5.808594 -22.632812 6.554688 -23.125 7.382812 -23.460938 C 8.21875 -23.800781 9.097656 -23.972656 10.023438 -23.972656 L 10.355469 -23.972656 C 11.285156 -23.972656 12.171875 -23.792969 13.015625 -23.4375 C 13.828125 -23.089844 14.5625 -22.59375 15.210938 -21.941406 C 15.863281 -21.292969 16.359375 -20.558594 16.707031 -19.742188 C 17.066406 -18.902344 17.242188 -18.015625 17.242188 -17.082031 L 17.242188 -11.660156 L 14.078125 -10.710938 C 13.152344 -10.433594 12.050781 -10.09375 10.765625 -9.691406 C 9.6875 -9.355469 8.628906 -8.925781 7.585938 -8.40625 C 6.808594 -8.015625 6.179688 -7.5625 5.699219 -7.042969 C 5.667969 -7.011719 5.652344 -6.992188 5.644531 -6.976562 C 5.628906 -6.925781 5.617188 -6.84375 5.617188 -6.730469 L 5.617188 -6.164062 C 5.617188 -5.480469 5.714844 -4.996094 5.90625 -4.714844 C 6.121094 -4.398438 6.402344 -4.164062 6.75 -4.019531 C 7.339844 -3.765625 7.992188 -3.640625 8.707031 -3.640625 C 9.359375 -3.640625 9.929688 -3.730469 10.421875 -3.902344 C 10.589844 -3.964844 10.707031 -4.015625 10.769531 -4.054688 C 10.671875 -3.992188 10.5625 -3.882812 10.449219 -3.734375 L 11.78125 -5.476562 L 16.570312 -5.476562 L 18.652344 -2.613281 L 15.058594 0 L 15.058594 -4.441406 L 18.214844 -4.441406 L 18.214844 0 L 13.769531 0 L 13.769531 -16.753906 C 13.769531 -17.359375 13.640625 -17.886719 13.375 -18.335938 C 13.089844 -18.820312 12.703125 -19.207031 12.21875 -19.492188 C 11.769531 -19.757812 11.257812 -19.890625 10.683594 -19.890625 Z M 8.359375 -6.449219 L 8.359375 -10.542969 L 12.800781 -10.542969 L 14.429688 -6.410156 C 13.234375 -5.9375 12.085938 -5.554688 10.980469 -5.261719 C 10.679688 -5.179688 10.480469 -5.101562 10.390625 -5.027344 C 10.703125 -5.289062 10.921875 -5.589844 11.039062 -5.925781 C 11.0625 -5.992188 11.078125 -6.042969 11.085938 -6.082031 C 11.082031 -6.050781 11.078125 -6 11.078125 -5.929688 L 11.078125 -5.460938 C 11.078125 -5.867188 10.976562 -6.277344 10.777344 -6.695312 C 10.488281 -7.300781 10.058594 -7.777344 9.488281 -8.125 C 9.1875 -8.308594 8.917969 -8.417969 8.679688 -8.460938 C 8.75 -8.449219 8.882812 -8.441406 9.082031 -8.441406 L 10.355469 -8.441406 C 10.097656 -8.441406 9.84375 -8.390625 9.589844 -8.285156 C 9.351562 -8.1875 9.148438 -8.058594 8.984375 -7.898438 C 8.789062 -7.710938 8.636719 -7.480469 8.523438 -7.210938 C 8.414062 -6.953125 8.359375 -6.699219 8.359375 -6.449219 Z M 17.242188 -6.449219 C 17.242188 -5.507812 17.066406 -4.617188 16.714844 -3.777344 C 16.359375 -2.925781 15.839844 -2.171875 15.160156 -1.515625 C 14.507812 -0.882812 13.777344 -0.402344 12.964844 -0.0664062 C 12.140625 0.273438 11.269531 0.441406 10.355469 0.441406 L 9.082031 0.441406 C 7.34375 0.441406 5.9375 0.117188 4.867188 -0.535156 C 3.9375 -1.101562 3.234375 -1.875 2.765625 -2.859375 C 2.382812 -3.652344 2.195312 -4.519531 2.195312 -5.460938 L 2.195312 -5.929688 C 2.195312 -7.023438 2.355469 -8.023438 2.679688 -8.921875 C 3.097656 -10.089844 3.761719 -11.058594 4.667969 -11.820312 C 5.769531 -12.75 7.113281 -13.425781 8.691406 -13.847656 C 9.46875 -14.054688 10.296875 -14.328125 11.171875 -14.675781 L 17.242188 -17.066406 Z M 17.242188 -6.449219 "/></g></g><g style="fill:#31081f;fill-opacity:1;"><g transform="translate(541.585974, 45.294995)"><path style="stroke:none" d="M 7.984375 -5.789062 L 7.984375 -12.820312 L 22.324219 -12.820312 L 22.324219 -6.117188 C 22.324219 -4.046875 21.804688 -2.132812 20.757812 -0.382812 C 19.75 1.300781 18.417969 2.648438 16.75 3.65625 C 15.007812 4.714844 13.078125 5.242188 10.964844 5.242188 L 9.269531 5.242188 C 7.199219 5.242188 5.289062 4.71875 3.535156 3.671875 C 1.84375 2.664062 0.492188 1.3125 -0.519531 -0.382812 C -1.566406 -2.132812 -2.089844 -4.046875 -2.089844 -6.117188 L -2.089844 -35.550781 L 12.207031 -35.550781 L 12.207031 -23.53125 L 7.765625 -23.53125 L 7.765625 -27.972656 L 17.382812 -27.972656 L 17.382812 -14.476562 L 7.765625 -14.476562 L 7.765625 -18.917969 L 12.207031 -18.917969 L 12.207031 -5.789062 C 12.207031 -6.140625 12.132812 -6.492188 11.988281 -6.835938 C 11.839844 -7.183594 11.636719 -7.480469 11.378906 -7.726562 C 11.144531 -7.953125 10.867188 -8.128906 10.550781 -8.253906 C 10.238281 -8.378906 9.921875 -8.441406 9.601562 -8.441406 L 10.636719 -8.441406 C 10.28125 -8.441406 9.933594 -8.371094 9.597656 -8.230469 C 9.292969 -8.105469 9.03125 -7.9375 8.8125 -7.726562 C 8.554688 -7.480469 8.351562 -7.183594 8.203125 -6.835938 C 8.054688 -6.492188 7.984375 -6.140625 7.984375 -5.789062 Z M 16.867188 -5.789062 C 16.867188 -4.933594 16.703125 -4.121094 16.375 -3.355469 C 16.046875 -2.582031 15.574219 -1.902344 14.953125 -1.308594 C 14.375 -0.753906 13.722656 -0.324219 13.003906 -0.0273438 C 12.25 0.285156 11.460938 0.441406 10.636719 0.441406 L 9.601562 0.441406 C 8.78125 0.441406 7.996094 0.292969 7.25 -0.00390625 C 6.503906 -0.304688 5.832031 -0.738281 5.234375 -1.308594 C 4.617188 -1.902344 4.140625 -2.582031 3.8125 -3.355469 C 3.488281 -4.121094 3.324219 -4.933594 3.324219 -5.789062 L 3.324219 -23.359375 L 12.941406 -23.359375 L 12.941406 -18.917969 L 8.5 -18.917969 L 8.5 -23.53125 L 12.941406 -23.53125 L 12.941406 -19.089844 L 3.324219 -19.089844 L 3.324219 -31.109375 L 7.765625 -31.109375 L 7.765625 -26.667969 L 2.351562 -26.667969 L 2.351562 -31.109375 L 6.796875 -31.109375 L 6.796875 -6.117188 C 6.796875 -5.679688 6.898438 -5.285156 7.109375 -4.9375 C 7.351562 -4.527344 7.679688 -4.199219 8.089844 -3.957031 C 8.4375 -3.746094 8.832031 -3.640625 9.269531 -3.640625 L 10.964844 -3.640625 C 11.425781 -3.640625 11.816406 -3.742188 12.144531 -3.941406 C 12.550781 -4.1875 12.878906 -4.519531 13.128906 -4.9375 C 13.335938 -5.285156 13.441406 -5.679688 13.441406 -6.117188 L 13.441406 -8.378906 L 17.882812 -8.378906 L 17.882812 -3.933594 L 12.425781 -3.933594 L 12.425781 -8.378906 L 16.867188 -8.378906 Z M 16.867188 -5.789062 "/></g></g><g style="fill:#31081f;fill-opacity:1;"><g transform="translate(559.374349, 45.294995)"><path style="stroke:none" d="M 9.882812 -28.773438 L 11.953125 -28.773438 C 14.140625 -28.773438 16.15625 -28.230469 17.996094 -27.148438 C 19.789062 -26.09375 21.222656 -24.671875 22.300781 -22.882812 C 23.414062 -21.03125 23.972656 -18.988281 23.972656 -16.753906 L 23.972656 -6.777344 C 23.972656 -4.582031 23.421875 -2.554688 22.3125 -0.695312 C 21.234375 1.117188 19.796875 2.554688 17.996094 3.617188 C 16.15625 4.699219 14.140625 5.242188 11.953125 5.242188 L 9.882812 5.242188 C 7.695312 5.242188 5.679688 4.699219 3.839844 3.617188 C 2.027344 2.546875 0.589844 1.097656 -0.476562 -0.734375 C -1.550781 -2.585938 -2.089844 -4.597656 -2.089844 -6.777344 L -2.089844 -16.753906 C -2.089844 -18.972656 -1.546875 -21.003906 -0.460938 -22.84375 C 0.601562 -24.648438 2.035156 -26.082031 3.839844 -27.148438 C 5.679688 -28.230469 7.695312 -28.773438 9.882812 -28.773438 Z M 9.882812 -19.890625 C 9.308594 -19.890625 8.796875 -19.757812 8.347656 -19.492188 C 7.863281 -19.207031 7.476562 -18.820312 7.191406 -18.335938 C 6.925781 -17.886719 6.796875 -17.359375 6.796875 -16.753906 L 6.796875 -6.777344 C 6.796875 -6.195312 6.933594 -5.667969 7.207031 -5.195312 C 7.492188 -4.707031 7.871094 -4.320312 8.347656 -4.039062 C 8.796875 -3.773438 9.308594 -3.640625 9.882812 -3.640625 L 11.953125 -3.640625 C 12.527344 -3.640625 13.039062 -3.773438 13.488281 -4.039062 C 13.980469 -4.328125 14.375 -4.726562 14.675781 -5.234375 C 14.953125 -5.695312 15.089844 -6.210938 15.089844 -6.777344 L 15.089844 -16.753906 C 15.089844 -17.34375 14.957031 -17.855469 14.691406 -18.296875 C 14.386719 -18.800781 13.988281 -19.199219 13.488281 -19.492188 C 13.039062 -19.757812 12.527344 -19.890625 11.953125 -19.890625 Z M 9.628906 -6.449219 L 9.628906 -17.082031 C 9.628906 -16.832031 9.683594 -16.578125 9.792969 -16.320312 C 9.90625 -16.050781 10.058594 -15.820312 10.253906 -15.632812 C 10.417969 -15.472656 10.621094 -15.34375 10.859375 -15.246094 C 11.113281 -15.140625 11.371094 -15.089844 11.625 -15.089844 L 10.257812 -15.089844 C 10.492188 -15.089844 10.730469 -15.140625 10.976562 -15.238281 C 11.242188 -15.347656 11.46875 -15.496094 11.660156 -15.683594 C 11.847656 -15.875 11.996094 -16.101562 12.105469 -16.367188 C 12.203125 -16.613281 12.253906 -16.851562 12.253906 -17.082031 L 12.253906 -6.449219 C 12.253906 -6.679688 12.203125 -6.917969 12.105469 -7.164062 C 11.996094 -7.429688 11.847656 -7.65625 11.660156 -7.847656 C 11.46875 -8.035156 11.242188 -8.183594 10.976562 -8.292969 C 10.730469 -8.394531 10.492188 -8.441406 10.257812 -8.441406 L 11.625 -8.441406 C 11.371094 -8.441406 11.113281 -8.390625 10.859375 -8.285156 C 10.621094 -8.1875 10.417969 -8.058594 10.253906 -7.898438 C 10.058594 -7.710938 9.90625 -7.480469 9.792969 -7.210938 C 9.683594 -6.953125 9.628906 -6.699219 9.628906 -6.449219 Z M 18.515625 -6.449219 C 18.515625 -5.507812 18.339844 -4.617188 17.988281 -3.777344 C 17.628906 -2.925781 17.113281 -2.171875 16.429688 -1.515625 C 15.78125 -0.882812 15.046875 -0.402344 14.238281 -0.0664062 C 13.410156 0.273438 12.539062 0.441406 11.625 0.441406 L 10.257812 0.441406 C 9.335938 0.441406 8.464844 0.273438 7.636719 -0.0585938 C 6.789062 -0.402344 6.039062 -0.90625 5.378906 -1.566406 C 4.71875 -2.226562 4.214844 -2.980469 3.871094 -3.824219 C 3.539062 -4.652344 3.371094 -5.523438 3.371094 -6.449219 L 3.371094 -17.082031 C 3.371094 -18.007812 3.539062 -18.878906 3.871094 -19.707031 C 4.214844 -20.550781 4.71875 -21.304688 5.378906 -21.964844 C 6.039062 -22.625 6.789062 -23.128906 7.636719 -23.472656 C 8.464844 -23.804688 9.335938 -23.972656 10.257812 -23.972656 L 11.625 -23.972656 C 12.539062 -23.972656 13.410156 -23.804688 14.238281 -23.464844 C 15.046875 -23.128906 15.78125 -22.648438 16.429688 -22.015625 C 17.113281 -21.359375 17.628906 -20.605469 17.988281 -19.753906 C 18.339844 -18.914062 18.515625 -18.023438 18.515625 -17.082031 Z M 18.515625 -6.449219 "/></g></g><g style="fill:#31081f;fill-opacity:1;"><g transform="translate(580.45686, 45.294995)"><path style="stroke:none" d="M 12.378906 -28.773438 L 12.566406 -28.773438 C 14.140625 -28.773438 15.59375 -28.492188 16.925781 -27.925781 C 18.320312 -27.335938 19.53125 -26.457031 20.558594 -25.292969 C 22.457031 -23.132812 23.410156 -20.398438 23.410156 -17.082031 L 23.410156 -10.710938 L 9.347656 -10.710938 L 9.347656 -15.152344 C 9.347656 -15.613281 9.324219 -16.109375 9.273438 -16.648438 C 9.285156 -16.53125 9.347656 -16.394531 9.460938 -16.230469 C 9.789062 -15.769531 10.199219 -15.441406 10.699219 -15.234375 C 10.941406 -15.136719 11.136719 -15.089844 11.296875 -15.089844 C 11.421875 -15.089844 11.585938 -15.132812 11.785156 -15.222656 C 12.105469 -15.367188 12.371094 -15.578125 12.574219 -15.855469 C 12.640625 -15.945312 12.691406 -16.03125 12.726562 -16.113281 C 12.734375 -16.132812 12.742188 -16.148438 12.746094 -16.160156 C 12.746094 -16.15625 12.742188 -16.148438 12.742188 -16.140625 C 12.699219 -15.96875 12.679688 -15.71875 12.679688 -15.390625 L 12.679688 4.441406 L -1.617188 4.441406 L -1.617188 -27.972656 L 11.925781 -27.972656 L 11.925781 -22.496094 L 7.484375 -22.496094 L 7.484375 -26.9375 L 7.90625 -26.9375 L 7.90625 -22.496094 L 4.476562 -25.320312 C 5.417969 -26.460938 6.710938 -27.34375 8.355469 -27.96875 C 9.773438 -28.503906 11.113281 -28.773438 12.378906 -28.773438 Z M 12.378906 -19.890625 C 12.199219 -19.890625 11.90625 -19.8125 11.503906 -19.660156 C 11.347656 -19.601562 11.234375 -19.546875 11.164062 -19.503906 C 11.210938 -19.53125 11.265625 -19.589844 11.335938 -19.671875 L 10.003906 -18.054688 L 3.042969 -18.054688 L 3.042969 -23.53125 L 7.484375 -23.53125 L 7.484375 -19.089844 L 2.824219 -19.089844 L 2.824219 -23.53125 L 7.265625 -23.53125 L 7.265625 0 L 2.824219 0 L 2.824219 -4.441406 L 8.234375 -4.441406 L 8.234375 0 L 3.792969 0 L 3.792969 -15.390625 C 3.792969 -17.746094 4.339844 -19.660156 5.429688 -21.136719 C 6.140625 -22.101562 7.042969 -22.832031 8.128906 -23.320312 C 9.09375 -23.753906 10.148438 -23.972656 11.296875 -23.972656 C 12.300781 -23.972656 13.21875 -23.800781 14.054688 -23.460938 C 15.152344 -23.015625 16.035156 -22.316406 16.707031 -21.371094 C 17.511719 -20.238281 17.980469 -18.9375 18.117188 -17.472656 C 18.195312 -16.660156 18.230469 -15.886719 18.230469 -15.152344 L 13.789062 -15.152344 L 13.789062 -19.597656 L 18.964844 -19.597656 L 18.964844 -15.152344 L 14.523438 -15.152344 L 14.523438 -17.082031 C 14.523438 -18.160156 14.3125 -18.941406 13.890625 -19.417969 C 13.757812 -19.570312 13.609375 -19.683594 13.453125 -19.75 C 13.234375 -19.84375 12.9375 -19.890625 12.566406 -19.890625 Z M 12.378906 -19.890625 "/></g></g><g style="fill:#c0884e;fill-opacity:1;"><g transform="translate(216.595441, 45.294995)"><path style="stroke:none" d="M 3.296875 -32.9375 L 12.375 -32.9375 C 13.945312 -32.9375 15.382812 -32.550781 16.6875 -31.78125 C 17.988281 -31.019531 19.019531 -29.992188 19.78125 -28.703125 C 20.550781 -27.421875 20.9375 -25.992188 20.9375 -24.421875 L 20.984375 -17.40625 C 20.984375 -15.84375 20.597656 -14.410156 19.828125 -13.109375 C 19.066406 -11.804688 18.039062 -10.769531 16.75 -10 C 15.46875 -9.226562 14.039062 -8.828125 12.46875 -8.796875 L 9.21875 -8.796875 L 9.265625 0 L 3.390625 0.046875 Z M 9.21875 -13.984375 L 12.09375 -13.984375 C 12.875 -13.984375 13.53125 -14.253906 14.0625 -14.796875 C 14.601562 -15.347656 14.875 -16 14.875 -16.75 L 14.828125 -24.984375 C 14.828125 -25.773438 14.554688 -26.4375 14.015625 -26.96875 C 13.484375 -27.5 12.828125 -27.765625 12.046875 -27.765625 L 9.171875 -27.765625 Z M 9.21875 -13.984375 "/></g></g><g style="fill:#c0884e;fill-opacity:1;"><g transform="translate(238.430928, 45.294995)"><path style="stroke:none" d="M 5.9375 -25.703125 L 5.171875 -25.703125 C 4.390625 -25.703125 3.722656 -25.972656 3.171875 -26.515625 C 2.628906 -27.066406 2.359375 -27.71875 2.359375 -28.46875 L 2.359375 -30.921875 C 2.359375 -31.703125 2.628906 -32.359375 3.171875 -32.890625 C 3.722656 -33.429688 4.390625 -33.703125 5.171875 -33.703125 L 5.9375 -33.703125 C 6.6875 -33.703125 7.332031 -33.429688 7.875 -32.890625 C 8.425781 -32.359375 8.703125 -31.703125 8.703125 -30.921875 L 8.703125 -28.46875 C 8.703125 -27.71875 8.425781 -27.066406 7.875 -26.515625 C 7.332031 -25.972656 6.6875 -25.703125 5.9375 -25.703125 Z M 2.828125 -23.53125 L 8.234375 -23.53125 L 8.234375 0 L 2.828125 0 Z M 2.828125 -23.53125 "/></g></g><g style="fill:#c0884e;fill-opacity:1;"><g transform="translate(248.689773, 45.294995)"><path style="stroke:none" d="M 17.171875 -21.21875 L 8.234375 -4.609375 L 16.75 -4.609375 L 16.75 0 L 1.171875 0 L 1.171875 -2.265625 L 10.125 -18.921875 L 2.171875 -18.921875 L 2.171875 -23.53125 L 17.171875 -23.53125 Z M 17.171875 -21.21875 "/></g></g><g style="fill:#c0884e;fill-opacity:1;"><g transform="translate(266.242847, 45.294995)"><path style="stroke:none" d="M 17.171875 -21.21875 L 8.234375 -4.609375 L 16.75 -4.609375 L 16.75 0 L 1.171875 0 L 1.171875 -2.265625 L 10.125 -18.921875 L 2.171875 -18.921875 L 2.171875 -23.53125 L 17.171875 -23.53125 Z M 17.171875 -21.21875 "/></g></g><g style="fill:#c0884e;fill-opacity:1;"><g transform="translate(283.795921, 45.294995)"><path style="stroke:none" d="M 9.6875 -24.328125 L 10.6875 -24.328125 C 12.0625 -24.328125 13.320312 -23.988281 14.46875 -23.3125 C 15.613281 -22.644531 16.523438 -21.738281 17.203125 -20.59375 C 17.878906 -19.445312 18.21875 -18.164062 18.21875 -16.75 L 18.21875 0 L 15.0625 0 L 14.3125 -1.03125 L 13.984375 -1.03125 C 13.566406 -0.5 12.875 -0.0625 11.90625 0.28125 C 10.9375 0.625 9.867188 0.796875 8.703125 0.796875 C 7.390625 0.796875 6.160156 0.550781 5.015625 0.0625 C 3.867188 -0.414062 2.941406 -1.171875 2.234375 -2.203125 C 1.523438 -3.242188 1.171875 -4.566406 1.171875 -6.171875 L 1.171875 -6.734375 C 1.171875 -8.046875 1.59375 -9.15625 2.4375 -10.0625 C 3.289062 -10.976562 4.34375 -11.75 5.59375 -12.375 C 6.851562 -13 8.132812 -13.515625 9.4375 -13.921875 C 10.738281 -14.335938 11.859375 -14.6875 12.796875 -14.96875 L 12.796875 -17.078125 C 12.796875 -17.742188 12.550781 -18.316406 12.0625 -18.796875 C 11.582031 -19.285156 11.015625 -19.53125 10.359375 -19.53125 L 10.03125 -19.53125 C 9.332031 -19.53125 8.734375 -19.285156 8.234375 -18.796875 C 7.734375 -18.316406 7.484375 -17.742188 7.484375 -17.078125 L 7.484375 -15.15625 L 2.125 -15.15625 L 2.125 -16.75 C 2.125 -18.132812 2.457031 -19.398438 3.125 -20.546875 C 3.800781 -21.691406 4.71875 -22.609375 5.875 -23.296875 C 7.039062 -23.984375 8.3125 -24.328125 9.6875 -24.328125 Z M 12.796875 -6.453125 L 12.796875 -10.546875 C 11.765625 -10.140625 10.773438 -9.804688 9.828125 -9.546875 C 8.890625 -9.296875 8.125 -8.921875 7.53125 -8.421875 C 6.9375 -7.921875 6.640625 -7.09375 6.640625 -5.9375 L 6.640625 -5.453125 C 6.640625 -4.921875 6.816406 -4.546875 7.171875 -4.328125 C 7.535156 -4.109375 8.171875 -4 9.078125 -4 L 10.359375 -4 C 11.015625 -4 11.582031 -4.234375 12.0625 -4.703125 C 12.550781 -5.171875 12.796875 -5.753906 12.796875 -6.453125 Z M 12.796875 -6.453125 "/></g></g><g style="fill:#c0884e;fill-opacity:1;"><g transform="translate(303.560795, 45.294995)"><path style="stroke:none" d=""/></g></g><g style="fill:#c0884e;fill-opacity:1;"><g transform="translate(315.23143, 45.294995)"><path style="stroke:none" d="M 10.921875 -12.28125 L 11.34375 -12.28125 L 15.25 -32.9375 L 21.078125 -32.9375 L 14.3125 0 L 7.953125 0 L 1.171875 -32.9375 L 7.015625 -32.9375 Z M 10.921875 -12.28125 "/></g></g><g style="fill:#c0884e;fill-opacity:1;"><g transform="translate(335.984503, 45.294995)"><path style="stroke:none" d="M 9.6875 -24.328125 L 10.6875 -24.328125 C 12.0625 -24.328125 13.320312 -23.988281 14.46875 -23.3125 C 15.613281 -22.644531 16.523438 -21.738281 17.203125 -20.59375 C 17.878906 -19.445312 18.21875 -18.164062 18.21875 -16.75 L 18.21875 0 L 15.0625 0 L 14.3125 -1.03125 L 13.984375 -1.03125 C 13.566406 -0.5 12.875 -0.0625 11.90625 0.28125 C 10.9375 0.625 9.867188 0.796875 8.703125 0.796875 C 7.390625 0.796875 6.160156 0.550781 5.015625 0.0625 C 3.867188 -0.414062 2.941406 -1.171875 2.234375 -2.203125 C 1.523438 -3.242188 1.171875 -4.566406 1.171875 -6.171875 L 1.171875 -6.734375 C 1.171875 -8.046875 1.59375 -9.15625 2.4375 -10.0625 C 3.289062 -10.976562 4.34375 -11.75 5.59375 -12.375 C 6.851562 -13 8.132812 -13.515625 9.4375 -13.921875 C 10.738281 -14.335938 11.859375 -14.6875 12.796875 -14.96875 L 12.796875 -17.078125 C 12.796875 -17.742188 12.550781 -18.316406 12.0625 -18.796875 C 11.582031 -19.285156 11.015625 -19.53125 10.359375 -19.53125 L 10.03125 -19.53125 C 9.332031 -19.53125 8.734375 -19.285156 8.234375 -18.796875 C 7.734375 -18.316406 7.484375 -17.742188 7.484375 -17.078125 L 7.484375 -15.15625 L 2.125 -15.15625 L 2.125 -16.75 C 2.125 -18.132812 2.457031 -19.398438 3.125 -20.546875 C 3.800781 -21.691406 4.71875 -22.609375 5.875 -23.296875 C 7.039062 -23.984375 8.3125 -24.328125 9.6875 -24.328125 Z M 12.796875 -6.453125 L 12.796875 -10.546875 C 11.765625 -10.140625 10.773438 -9.804688 9.828125 -9.546875 C 8.890625 -9.296875 8.125 -8.921875 7.53125 -8.421875 C 6.9375 -7.921875 6.640625 -7.09375 6.640625 -5.9375 L 6.640625 -5.453125 C 6.640625 -4.921875 6.816406 -4.546875 7.171875 -4.328125 C 7.535156 -4.109375 8.171875 -4 9.078125 -4 L 10.359375 -4 C 11.015625 -4 11.582031 -4.234375 12.0625 -4.703125 C 12.550781 -5.171875 12.796875 -5.753906 12.796875 -6.453125 Z M 12.796875 -6.453125 "/></g></g><g style="fill:#c0884e;fill-opacity:1;"><g transform="translate(355.514054, 45.294995)"><path style="stroke:none" d="M 8.234375 0 L 2.828125 0 L 2.828125 -32.9375 L 8.234375 -32.9375 Z M 8.234375 0 "/></g></g><g style="fill:#c0884e;fill-opacity:1;"><g transform="translate(365.537582, 45.294995)"><path style="stroke:none" d="M 13.453125 -8.140625 L 13.453125 -23.53125 L 18.875 -23.53125 L 18.875 0 L 14.21875 0 L 14.21875 -1.03125 L 13.796875 -1.03125 C 13.378906 -0.5 12.691406 -0.0625 11.734375 0.28125 C 10.785156 0.625 9.945312 0.796875 9.21875 0.796875 L 8.75 0.796875 C 6.832031 0.796875 5.285156 0.144531 4.109375 -1.15625 C 2.941406 -2.457031 2.359375 -4.207031 2.359375 -6.40625 L 2.359375 -23.53125 L 7.765625 -23.53125 L 7.765625 -8.28125 C 7.765625 -7.625 7.796875 -6.960938 7.859375 -6.296875 C 7.921875 -5.640625 8.140625 -5.09375 8.515625 -4.65625 C 8.890625 -4.21875 9.550781 -4 10.5 -4 C 11.5625 -4 12.316406 -4.335938 12.765625 -5.015625 C 13.222656 -5.691406 13.453125 -6.734375 13.453125 -8.140625 Z M 13.453125 -8.140625 "/></g></g><g style="fill:#c0884e;fill-opacity:1;"><g transform="translate(386.196572, 45.294995)"><path style="stroke:none" d="M 19.53125 -16.75 L 19.53125 -10.6875 L 7.765625 -10.6875 L 7.765625 -6.453125 C 7.765625 -5.753906 8.003906 -5.171875 8.484375 -4.703125 C 8.972656 -4.234375 9.550781 -4 10.21875 -4 L 11.625 -4 C 12.28125 -4 12.851562 -4.234375 13.34375 -4.703125 C 13.832031 -5.171875 14.078125 -5.753906 14.078125 -6.453125 L 14.078125 -8.375 L 19.53125 -8.375 L 19.53125 -6.78125 C 19.53125 -5.394531 19.179688 -4.117188 18.484375 -2.953125 C 17.796875 -1.796875 16.878906 -0.878906 15.734375 -0.203125 C 14.597656 0.460938 13.335938 0.796875 11.953125 0.796875 L 9.890625 0.796875 C 8.503906 0.796875 7.238281 0.460938 6.09375 -0.203125 C 4.945312 -0.878906 4.035156 -1.796875 3.359375 -2.953125 C 2.691406 -4.117188 2.359375 -5.394531 2.359375 -6.78125 L 2.359375 -16.75 C 2.359375 -18.132812 2.691406 -19.398438 3.359375 -20.546875 C 4.035156 -21.691406 4.945312 -22.609375 6.09375 -23.296875 C 7.238281 -23.984375 8.503906 -24.328125 9.890625 -24.328125 L 11.953125 -24.328125 C 13.335938 -24.328125 14.597656 -23.984375 15.734375 -23.296875 C 16.878906 -22.609375 17.796875 -21.691406 18.484375 -20.546875 C 19.179688 -19.398438 19.53125 -18.132812 19.53125 -16.75 Z M 7.765625 -17.078125 L 7.765625 -14.359375 L 14.078125 -14.359375 L 14.078125 -17.078125 C 14.078125 -17.742188 13.832031 -18.316406 13.34375 -18.796875 C 12.851562 -19.285156 12.28125 -19.53125 11.625 -19.53125 L 10.21875 -19.53125 C 9.550781 -19.53125 8.972656 -19.285156 8.484375 -18.796875 C 8.003906 -18.316406 7.765625 -17.742188 7.765625 -17.078125 Z M 7.765625 -17.078125 "/></g></g><g style="fill:#c0884e;fill-opacity:1;"><g transform="translate(406.337925, 45.294995)"><path style="stroke:none" d=""/></g></g><g style="fill:#c0884e;fill-opacity:1;"><g transform="translate(418.008553, 45.294995)"><path style="stroke:none" d="M 11.390625 -33.75 L 13.078125 -33.75 C 14.648438 -33.75 16.085938 -33.363281 17.390625 -32.59375 C 18.691406 -31.820312 19.726562 -30.785156 20.5 -29.484375 C 21.269531 -28.179688 21.65625 -26.742188 21.65625 -25.171875 L 21.65625 -21.125 L 15.53125 -21.125 L 15.53125 -25.5625 C 15.53125 -26.3125 15.253906 -26.957031 14.703125 -27.5 C 14.160156 -28.050781 13.507812 -28.328125 12.75 -28.328125 L 11.71875 -28.328125 C 10.9375 -28.328125 10.273438 -28.050781 9.734375 -27.5 C 9.203125 -26.957031 8.9375 -26.3125 8.9375 -25.5625 L 8.9375 -7.390625 C 8.9375 -6.640625 9.203125 -5.988281 9.734375 -5.4375 C 10.273438 -4.882812 10.9375 -4.609375 11.71875 -4.609375 L 12.75 -4.609375 C 13.507812 -4.609375 14.160156 -4.882812 14.703125 -5.4375 C 15.253906 -5.988281 15.53125 -6.640625 15.53125 -7.390625 L 15.53125 -11.8125 L 21.65625 -11.8125 L 21.65625 -7.765625 C 21.65625 -6.191406 21.269531 -4.753906 20.5 -3.453125 C 19.726562 -2.148438 18.691406 -1.113281 17.390625 -0.34375 C 16.085938 0.414062 14.648438 0.796875 13.078125 0.796875 L 11.390625 0.796875 C 9.816406 0.796875 8.378906 0.414062 7.078125 -0.34375 C 5.773438 -1.113281 4.738281 -2.148438 3.96875 -3.453125 C 3.207031 -4.753906 2.828125 -6.191406 2.828125 -7.765625 L 2.828125 -25.171875 C 2.828125 -26.742188 3.207031 -28.179688 3.96875 -29.484375 C 4.738281 -30.785156 5.773438 -31.820312 7.078125 -32.59375 C 8.378906 -33.363281 9.816406 -33.75 11.390625 -33.75 Z M 11.390625 -33.75 "/></g></g><g style="fill:#c0884e;fill-opacity:1;"><g transform="translate(441.208811, 45.294995)"><path style="stroke:none" d="M 9.6875 -24.328125 L 10.6875 -24.328125 C 12.0625 -24.328125 13.320312 -23.988281 14.46875 -23.3125 C 15.613281 -22.644531 16.523438 -21.738281 17.203125 -20.59375 C 17.878906 -19.445312 18.21875 -18.164062 18.21875 -16.75 L 18.21875 0 L 15.0625 0 L 14.3125 -1.03125 L 13.984375 -1.03125 C 13.566406 -0.5 12.875 -0.0625 11.90625 0.28125 C 10.9375 0.625 9.867188 0.796875 8.703125 0.796875 C 7.390625 0.796875 6.160156 0.550781 5.015625 0.0625 C 3.867188 -0.414062 2.941406 -1.171875 2.234375 -2.203125 C 1.523438 -3.242188 1.171875 -4.566406 1.171875 -6.171875 L 1.171875 -6.734375 C 1.171875 -8.046875 1.59375 -9.15625 2.4375 -10.0625 C 3.289062 -10.976562 4.34375 -11.75 5.59375 -12.375 C 6.851562 -13 8.132812 -13.515625 9.4375 -13.921875 C 10.738281 -14.335938 11.859375 -14.6875 12.796875 -14.96875 L 12.796875 -17.078125 C 12.796875 -17.742188 12.550781 -18.316406 12.0625 -18.796875 C 11.582031 -19.285156 11.015625 -19.53125 10.359375 -19.53125 L 10.03125 -19.53125 C 9.332031 -19.53125 8.734375 -19.285156 8.234375 -18.796875 C 7.734375 -18.316406 7.484375 -17.742188 7.484375 -17.078125 L 7.484375 -15.15625 L 2.125 -15.15625 L 2.125 -16.75 C 2.125 -18.132812 2.457031 -19.398438 3.125 -20.546875 C 3.800781 -21.691406 4.71875 -22.609375 5.875 -23.296875 C 7.039062 -23.984375 8.3125 -24.328125 9.6875 -24.328125 Z M 12.796875 -6.453125 L 12.796875 -10.546875 C 11.765625 -10.140625 10.773438 -9.804688 9.828125 -9.546875 C 8.890625 -9.296875 8.125 -8.921875 7.53125 -8.421875 C 6.9375 -7.921875 6.640625 -7.09375 6.640625 -5.9375 L 6.640625 -5.453125 C 6.640625 -4.921875 6.816406 -4.546875 7.171875 -4.328125 C 7.535156 -4.109375 8.171875 -4 9.078125 -4 L 10.359375 -4 C 11.015625 -4 11.582031 -4.234375 12.0625 -4.703125 C 12.550781 -5.171875 12.796875 -5.753906 12.796875 -6.453125 Z M 12.796875 -6.453125 "/></g></g><g style="fill:#c0884e;fill-opacity:1;"><g transform="translate(460.738384, 45.294995)"><path style="stroke:none" d="M 8.234375 0 L 2.828125 0 L 2.828125 -32.9375 L 8.234375 -32.9375 Z M 8.234375 0 "/></g></g><g style="fill:#c0884e;fill-opacity:1;"><g transform="translate(470.761912, 45.294995)"><path style="stroke:none" d="M 9.9375 -24.328125 L 11.953125 -24.328125 C 13.335938 -24.328125 14.597656 -23.984375 15.734375 -23.296875 C 16.878906 -22.609375 17.796875 -21.691406 18.484375 -20.546875 C 19.179688 -19.398438 19.53125 -18.132812 19.53125 -16.75 L 19.53125 -15.15625 L 14.078125 -15.15625 L 14.078125 -17.078125 C 14.078125 -17.742188 13.832031 -18.316406 13.34375 -18.796875 C 12.851562 -19.285156 12.28125 -19.53125 11.625 -19.53125 L 10.265625 -19.53125 C 9.566406 -19.53125 8.984375 -19.285156 8.515625 -18.796875 C 8.046875 -18.316406 7.8125 -17.742188 7.8125 -17.078125 L 7.8125 -6.453125 C 7.8125 -5.753906 8.046875 -5.171875 8.515625 -4.703125 C 8.984375 -4.234375 9.566406 -4 10.265625 -4 L 11.625 -4 C 12.28125 -4 12.851562 -4.234375 13.34375 -4.703125 C 13.832031 -5.171875 14.078125 -5.753906 14.078125 -6.453125 L 14.078125 -8.375 L 19.53125 -8.375 L 19.53125 -6.78125 C 19.53125 -5.394531 19.179688 -4.117188 18.484375 -2.953125 C 17.796875 -1.796875 16.878906 -0.878906 15.734375 -0.203125 C 14.597656 0.460938 13.335938 0.796875 11.953125 0.796875 L 9.9375 0.796875 C 8.550781 0.796875 7.273438 0.460938 6.109375 -0.203125 C 4.953125 -0.878906 4.035156 -1.796875 3.359375 -2.953125 C 2.691406 -4.117188 2.359375 -5.394531 2.359375 -6.78125 L 2.359375 -16.75 C 2.359375 -18.132812 2.691406 -19.398438 3.359375 -20.546875 C 4.035156 -21.691406 4.953125 -22.609375 6.109375 -23.296875 C 7.273438 -23.984375 8.550781 -24.328125 9.9375 -24.328125 Z M 9.9375 -24.328125 "/></g></g><g style="fill:#c0884e;fill-opacity:1;"><g transform="translate(490.667972, 45.294995)"><path style="stroke:none" d="M 13.453125 -8.140625 L 13.453125 -23.53125 L 18.875 -23.53125 L 18.875 0 L 14.21875 0 L 14.21875 -1.03125 L 13.796875 -1.03125 C 13.378906 -0.5 12.691406 -0.0625 11.734375 0.28125 C 10.785156 0.625 9.945312 0.796875 9.21875 0.796875 L 8.75 0.796875 C 6.832031 0.796875 5.285156 0.144531 4.109375 -1.15625 C 2.941406 -2.457031 2.359375 -4.207031 2.359375 -6.40625 L 2.359375 -23.53125 L 7.765625 -23.53125 L 7.765625 -8.28125 C 7.765625 -7.625 7.796875 -6.960938 7.859375 -6.296875 C 7.921875 -5.640625 8.140625 -5.09375 8.515625 -4.65625 C 8.890625 -4.21875 9.550781 -4 10.5 -4 C 11.5625 -4 12.316406 -4.335938 12.765625 -5.015625 C 13.222656 -5.691406 13.453125 -6.734375 13.453125 -8.140625 Z M 13.453125 -8.140625 "/></g></g><g style="fill:#c0884e;fill-opacity:1;"><g transform="translate(511.562256, 45.294995)"><path style="stroke:none" d="M 8.234375 0 L 2.828125 0 L 2.828125 -32.9375 L 8.234375 -32.9375 Z M 8.234375 0 "/></g></g><g style="fill:#c0884e;fill-opacity:1;"><g transform="translate(522.056432, 45.294995)"><path style="stroke:none" d="M 9.6875 -24.328125 L 10.6875 -24.328125 C 12.0625 -24.328125 13.320312 -23.988281 14.46875 -23.3125 C 15.613281 -22.644531 16.523438 -21.738281 17.203125 -20.59375 C 17.878906 -19.445312 18.21875 -18.164062 18.21875 -16.75 L 18.21875 0 L 15.0625 0 L 14.3125 -1.03125 L 13.984375 -1.03125 C 13.566406 -0.5 12.875 -0.0625 11.90625 0.28125 C 10.9375 0.625 9.867188 0.796875 8.703125 0.796875 C 7.390625 0.796875 6.160156 0.550781 5.015625 0.0625 C 3.867188 -0.414062 2.941406 -1.171875 2.234375 -2.203125 C 1.523438 -3.242188 1.171875 -4.566406 1.171875 -6.171875 L 1.171875 -6.734375 C 1.171875 -8.046875 1.59375 -9.15625 2.4375 -10.0625 C 3.289062 -10.976562 4.34375 -11.75 5.59375 -12.375 C 6.851562 -13 8.132812 -13.515625 9.4375 -13.921875 C 10.738281 -14.335938 11.859375 -14.6875 12.796875 -14.96875 L 12.796875 -17.078125 C 12.796875 -17.742188 12.550781 -18.316406 12.0625 -18.796875 C 11.582031 -19.285156 11.015625 -19.53125 10.359375 -19.53125 L 10.03125 -19.53125 C 9.332031 -19.53125 8.734375 -19.285156 8.234375 -18.796875 C 7.734375 -18.316406 7.484375 -17.742188 7.484375 -17.078125 L 7.484375 -15.15625 L 2.125 -15.15625 L 2.125 -16.75 C 2.125 -18.132812 2.457031 -19.398438 3.125 -20.546875 C 3.800781 -21.691406 4.71875 -22.609375 5.875 -23.296875 C 7.039062 -23.984375 8.3125 -24.328125 9.6875 -24.328125 Z M 12.796875 -6.453125 L 12.796875 -10.546875 C 11.765625 -10.140625 10.773438 -9.804688 9.828125 -9.546875 C 8.890625 -9.296875 8.125 -8.921875 7.53125 -8.421875 C 6.9375 -7.921875 6.640625 -7.09375 6.640625 -5.9375 L 6.640625 -5.453125 C 6.640625 -4.921875 6.816406 -4.546875 7.171875 -4.328125 C 7.535156 -4.109375 8.171875 -4 9.078125 -4 L 10.359375 -4 C 11.015625 -4 11.582031 -4.234375 12.0625 -4.703125 C 12.550781 -5.171875 12.796875 -5.753906 12.796875 -6.453125 Z M 12.796875 -6.453125 "/></g></g><g style="fill:#c0884e;fill-opacity:1;"><g transform="translate(541.585974, 45.294995)"><path style="stroke:none" d="M 12.421875 -5.78125 L 12.421875 -8.375 L 17.890625 -8.375 L 17.890625 -6.125 C 17.890625 -4.863281 17.570312 -3.707031 16.9375 -2.65625 C 16.3125 -1.601562 15.476562 -0.765625 14.4375 -0.140625 C 13.40625 0.484375 12.25 0.796875 10.96875 0.796875 L 9.265625 0.796875 C 8.015625 0.796875 6.863281 0.484375 5.8125 -0.140625 C 4.757812 -0.765625 3.921875 -1.601562 3.296875 -2.65625 C 2.671875 -3.707031 2.359375 -4.863281 2.359375 -6.125 L 2.359375 -31.109375 L 7.765625 -31.109375 L 7.765625 -23.53125 L 12.9375 -23.53125 L 12.9375 -18.921875 L 7.765625 -18.921875 L 7.765625 -5.78125 C 7.765625 -5.28125 7.941406 -4.859375 8.296875 -4.515625 C 8.660156 -4.171875 9.09375 -4 9.59375 -4 L 10.640625 -4 C 11.109375 -4 11.519531 -4.171875 11.875 -4.515625 C 12.238281 -4.859375 12.421875 -5.28125 12.421875 -5.78125 Z M 12.421875 -5.78125 "/></g></g><g style="fill:#c0884e;fill-opacity:1;"><g transform="translate(559.374349, 45.294995)"><path style="stroke:none" d="M 9.890625 -24.328125 L 11.953125 -24.328125 C 13.335938 -24.328125 14.597656 -23.988281 15.734375 -23.3125 C 16.878906 -22.644531 17.796875 -21.738281 18.484375 -20.59375 C 19.179688 -19.445312 19.53125 -18.164062 19.53125 -16.75 L 19.53125 -6.78125 C 19.53125 -5.394531 19.179688 -4.117188 18.484375 -2.953125 C 17.796875 -1.796875 16.878906 -0.878906 15.734375 -0.203125 C 14.597656 0.460938 13.335938 0.796875 11.953125 0.796875 L 9.890625 0.796875 C 8.503906 0.796875 7.238281 0.460938 6.09375 -0.203125 C 4.945312 -0.878906 4.035156 -1.796875 3.359375 -2.953125 C 2.691406 -4.117188 2.359375 -5.394531 2.359375 -6.78125 L 2.359375 -16.75 C 2.359375 -18.164062 2.691406 -19.445312 3.359375 -20.59375 C 4.035156 -21.738281 4.945312 -22.644531 6.09375 -23.3125 C 7.238281 -23.988281 8.503906 -24.328125 9.890625 -24.328125 Z M 14.078125 -6.453125 L 14.078125 -17.078125 C 14.078125 -17.773438 13.832031 -18.359375 13.34375 -18.828125 C 12.851562 -19.296875 12.28125 -19.53125 11.625 -19.53125 L 10.265625 -19.53125 C 9.566406 -19.53125 8.984375 -19.296875 8.515625 -18.828125 C 8.046875 -18.359375 7.8125 -17.773438 7.8125 -17.078125 L 7.8125 -6.453125 C 7.8125 -5.753906 8.046875 -5.171875 8.515625 -4.703125 C 8.984375 -4.234375 9.566406 -4 10.265625 -4 L 11.625 -4 C 12.28125 -4 12.851562 -4.234375 13.34375 -4.703125 C 13.832031 -5.171875 14.078125 -5.753906 14.078125 -6.453125 Z M 14.078125 -6.453125 "/></g></g><g style="fill:#c0884e;fill-opacity:1;"><g transform="translate(580.45686, 45.294995)"><path style="stroke:none" d="M 12.375 -24.328125 L 12.5625 -24.328125 C 14.507812 -24.328125 16.0625 -23.664062 17.21875 -22.34375 C 18.382812 -21.03125 18.96875 -19.273438 18.96875 -17.078125 L 18.96875 -15.15625 L 13.796875 -15.15625 C 13.796875 -15.75 13.757812 -16.382812 13.6875 -17.0625 C 13.625 -17.738281 13.421875 -18.316406 13.078125 -18.796875 C 12.734375 -19.285156 12.140625 -19.53125 11.296875 -19.53125 C 9.253906 -19.53125 8.234375 -18.148438 8.234375 -15.390625 L 8.234375 0 L 2.828125 0 L 2.828125 -23.53125 L 7.484375 -23.53125 L 7.484375 -22.5 L 7.90625 -22.5 C 8.34375 -23.03125 9.015625 -23.46875 9.921875 -23.8125 C 10.835938 -24.15625 11.65625 -24.328125 12.375 -24.328125 Z M 12.375 -24.328125 "/></g></g><g clip-rule="nonzero" clip-path="url(#d0462cca73)"><g clip-rule="nonzero" clip-path="url(#492cd363ec)"><path style=" stroke:none;fill-rule:nonzero;fill:#f9edc7;fill-opacity:1;" d="M 629.402344 0.335938 L 719.164062 0.335938 L 719.164062 91.847656 L 629.402344 91.847656 Z M 629.402344 0.335938 "/></g></g><g clip-rule="nonzero" clip-path="url(#c8fef83b9e)"><g clip-rule="nonzero" clip-path="url(#4a48cf7ccb)"><path style=" stroke:none;fill-rule:nonzero;fill:#b73008;fill-opacity:1;" d="M 719.164062 0.335938 L 808.921875 0.335938 L 808.921875 91.847656 L 719.164062 91.847656 Z M 719.164062 0.335938 "/></g></g></g></svg>