<svg xmlns="http://www.w3.org/2000/svg" xmlns:xlink="http://www.w3.org/1999/xlink" width="1080" zoomAndPan="magnify" viewBox="0 0 810 809.999993" height="1080" preserveAspectRatio="xMidYMid meet" version="1.2"><defs><clipPath id="80782be0c0"><path d="M 46.296875 256.039062 L 624.84375 256.039062 L 624.84375 810 L 46.296875 810 Z M 46.296875 256.039062 "/></clipPath><clipPath id="fe63ac5cc1"><path d="M 335.570312 256.039062 C 175.808594 256.039062 46.296875 385.550781 46.296875 545.3125 C 46.296875 705.074219 175.808594 834.585938 335.570312 834.585938 C 495.332031 834.585938 624.84375 705.074219 624.84375 545.3125 C 624.84375 385.550781 495.332031 256.039062 335.570312 256.039062 Z M 335.570312 256.039062 "/></clipPath><clipPath id="efdc5ad121"><path d="M 81.90625 291.648438 L 589.234375 291.648438 L 589.234375 798.976562 L 81.90625 798.976562 Z M 81.90625 291.648438 "/></clipPath><clipPath id="d77f199d9c"><path d="M 335.570312 291.648438 C 195.476562 291.648438 81.90625 405.21875 81.90625 545.3125 C 81.90625 685.40625 195.476562 798.976562 335.570312 798.976562 C 475.664062 798.976562 589.234375 685.40625 589.234375 545.3125 C 589.234375 405.21875 475.664062 291.648438 335.570312 291.648438 Z M 335.570312 291.648438 "/></clipPath><clipPath id="642548f9db"><path d="M 0 213 L 747 213 L 747 810 L 0 810 Z M 0 213 "/></clipPath><clipPath id="1f3e8429ab"><path d="M -145.214844 721.773438 L 145.285156 213.398438 L 746.027344 556.679688 L 455.523438 1065.054688 Z M -145.214844 721.773438 "/></clipPath><clipPath id="8cf1e27109"><path d="M 257 19 L 669 19 L 669 638 L 257 638 Z M 257 19 "/></clipPath><clipPath id="1508395be2"><path d="M 578.957031 10.574219 L 677.558594 66.859375 L 346.855469 646.210938 L 248.25 589.925781 Z M 578.957031 10.574219 "/></clipPath><clipPath id="2e337c69ca"><path d="M 599.964844 23.074219 L 656.496094 55.34375 C 668.007812 61.917969 672.015625 76.574219 665.445312 88.085938 L 358.773438 625.332031 C 352.203125 636.84375 337.546875 640.847656 326.035156 634.277344 L 269.5 602.007812 C 257.988281 595.433594 253.984375 580.777344 260.554688 569.265625 L 567.222656 32.019531 C 573.792969 20.507812 588.453125 16.503906 599.964844 23.074219 Z M 599.964844 23.074219 "/></clipPath><clipPath id="4ea5ea4d6b"><path d="M 110.367188 320.109375 L 560.773438 320.109375 L 560.773438 770.515625 L 110.367188 770.515625 Z M 110.367188 320.109375 "/></clipPath><clipPath id="c6b56cdcdd"><path d="M 335.570312 320.109375 C 211.195312 320.109375 110.367188 420.9375 110.367188 545.3125 C 110.367188 669.6875 211.195312 770.515625 335.570312 770.515625 C 459.945312 770.515625 560.773438 669.6875 560.773438 545.3125 C 560.773438 420.9375 459.945312 320.109375 335.570312 320.109375 Z M 335.570312 320.109375 "/></clipPath><clipPath id="3f25de83dc"><path d="M 278 0 L 619 0 L 619 546 L 278 546 Z M 278 0 "/></clipPath><clipPath id="b91d073cca"><path d="M 278.363281 521.378906 L 576.300781 -0.0117188 L 618.167969 23.910156 L 320.230469 545.300781 Z M 278.363281 521.378906 "/></clipPath><clipPath id="dc6e0b770c"><path d="M 273.828125 483.570312 L 397.3125 483.570312 L 397.3125 607.054688 L 273.828125 607.054688 Z M 273.828125 483.570312 "/></clipPath><clipPath id="dd90fe8da2"><path d="M 335.570312 483.570312 C 301.472656 483.570312 273.828125 511.214844 273.828125 545.3125 C 273.828125 579.410156 301.472656 607.054688 335.570312 607.054688 C 369.667969 607.054688 397.3125 579.410156 397.3125 545.3125 C 397.3125 511.214844 369.667969 483.570312 335.570312 483.570312 Z M 335.570312 483.570312 "/></clipPath></defs><g id="64ce276816"><g clip-rule="nonzero" clip-path="url(#80782be0c0)"><g clip-rule="nonzero" clip-path="url(#fe63ac5cc1)"><path style=" stroke:none;fill-rule:nonzero;fill:#ffffff;fill-opacity:1;" d="M 46.296875 256.039062 L 624.84375 256.039062 L 624.84375 834.585938 L 46.296875 834.585938 Z M 46.296875 256.039062 "/></g></g><g clip-rule="nonzero" clip-path="url(#efdc5ad121)"><g clip-rule="nonzero" clip-path="url(#d77f199d9c)"><path style=" stroke:none;fill-rule:nonzero;fill:#000000;fill-opacity:1;" d="M 81.90625 291.648438 L 589.234375 291.648438 L 589.234375 798.976562 L 81.90625 798.976562 Z M 81.90625 291.648438 "/></g></g><g clip-rule="nonzero" clip-path="url(#642548f9db)"><g clip-rule="nonzero" clip-path="url(#1f3e8429ab)"><path style=" stroke:none;fill-rule:nonzero;fill:#000000;fill-opacity:1;" d="M -145.214844 721.773438 L 145.285156 213.398438 L 746.996094 557.234375 L 456.496094 1065.609375 Z M -145.214844 721.773438 "/></g></g><g clip-rule="nonzero" clip-path="url(#8cf1e27109)"><g clip-rule="nonzero" clip-path="url(#1508395be2)"><g clip-rule="nonzero" clip-path="url(#2e337c69ca)"><path style=" stroke:none;fill-rule:nonzero;fill:#ffffff;fill-opacity:1;" d="M 579.121094 11.175781 L 677.339844 67.242188 L 346.855469 646.210938 L 248.636719 590.144531 Z M 579.121094 11.175781 "/></g></g></g><g clip-rule="nonzero" clip-path="url(#4ea5ea4d6b)"><g clip-rule="nonzero" clip-path="url(#c6b56cdcdd)"><path style=" stroke:none;fill-rule:nonzero;fill:#ffffff;fill-opacity:1;" d="M 110.367188 320.109375 L 560.773438 320.109375 L 560.773438 770.515625 L 110.367188 770.515625 Z M 110.367188 320.109375 "/></g></g><g clip-rule="nonzero" clip-path="url(#3f25de83dc)"><g clip-rule="nonzero" clip-path="url(#b91d073cca)"><path style=" stroke:none;fill-rule:nonzero;fill:#000000;fill-opacity:1;" d="M 278.363281 521.378906 L 576.28125 0.0195312 L 618.148438 23.945312 L 320.230469 545.300781 Z M 278.363281 521.378906 "/></g></g><g clip-rule="nonzero" clip-path="url(#dc6e0b770c)"><g clip-rule="nonzero" clip-path="url(#dd90fe8da2)"><path style=" stroke:none;fill-rule:nonzero;fill:#000000;fill-opacity:1;" d="M 273.828125 483.570312 L 397.3125 483.570312 L 397.3125 607.054688 L 273.828125 607.054688 Z M 273.828125 483.570312 "/></g></g></g></svg>