<svg xmlns="http://www.w3.org/2000/svg" xmlns:xlink="http://www.w3.org/1999/xlink" width="1080" zoomAndPan="magnify" viewBox="0 0 810 193.499995" height="258" preserveAspectRatio="xMidYMid meet" version="1.2"><defs><clipPath id="0b276cbd29"><path d="M 1.042969 0 L 162.625 0 L 162.625 192.511719 L 1.042969 192.511719 Z M 1.042969 0 "/></clipPath><clipPath id="73d5271cb6"><path d="M 54.933594 188.601562 C 63.21875 190.867188 72.636719 192.355469 81.878906 192.355469 C 91.121094 192.355469 100.015625 191.082031 108.214844 188.8125 C 108.386719 188.742188 108.5625 188.742188 108.738281 188.671875 C 139.519531 179.597656 162.191406 155.640625 162.625 126.925781 L 162.625 0 L 1.042969 0 L 1.042969 126.832031 C 1.480469 155.78125 23.804688 179.742188 54.933594 188.601562 Z M 54.933594 188.601562 "/></clipPath><clipPath id="2c12690999"><path d="M 162.625 0 L 324.207031 0 L 324.207031 192.511719 L 162.625 192.511719 Z M 162.625 0 "/></clipPath><clipPath id="16f14e646a"><path d="M 216.515625 188.601562 C 224.800781 190.867188 234.21875 192.355469 243.460938 192.355469 C 252.703125 192.355469 261.597656 191.082031 269.796875 188.8125 C 269.96875 188.742188 270.144531 188.742188 270.320312 188.671875 C 301.101562 179.597656 323.773438 155.640625 324.207031 126.925781 L 324.207031 0 L 162.625 0 L 162.625 126.832031 C 163.0625 155.78125 185.386719 179.742188 216.515625 188.601562 Z M 216.515625 188.601562 "/></clipPath><clipPath id="d997abcbf8"><path d="M 324.207031 0 L 485.792969 0 L 485.792969 192.511719 L 324.207031 192.511719 Z M 324.207031 0 "/></clipPath><clipPath id="9305bd7f29"><path d="M 378.097656 188.601562 C 386.382812 190.867188 395.800781 192.355469 405.042969 192.355469 C 414.285156 192.355469 423.179688 191.082031 431.378906 188.8125 C 431.550781 188.742188 431.726562 188.742188 431.902344 188.671875 C 462.683594 179.597656 485.355469 155.640625 485.792969 126.925781 L 485.792969 0 L 324.207031 0 L 324.207031 126.832031 C 324.644531 155.78125 346.96875 179.742188 378.097656 188.601562 Z M 378.097656 188.601562 "/></clipPath><clipPath id="c6e9767a84"><path d="M 485.792969 0 L 647.375 0 L 647.375 192.511719 L 485.792969 192.511719 Z M 485.792969 0 "/></clipPath><clipPath id="ecce252b44"><path d="M 539.679688 188.601562 C 547.964844 190.867188 557.382812 192.355469 566.625 192.355469 C 575.871094 192.355469 584.765625 191.082031 592.960938 188.8125 C 593.136719 188.742188 593.308594 188.742188 593.484375 188.671875 C 624.265625 179.597656 646.9375 155.640625 647.375 126.925781 L 647.375 0 L 485.792969 0 L 485.792969 126.832031 C 486.226562 155.78125 508.550781 179.742188 539.679688 188.601562 Z M 539.679688 188.601562 "/></clipPath><clipPath id="6d7137d050"><path d="M 647.375 0 L 808.957031 0 L 808.957031 192.511719 L 647.375 192.511719 Z M 647.375 0 "/></clipPath><clipPath id="1c218e2731"><path d="M 701.261719 188.601562 C 709.546875 190.867188 718.964844 192.355469 728.207031 192.355469 C 737.453125 192.355469 746.347656 191.082031 754.542969 188.8125 C 754.71875 188.742188 754.890625 188.742188 755.066406 188.671875 C 785.847656 179.597656 808.519531 155.640625 808.957031 126.925781 L 808.957031 0 L 647.375 0 L 647.375 126.832031 C 647.808594 155.78125 670.132812 179.742188 701.261719 188.601562 Z M 701.261719 188.601562 "/></clipPath></defs><g id="2b642e34a6"><g clip-rule="nonzero" clip-path="url(#0b276cbd29)"><g clip-rule="nonzero" clip-path="url(#73d5271cb6)"><path style=" stroke:none;fill-rule:nonzero;fill:#b73008;fill-opacity:1;" d="M 1.042969 0 L 162.625 0 L 162.625 192.511719 L 1.042969 192.511719 Z M 1.042969 0 "/></g></g><g clip-rule="nonzero" clip-path="url(#2c12690999)"><g clip-rule="nonzero" clip-path="url(#16f14e646a)"><path style=" stroke:none;fill-rule:nonzero;fill:#f9edc7;fill-opacity:1;" d="M 162.625 0 L 324.207031 0 L 324.207031 192.511719 L 162.625 192.511719 Z M 162.625 0 "/></g></g><g clip-rule="nonzero" clip-path="url(#d997abcbf8)"><g clip-rule="nonzero" clip-path="url(#9305bd7f29)"><path style=" stroke:none;fill-rule:nonzero;fill:#b73008;fill-opacity:1;" d="M 324.207031 0 L 485.792969 0 L 485.792969 192.511719 L 324.207031 192.511719 Z M 324.207031 0 "/></g></g><g clip-rule="nonzero" clip-path="url(#c6e9767a84)"><g clip-rule="nonzero" clip-path="url(#ecce252b44)"><path style=" stroke:none;fill-rule:nonzero;fill:#f9edc7;fill-opacity:1;" d="M 485.792969 0 L 647.375 0 L 647.375 192.511719 L 485.792969 192.511719 Z M 485.792969 0 "/></g></g><g clip-rule="nonzero" clip-path="url(#6d7137d050)"><g clip-rule="nonzero" clip-path="url(#1c218e2731)"><path style=" stroke:none;fill-rule:nonzero;fill:#b73008;fill-opacity:1;" d="M 647.375 0 L 808.957031 0 L 808.957031 192.511719 L 647.375 192.511719 Z M 647.375 0 "/></g></g><g style="fill:#31081f;fill-opacity:1;"><g transform="translate(131.642392, 90.83841)"><path style="stroke:none" d="M 4.695312 -55.765625 L 17.644531 -55.765625 C 21.484375 -55.765625 25.023438 -54.8125 28.257812 -52.898438 C 31.402344 -51.042969 33.90625 -48.558594 35.769531 -45.441406 C 37.695312 -42.214844 38.660156 -38.675781 38.660156 -34.816406 L 38.726562 -24.882812 C 38.726562 -21 37.769531 -17.445312 35.859375 -14.207031 C 34.003906 -11.0625 31.515625 -8.558594 28.398438 -6.695312 C 25.230469 -4.800781 21.746094 -3.816406 17.953125 -3.742188 L 13.148438 -3.738281 L 13.148438 -12.546875 L 21.953125 -12.59375 L 22.070312 8.734375 L -3.949219 8.945312 L -4.136719 -55.765625 Z M 4.695312 -38.15625 L 4.695312 -46.960938 L 13.503906 -46.984375 L 13.636719 0.0429688 L 4.832031 0.0664062 L 4.761719 -8.738281 L 13.144531 -8.804688 L 13.214844 0 L 4.410156 0.046875 L 4.296875 -21.351562 L 17.601562 -21.347656 C 18.28125 -21.363281 18.867188 -21.519531 19.367188 -21.816406 C 19.914062 -22.144531 20.359375 -22.59375 20.695312 -23.160156 C 20.972656 -23.636719 21.113281 -24.167969 21.113281 -24.761719 L 21.046875 -34.816406 C 21.046875 -35.433594 20.914062 -35.964844 20.652344 -36.40625 C 20.320312 -36.957031 19.875 -37.398438 19.304688 -37.734375 C 18.832031 -38.015625 18.277344 -38.15625 17.644531 -38.15625 Z M 13.148438 -28.730469 L 17.242188 -28.730469 C 16.625 -28.730469 16.011719 -28.601562 15.398438 -28.347656 C 14.753906 -28.078125 14.203125 -27.707031 13.742188 -27.234375 C 13.332031 -26.8125 13.003906 -26.304688 12.765625 -25.71875 C 12.515625 -25.113281 12.394531 -24.503906 12.394531 -23.882812 L 12.328125 -35.574219 C 12.328125 -35.023438 12.445312 -34.453125 12.683594 -33.863281 C 12.941406 -33.226562 13.300781 -32.675781 13.765625 -32.214844 C 14.226562 -31.75 14.777344 -31.390625 15.414062 -31.132812 C 16.003906 -30.894531 16.589844 -30.773438 17.175781 -30.773438 L 13.082031 -30.773438 L 13.082031 -39.582031 L 21.886719 -39.609375 L 21.953125 -19.953125 L 13.148438 -19.925781 Z M 4.371094 -11.117188 L 4.246094 -48.386719 L 17.175781 -48.386719 C 18.875 -48.386719 20.492188 -48.078125 22.019531 -47.457031 C 23.597656 -46.820312 24.996094 -45.890625 26.21875 -44.667969 C 27.441406 -43.445312 28.371094 -42.046875 29.011719 -40.46875 C 29.628906 -38.941406 29.9375 -37.34375 29.9375 -35.671875 L 30.003906 -23.882812 C 30.003906 -22.191406 29.691406 -20.578125 29.0625 -19.042969 C 28.441406 -17.527344 27.546875 -16.167969 26.375 -14.960938 C 25.15625 -13.707031 23.753906 -12.75 22.171875 -12.089844 C 20.617188 -11.441406 18.972656 -11.117188 17.242188 -11.117188 Z M 4.371094 -11.117188 "/></g></g><g style="fill:#31081f;fill-opacity:1;"><g transform="translate(162.767541, 90.83841)"><path style="stroke:none" d="M 8.453125 -27.824219 L 7.378906 -27.824219 C 5.660156 -27.824219 4.023438 -28.140625 2.476562 -28.78125 C 0.914062 -29.421875 -0.476562 -30.355469 -1.699219 -31.578125 C -2.902344 -32.78125 -3.824219 -34.140625 -4.464844 -35.664062 C -5.125 -37.222656 -5.453125 -38.863281 -5.453125 -40.585938 L -5.453125 -44.074219 C -5.453125 -45.808594 -5.128906 -47.453125 -4.480469 -49.007812 C -3.820312 -50.589844 -2.863281 -51.988281 -1.609375 -53.210938 C -0.382812 -54.398438 1.003906 -55.304688 2.558594 -55.925781 C 4.082031 -56.535156 5.691406 -56.839844 7.378906 -56.839844 L 8.453125 -56.839844 C 10.144531 -56.839844 11.757812 -56.527344 13.292969 -55.898438 C 14.808594 -55.277344 16.167969 -54.382812 17.371094 -53.210938 C 18.628906 -51.988281 19.585938 -50.589844 20.246094 -49.007812 C 20.894531 -47.453125 21.21875 -45.808594 21.21875 -44.074219 L 21.21875 -40.585938 C 21.21875 -38.863281 20.886719 -37.222656 20.230469 -35.664062 C 19.589844 -34.140625 18.667969 -32.78125 17.464844 -31.578125 C 16.261719 -30.375 14.898438 -29.449219 13.375 -28.808594 C 11.816406 -28.152344 10.175781 -27.824219 8.453125 -27.824219 Z M 8.453125 -45.433594 C 7.800781 -45.433594 7.164062 -45.300781 6.53125 -45.035156 C 5.9375 -44.785156 5.429688 -44.449219 5.011719 -44.03125 C 4.589844 -43.609375 4.253906 -43.101562 4.003906 -42.507812 C 3.738281 -41.878906 3.605469 -41.238281 3.605469 -40.585938 L 3.605469 -44.074219 C 3.605469 -43.460938 3.734375 -42.847656 3.988281 -42.230469 C 4.257812 -41.589844 4.628906 -41.035156 5.101562 -40.578125 C 5.523438 -40.167969 6.027344 -39.839844 6.617188 -39.601562 C 7.222656 -39.351562 7.832031 -39.226562 8.453125 -39.226562 L 7.378906 -39.226562 C 7.949219 -39.226562 8.523438 -39.34375 9.097656 -39.574219 C 9.703125 -39.8125 10.222656 -40.148438 10.664062 -40.578125 C 11.136719 -41.035156 11.507812 -41.589844 11.777344 -42.230469 C 12.03125 -42.847656 12.160156 -43.460938 12.160156 -44.074219 L 12.160156 -40.585938 C 12.160156 -41.238281 12.027344 -41.878906 11.761719 -42.507812 C 11.511719 -43.101562 11.175781 -43.609375 10.753906 -44.03125 C 10.316406 -44.46875 9.792969 -44.8125 9.179688 -45.066406 C 8.582031 -45.3125 7.980469 -45.433594 7.378906 -45.433594 Z M 4.023438 -42.347656 L 20.546875 -42.347656 L 20.546875 8.804688 L -4.78125 8.804688 L -4.78125 -42.347656 Z M 4.023438 -24.738281 L 4.023438 -33.542969 L 12.832031 -33.542969 L 12.832031 0 L 4.023438 0 L 4.023438 -8.804688 L 11.738281 -8.804688 L 11.738281 0 L 2.933594 0 L 2.933594 -33.542969 L 11.738281 -33.542969 L 11.738281 -24.738281 Z M 4.023438 -24.738281 "/></g></g><g style="fill:#31081f;fill-opacity:1;"><g transform="translate(177.390883, 90.83841)"><path style="stroke:none" d="M 32.242188 -26.082031 L 19.496094 -2.402344 L 11.738281 -6.574219 L 11.738281 -15.378906 L 32.6875 -15.378906 L 32.6875 8.804688 L -7.128906 8.804688 L -7.128906 -5.433594 L 6.664062 -31.132812 L 14.421875 -26.96875 L 14.421875 -18.164062 L -5.71875 -18.164062 L -5.71875 -42.347656 L 33.292969 -42.347656 L 33.292969 -28.035156 Z M 16.730469 -34.429688 L 24.488281 -30.257812 L 15.679688 -30.257812 L 15.679688 -33.542969 L 24.488281 -33.542969 L 24.488281 -24.738281 L 3.085938 -24.738281 L 3.085938 -33.542969 L 11.890625 -33.542969 L 11.890625 -26.96875 L 3.085938 -26.96875 L 3.085938 -35.773438 L 29.144531 -35.773438 L 9.4375 0.945312 L 1.675781 -3.21875 L 10.484375 -3.21875 L 10.484375 0 L 1.675781 0 L 1.675781 -8.804688 L 23.882812 -8.804688 L 23.882812 0 L 15.078125 0 L 15.078125 -6.574219 L 23.882812 -6.574219 L 23.882812 2.230469 L -3 2.230469 Z M 16.730469 -34.429688 "/></g></g><g style="fill:#31081f;fill-opacity:1;"><g transform="translate(202.4117, 90.83841)"><path style="stroke:none" d="M 32.242188 -26.082031 L 19.496094 -2.402344 L 11.738281 -6.574219 L 11.738281 -15.378906 L 32.6875 -15.378906 L 32.6875 8.804688 L -7.128906 8.804688 L -7.128906 -5.433594 L 6.664062 -31.132812 L 14.421875 -26.96875 L 14.421875 -18.164062 L -5.71875 -18.164062 L -5.71875 -42.347656 L 33.292969 -42.347656 L 33.292969 -28.035156 Z M 16.730469 -34.429688 L 24.488281 -30.257812 L 15.679688 -30.257812 L 15.679688 -33.542969 L 24.488281 -33.542969 L 24.488281 -24.738281 L 3.085938 -24.738281 L 3.085938 -33.542969 L 11.890625 -33.542969 L 11.890625 -26.96875 L 3.085938 -26.96875 L 3.085938 -35.773438 L 29.144531 -35.773438 L 9.4375 0.945312 L 1.675781 -3.21875 L 10.484375 -3.21875 L 10.484375 0 L 1.675781 0 L 1.675781 -8.804688 L 23.882812 -8.804688 L 23.882812 0 L 15.078125 0 L 15.078125 -6.574219 L 23.882812 -6.574219 L 23.882812 2.230469 L -3 2.230469 Z M 16.730469 -34.429688 "/></g></g><g style="fill:#31081f;fill-opacity:1;"><g transform="translate(227.432517, 90.83841)"><path style="stroke:none" d="M 13.820312 -43.488281 L 15.230469 -43.488281 C 18.796875 -43.488281 22.085938 -42.601562 25.097656 -40.828125 C 28.039062 -39.097656 30.375 -36.761719 32.109375 -33.820312 C 33.882812 -30.808594 34.769531 -27.496094 34.769531 -23.882812 L 34.769531 8.804688 L 16.984375 8.804688 L 13.273438 3.703125 L 20.394531 -1.476562 L 20.394531 7.332031 L 19.925781 7.332031 L 19.925781 -1.476562 L 26.921875 3.875 C 25.28125 6.019531 22.945312 7.628906 19.917969 8.703125 C 17.578125 9.53125 15.078125 9.945312 12.410156 9.945312 C 9.335938 9.945312 6.433594 9.367188 3.703125 8.207031 C 0.484375 6.839844 -2.113281 4.707031 -4.089844 1.808594 C -6.117188 -1.164062 -7.128906 -4.695312 -7.128906 -8.789062 L -7.128906 -9.59375 C -7.128906 -11.609375 -6.785156 -13.519531 -6.101562 -15.324219 C -5.390625 -17.191406 -4.34375 -18.867188 -2.957031 -20.355469 C -1.027344 -22.429688 1.308594 -24.152344 4.046875 -25.519531 C 6.253906 -26.625 8.511719 -27.539062 10.820312 -28.261719 C 12.707031 -28.851562 14.339844 -29.355469 15.71875 -29.769531 L 18.246094 -21.332031 L 9.441406 -21.332031 L 9.441406 -24.351562 C 9.441406 -23.628906 9.589844 -22.917969 9.882812 -22.226562 C 10.15625 -21.585938 10.519531 -21.035156 10.980469 -20.574219 C 11.441406 -20.113281 11.992188 -19.746094 12.632812 -19.476562 C 13.324219 -19.183594 14.035156 -19.035156 14.757812 -19.035156 L 14.289062 -19.035156 C 14.949219 -19.035156 15.597656 -19.164062 16.238281 -19.425781 C 16.867188 -19.683594 17.410156 -20.03125 17.867188 -20.476562 C 18.339844 -20.933594 18.714844 -21.484375 19 -22.132812 C 19.316406 -22.851562 19.472656 -23.59375 19.472656 -24.351562 L 19.472656 -12.796875 L -5.789062 -12.796875 L -5.789062 -23.882812 C -5.789062 -27.453125 -4.898438 -30.742188 -3.125 -33.753906 C -1.402344 -36.683594 0.9375 -39.023438 3.886719 -40.777344 C 6.925781 -42.585938 10.238281 -43.488281 13.820312 -43.488281 Z M 13.820312 -25.878906 C 13.464844 -25.878906 13.15625 -25.796875 12.886719 -25.640625 C 12.527344 -25.425781 12.246094 -25.148438 12.050781 -24.8125 C 11.898438 -24.558594 11.824219 -24.25 11.824219 -23.882812 L 11.824219 -21.601562 L 3.019531 -21.601562 L 3.019531 -30.40625 L 10.667969 -30.40625 L 10.667969 -21.601562 L 1.859375 -21.601562 L 1.859375 -24.351562 C 1.859375 -26.050781 2.195312 -27.667969 2.871094 -29.203125 C 3.511719 -30.667969 4.425781 -31.976562 5.613281 -33.125 C 6.785156 -34.261719 8.113281 -35.132812 9.589844 -35.734375 C 11.078125 -36.34375 12.644531 -36.648438 14.289062 -36.648438 L 14.757812 -36.648438 C 16.421875 -36.648438 18.011719 -36.328125 19.519531 -35.6875 C 20.976562 -35.066406 22.28125 -34.179688 23.433594 -33.027344 C 24.585938 -31.875 25.472656 -30.570312 26.09375 -29.109375 C 26.734375 -27.601562 27.054688 -26.015625 27.054688 -24.351562 L 27.054688 -14.78125 L 20.777344 -12.898438 C 19.46875 -12.507812 17.90625 -12.023438 16.082031 -11.453125 C 14.675781 -11.011719 13.289062 -10.453125 11.921875 -9.765625 C 11.082031 -9.347656 10.417969 -8.875 9.933594 -8.355469 C 10.113281 -8.546875 10.253906 -8.785156 10.359375 -9.0625 C 10.441406 -9.277344 10.484375 -9.453125 10.484375 -9.59375 L 10.484375 -8.789062 C 10.484375 -8.421875 10.507812 -8.140625 10.5625 -7.949219 L 10.558594 -7.949219 C 10.535156 -8 10.5 -8.054688 10.460938 -8.113281 C 10.5 -8.0625 10.539062 -8.023438 10.585938 -8.003906 C 11.121094 -7.777344 11.726562 -7.664062 12.410156 -7.664062 C 13.054688 -7.664062 13.59375 -7.742188 14.027344 -7.898438 C 14.097656 -7.921875 14.148438 -7.941406 14.179688 -7.957031 C 14.140625 -7.9375 14.089844 -7.90625 14.023438 -7.867188 C 13.636719 -7.621094 13.273438 -7.273438 12.929688 -6.824219 L 15.574219 -10.28125 L 24.878906 -10.28125 L 28.589844 -5.179688 L 21.46875 0 L 21.46875 -8.804688 L 25.960938 -8.804688 L 25.960938 0 L 17.15625 0 L 17.15625 -23.882812 C 17.15625 -24.292969 17.082031 -24.628906 16.933594 -24.882812 C 16.742188 -25.207031 16.484375 -25.460938 16.160156 -25.652344 C 15.90625 -25.804688 15.597656 -25.878906 15.230469 -25.878906 Z M 9.441406 -9.191406 L 9.441406 -15.027344 L 18.246094 -15.027344 L 21.476562 -6.835938 C 19.6875 -6.128906 17.957031 -5.554688 16.289062 -5.109375 C 16.171875 -5.078125 16.097656 -5.054688 16.066406 -5.039062 C 16.167969 -5.089844 16.28125 -5.164062 16.40625 -5.273438 C 17.191406 -5.933594 17.746094 -6.714844 18.066406 -7.609375 C 18.199219 -7.980469 18.265625 -8.261719 18.265625 -8.453125 L 18.265625 -7.78125 C 18.265625 -8.734375 18.042969 -9.679688 17.59375 -10.613281 C 16.96875 -11.917969 16.039062 -12.945312 14.808594 -13.695312 C 14.113281 -14.117188 13.441406 -14.386719 12.796875 -14.496094 C 12.730469 -14.507812 12.691406 -14.515625 12.671875 -14.515625 C 12.738281 -14.511719 12.832031 -14.507812 12.949219 -14.507812 L 14.757812 -14.507812 C 14.070312 -14.507812 13.390625 -14.371094 12.726562 -14.097656 C 12.09375 -13.839844 11.546875 -13.484375 11.082031 -13.035156 C 10.5625 -12.535156 10.15625 -11.933594 9.867188 -11.234375 C 9.582031 -10.558594 9.441406 -9.878906 9.441406 -9.191406 Z M 27.054688 -9.191406 C 27.054688 -7.519531 26.738281 -5.933594 26.109375 -4.429688 C 25.46875 -2.902344 24.542969 -1.554688 23.332031 -0.378906 C 22.175781 0.738281 20.871094 1.59375 19.421875 2.191406 C 17.941406 2.800781 16.386719 3.105469 14.757812 3.105469 L 12.949219 3.105469 C 10.003906 3.105469 7.574219 2.519531 5.652344 1.351562 C 3.90625 0.289062 2.59375 -1.164062 1.710938 -3.003906 C 1.003906 -4.476562 0.652344 -6.066406 0.652344 -7.78125 L 0.652344 -8.453125 C 0.652344 -10.300781 0.929688 -12 1.488281 -13.554688 C 2.234375 -15.636719 3.425781 -17.367188 5.0625 -18.746094 C 6.914062 -20.304688 9.144531 -21.433594 11.753906 -22.128906 C 12.769531 -22.398438 13.859375 -22.761719 15.019531 -23.21875 L 27.054688 -27.960938 Z M 27.054688 -9.191406 "/></g></g><g style="fill:#31081f;fill-opacity:1;"><g transform="translate(255.606125, 90.83841)"><path style="stroke:none" d=""/></g></g><g style="fill:#31081f;fill-opacity:1;"><g transform="translate(272.241882, 90.83841)"><path style="stroke:none" d="M 15.5625 -26.316406 L 16.167969 -26.316406 L 16.167969 -17.507812 L 7.515625 -19.144531 L 14.4375 -55.765625 L 40.855469 -55.765625 L 27.574219 8.804688 L 4.160156 8.804688 L -9.125 -55.765625 L 17.292969 -55.765625 L 24.21875 -19.144531 L 15.5625 -17.507812 Z M 8.265625 -8.703125 L 1.34375 -45.324219 L 9.996094 -46.960938 L 9.996094 -38.15625 L 1.675781 -38.15625 L 1.675781 -46.960938 L 10.300781 -48.734375 L 19.964844 -1.773438 L 11.335938 0 L 11.335938 -8.804688 L 20.394531 -8.804688 L 20.394531 0 L 11.769531 -1.773438 L 21.429688 -48.734375 L 30.054688 -46.960938 L 30.054688 -38.15625 L 21.734375 -38.15625 L 21.734375 -46.960938 L 30.390625 -45.324219 L 23.464844 -8.703125 Z M 8.265625 -8.703125 "/></g></g><g style="fill:#31081f;fill-opacity:1;"><g transform="translate(301.824086, 90.83841)"><path style="stroke:none" d="M 13.820312 -43.488281 L 15.230469 -43.488281 C 18.796875 -43.488281 22.085938 -42.601562 25.097656 -40.828125 C 28.039062 -39.097656 30.375 -36.761719 32.109375 -33.820312 C 33.882812 -30.808594 34.769531 -27.496094 34.769531 -23.882812 L 34.769531 8.804688 L 16.984375 8.804688 L 13.273438 3.703125 L 20.394531 -1.476562 L 20.394531 7.332031 L 19.925781 7.332031 L 19.925781 -1.476562 L 26.921875 3.875 C 25.28125 6.019531 22.945312 7.628906 19.917969 8.703125 C 17.578125 9.53125 15.078125 9.945312 12.410156 9.945312 C 9.335938 9.945312 6.433594 9.367188 3.703125 8.207031 C 0.484375 6.839844 -2.113281 4.707031 -4.089844 1.808594 C -6.117188 -1.164062 -7.128906 -4.695312 -7.128906 -8.789062 L -7.128906 -9.59375 C -7.128906 -11.609375 -6.785156 -13.519531 -6.101562 -15.324219 C -5.390625 -17.191406 -4.34375 -18.867188 -2.957031 -20.355469 C -1.027344 -22.429688 1.308594 -24.152344 4.046875 -25.519531 C 6.253906 -26.625 8.511719 -27.539062 10.820312 -28.261719 C 12.707031 -28.851562 14.339844 -29.355469 15.71875 -29.769531 L 18.246094 -21.332031 L 9.441406 -21.332031 L 9.441406 -24.351562 C 9.441406 -23.628906 9.589844 -22.917969 9.882812 -22.226562 C 10.15625 -21.585938 10.519531 -21.035156 10.980469 -20.574219 C 11.441406 -20.113281 11.992188 -19.746094 12.632812 -19.476562 C 13.324219 -19.183594 14.035156 -19.035156 14.757812 -19.035156 L 14.289062 -19.035156 C 14.949219 -19.035156 15.597656 -19.164062 16.238281 -19.425781 C 16.867188 -19.683594 17.410156 -20.03125 17.867188 -20.476562 C 18.339844 -20.933594 18.714844 -21.484375 19 -22.132812 C 19.316406 -22.851562 19.472656 -23.59375 19.472656 -24.351562 L 19.472656 -12.796875 L -5.789062 -12.796875 L -5.789062 -23.882812 C -5.789062 -27.453125 -4.898438 -30.742188 -3.125 -33.753906 C -1.402344 -36.683594 0.9375 -39.023438 3.886719 -40.777344 C 6.925781 -42.585938 10.238281 -43.488281 13.820312 -43.488281 Z M 13.820312 -25.878906 C 13.464844 -25.878906 13.15625 -25.796875 12.886719 -25.640625 C 12.527344 -25.425781 12.246094 -25.148438 12.050781 -24.8125 C 11.898438 -24.558594 11.824219 -24.25 11.824219 -23.882812 L 11.824219 -21.601562 L 3.019531 -21.601562 L 3.019531 -30.40625 L 10.667969 -30.40625 L 10.667969 -21.601562 L 1.859375 -21.601562 L 1.859375 -24.351562 C 1.859375 -26.050781 2.195312 -27.667969 2.871094 -29.203125 C 3.511719 -30.667969 4.425781 -31.976562 5.613281 -33.125 C 6.785156 -34.261719 8.113281 -35.132812 9.589844 -35.734375 C 11.078125 -36.34375 12.644531 -36.648438 14.289062 -36.648438 L 14.757812 -36.648438 C 16.421875 -36.648438 18.011719 -36.328125 19.519531 -35.6875 C 20.976562 -35.066406 22.28125 -34.179688 23.433594 -33.027344 C 24.585938 -31.875 25.472656 -30.570312 26.09375 -29.109375 C 26.734375 -27.601562 27.054688 -26.015625 27.054688 -24.351562 L 27.054688 -14.78125 L 20.777344 -12.898438 C 19.46875 -12.507812 17.90625 -12.023438 16.082031 -11.453125 C 14.675781 -11.011719 13.289062 -10.453125 11.921875 -9.765625 C 11.082031 -9.347656 10.417969 -8.875 9.933594 -8.355469 C 10.113281 -8.546875 10.253906 -8.785156 10.359375 -9.0625 C 10.441406 -9.277344 10.484375 -9.453125 10.484375 -9.59375 L 10.484375 -8.789062 C 10.484375 -8.421875 10.507812 -8.140625 10.5625 -7.949219 L 10.558594 -7.949219 C 10.535156 -8 10.5 -8.054688 10.460938 -8.113281 C 10.5 -8.0625 10.539062 -8.023438 10.585938 -8.003906 C 11.121094 -7.777344 11.726562 -7.664062 12.410156 -7.664062 C 13.054688 -7.664062 13.59375 -7.742188 14.027344 -7.898438 C 14.097656 -7.921875 14.148438 -7.941406 14.179688 -7.957031 C 14.140625 -7.9375 14.089844 -7.90625 14.023438 -7.867188 C 13.636719 -7.621094 13.273438 -7.273438 12.929688 -6.824219 L 15.574219 -10.28125 L 24.878906 -10.28125 L 28.589844 -5.179688 L 21.46875 0 L 21.46875 -8.804688 L 25.960938 -8.804688 L 25.960938 0 L 17.15625 0 L 17.15625 -23.882812 C 17.15625 -24.292969 17.082031 -24.628906 16.933594 -24.882812 C 16.742188 -25.207031 16.484375 -25.460938 16.160156 -25.652344 C 15.90625 -25.804688 15.597656 -25.878906 15.230469 -25.878906 Z M 9.441406 -9.191406 L 9.441406 -15.027344 L 18.246094 -15.027344 L 21.476562 -6.835938 C 19.6875 -6.128906 17.957031 -5.554688 16.289062 -5.109375 C 16.171875 -5.078125 16.097656 -5.054688 16.066406 -5.039062 C 16.167969 -5.089844 16.28125 -5.164062 16.40625 -5.273438 C 17.191406 -5.933594 17.746094 -6.714844 18.066406 -7.609375 C 18.199219 -7.980469 18.265625 -8.261719 18.265625 -8.453125 L 18.265625 -7.78125 C 18.265625 -8.734375 18.042969 -9.679688 17.59375 -10.613281 C 16.96875 -11.917969 16.039062 -12.945312 14.808594 -13.695312 C 14.113281 -14.117188 13.441406 -14.386719 12.796875 -14.496094 C 12.730469 -14.507812 12.691406 -14.515625 12.671875 -14.515625 C 12.738281 -14.511719 12.832031 -14.507812 12.949219 -14.507812 L 14.757812 -14.507812 C 14.070312 -14.507812 13.390625 -14.371094 12.726562 -14.097656 C 12.09375 -13.839844 11.546875 -13.484375 11.082031 -13.035156 C 10.5625 -12.535156 10.15625 -11.933594 9.867188 -11.234375 C 9.582031 -10.558594 9.441406 -9.878906 9.441406 -9.191406 Z M 27.054688 -9.191406 C 27.054688 -7.519531 26.738281 -5.933594 26.109375 -4.429688 C 25.46875 -2.902344 24.542969 -1.554688 23.332031 -0.378906 C 22.175781 0.738281 20.871094 1.59375 19.421875 2.191406 C 17.941406 2.800781 16.386719 3.105469 14.757812 3.105469 L 12.949219 3.105469 C 10.003906 3.105469 7.574219 2.519531 5.652344 1.351562 C 3.90625 0.289062 2.59375 -1.164062 1.710938 -3.003906 C 1.003906 -4.476562 0.652344 -6.066406 0.652344 -7.78125 L 0.652344 -8.453125 C 0.652344 -10.300781 0.929688 -12 1.488281 -13.554688 C 2.234375 -15.636719 3.425781 -17.367188 5.0625 -18.746094 C 6.914062 -20.304688 9.144531 -21.433594 11.753906 -22.128906 C 12.769531 -22.398438 13.859375 -22.761719 15.019531 -23.21875 L 27.054688 -27.960938 Z M 27.054688 -9.191406 "/></g></g><g style="fill:#31081f;fill-opacity:1;"><g transform="translate(329.662254, 90.83841)"><path style="stroke:none" d="M -4.78125 -55.765625 L 20.546875 -55.765625 L 20.546875 8.804688 L -4.78125 8.804688 Z M -4.78125 -55.765625 "/></g></g><g style="fill:#31081f;fill-opacity:1;"><g transform="translate(343.950177, 90.83841)"><path style="stroke:none" d="M 10.378906 -11.605469 L 10.378906 -42.347656 L 35.707031 -42.347656 L 35.707031 8.804688 L 11.453125 8.804688 L 11.453125 -1.476562 L 20.261719 -1.476562 L 20.261719 7.332031 L 19.65625 7.332031 L 19.65625 -1.476562 L 26.652344 3.875 C 25.023438 6.003906 22.714844 7.609375 19.726562 8.6875 C 17.394531 9.527344 15.203125 9.945312 13.148438 9.945312 L 12.476562 9.945312 C 9.929688 9.945312 7.554688 9.484375 5.359375 8.558594 C 3.058594 7.589844 1.050781 6.15625 -0.664062 4.261719 C -2.320312 2.425781 -3.554688 0.304688 -4.363281 -2.097656 C -5.089844 -4.257812 -5.453125 -6.597656 -5.453125 -9.125 L -5.453125 -42.347656 L 19.875 -42.347656 L 19.875 -11.808594 C 19.875 -11.148438 19.90625 -10.484375 19.96875 -9.824219 C 19.882812 -10.738281 19.503906 -11.585938 18.828125 -12.371094 C 18.039062 -13.292969 17.105469 -13.933594 16.035156 -14.292969 C 15.601562 -14.4375 15.242188 -14.507812 14.960938 -14.507812 C 14.476562 -14.507812 13.9375 -14.375 13.34375 -14.113281 C 12.34375 -13.667969 11.53125 -12.988281 10.914062 -12.070312 C 10.609375 -11.617188 10.417969 -11.214844 10.339844 -10.855469 C 10.367188 -10.984375 10.378906 -11.230469 10.378906 -11.605469 Z M 27.992188 -11.605469 C 27.992188 -7.796875 27.167969 -4.671875 25.515625 -2.222656 C 24.246094 -0.339844 22.570312 1.0625 20.484375 1.988281 C 18.804688 2.730469 16.964844 3.105469 14.960938 3.105469 C 13.335938 3.105469 11.839844 2.875 10.464844 2.417969 C 8.453125 1.746094 6.78125 0.636719 5.457031 -0.910156 C 3.710938 -2.949219 2.703125 -5.363281 2.4375 -8.15625 C 2.320312 -9.371094 2.261719 -10.589844 2.261719 -11.808594 L 2.261719 -33.542969 L 11.070312 -33.542969 L 11.070312 -24.738281 L 3.355469 -24.738281 L 3.355469 -33.542969 L 12.160156 -33.542969 L 12.160156 -9.125 C 12.160156 -8.519531 12.21875 -8.050781 12.328125 -7.710938 C 12.359375 -7.625 12.382812 -7.570312 12.402344 -7.546875 C 12.367188 -7.585938 12.300781 -7.628906 12.199219 -7.671875 C 12.179688 -7.679688 12.160156 -7.683594 12.148438 -7.691406 L 12.160156 -7.6875 C 12.238281 -7.671875 12.34375 -7.664062 12.476562 -7.664062 L 13.148438 -7.664062 C 13.082031 -7.664062 13.027344 -7.664062 12.984375 -7.660156 C 12.992188 -7.660156 13.011719 -7.664062 13.042969 -7.667969 C 13.230469 -7.707031 13.464844 -7.777344 13.75 -7.882812 C 13.816406 -7.90625 13.859375 -7.921875 13.886719 -7.933594 C 13.847656 -7.914062 13.792969 -7.882812 13.722656 -7.839844 C 13.347656 -7.597656 12.992188 -7.261719 12.660156 -6.824219 L 15.304688 -10.28125 L 29.066406 -10.28125 L 29.066406 0 L 20.261719 0 L 20.261719 -8.804688 L 26.902344 -8.804688 L 26.902344 0 L 18.09375 0 L 18.09375 -33.542969 L 26.902344 -33.542969 L 26.902344 -24.738281 L 19.1875 -24.738281 L 19.1875 -33.542969 L 27.992188 -33.542969 Z M 27.992188 -11.605469 "/></g></g><g style="fill:#31081f;fill-opacity:1;"><g transform="translate(373.398282, 90.83841)"><path style="stroke:none" d="M 36.648438 -23.882812 L 36.648438 -6.421875 L 11.070312 -6.421875 L 11.070312 -15.230469 L 19.875 -15.230469 L 19.875 -9.191406 C 19.875 -9.878906 19.734375 -10.558594 19.453125 -11.234375 C 19.160156 -11.933594 18.753906 -12.535156 18.234375 -13.035156 C 17.769531 -13.484375 17.222656 -13.839844 16.589844 -14.097656 C 15.925781 -14.371094 15.246094 -14.507812 14.558594 -14.507812 L 16.570312 -14.507812 C 15.878906 -14.507812 15.203125 -14.371094 14.539062 -14.097656 C 13.90625 -13.839844 13.359375 -13.484375 12.894531 -13.035156 C 12.375 -12.535156 11.96875 -11.933594 11.675781 -11.234375 C 11.394531 -10.558594 11.253906 -9.878906 11.253906 -9.191406 L 11.253906 -20.746094 L 36.648438 -20.746094 L 36.648438 -9.660156 C 36.648438 -6.078125 35.742188 -2.765625 33.933594 0.273438 C 32.179688 3.222656 29.839844 5.558594 26.910156 7.285156 C 23.898438 9.058594 20.609375 9.945312 17.039062 9.945312 L 14.089844 9.945312 C 10.519531 9.945312 7.230469 9.058594 4.21875 7.285156 C 1.261719 5.542969 -1.082031 3.179688 -2.816406 0.199219 C -4.574219 -2.824219 -5.453125 -6.109375 -5.453125 -9.660156 L -5.453125 -23.882812 C -5.453125 -27.453125 -4.566406 -30.742188 -2.789062 -33.753906 C -1.074219 -36.667969 1.234375 -39 4.140625 -40.75 C 7.171875 -42.578125 10.488281 -43.488281 14.089844 -43.488281 L 17.039062 -43.488281 C 20.640625 -43.488281 23.957031 -42.578125 26.988281 -40.75 C 29.863281 -39.015625 32.171875 -36.707031 33.90625 -33.828125 C 35.734375 -30.796875 36.648438 -27.484375 36.648438 -23.882812 Z M 19.035156 -23.882812 C 19.035156 -24.21875 18.964844 -24.503906 18.824219 -24.738281 C 18.589844 -25.125 18.28125 -25.433594 17.894531 -25.664062 C 17.660156 -25.808594 17.375 -25.878906 17.039062 -25.878906 L 14.089844 -25.878906 C 13.753906 -25.878906 13.46875 -25.808594 13.234375 -25.664062 C 12.875 -25.449219 12.589844 -25.164062 12.382812 -24.8125 C 12.234375 -24.558594 12.160156 -24.25 12.160156 -23.882812 L 12.160156 -9.660156 C 12.160156 -9.273438 12.242188 -8.9375 12.410156 -8.652344 C 12.601562 -8.324219 12.847656 -8.070312 13.15625 -7.890625 C 13.410156 -7.742188 13.722656 -7.664062 14.089844 -7.664062 L 17.039062 -7.664062 C 17.40625 -7.664062 17.71875 -7.742188 17.972656 -7.890625 C 18.304688 -8.085938 18.582031 -8.367188 18.796875 -8.726562 C 18.957031 -8.996094 19.035156 -9.304688 19.035156 -9.660156 L 19.035156 -11.941406 L 27.839844 -11.941406 L 27.839844 -3.136719 L 20.058594 -3.136719 L 20.058594 -11.941406 L 28.863281 -11.941406 L 28.863281 -9.191406 C 28.863281 -7.519531 28.550781 -5.933594 27.921875 -4.429688 C 27.28125 -2.902344 26.355469 -1.554688 25.144531 -0.378906 C 23.988281 0.738281 22.683594 1.59375 21.234375 2.191406 C 19.753906 2.800781 18.199219 3.105469 16.570312 3.105469 L 14.558594 3.105469 C 12.929688 3.105469 11.375 2.800781 9.894531 2.191406 C 8.445312 1.59375 7.140625 0.738281 5.984375 -0.378906 C 4.773438 -1.554688 3.847656 -2.902344 3.207031 -4.429688 C 2.578125 -5.933594 2.261719 -7.519531 2.261719 -9.191406 L 2.261719 -24.035156 L 27.839844 -24.035156 L 27.839844 -15.230469 L 19.035156 -15.230469 Z M 19.875 -24.351562 L 19.875 -20.460938 L 11.070312 -20.460938 L 11.070312 -29.265625 L 20.058594 -29.265625 L 20.058594 -20.460938 L 11.253906 -20.460938 L 11.253906 -24.351562 C 11.253906 -23.628906 11.398438 -22.917969 11.695312 -22.226562 C 11.964844 -21.585938 12.332031 -21.035156 12.792969 -20.574219 C 13.253906 -20.113281 13.804688 -19.746094 14.445312 -19.476562 C 15.136719 -19.183594 15.84375 -19.035156 16.570312 -19.035156 L 14.558594 -19.035156 C 15.28125 -19.035156 15.992188 -19.183594 16.683594 -19.476562 C 17.324219 -19.746094 17.875 -20.113281 18.335938 -20.574219 C 18.796875 -21.035156 19.164062 -21.585938 19.433594 -22.226562 C 19.730469 -22.917969 19.875 -23.628906 19.875 -24.351562 Z M 2.261719 -24.351562 C 2.261719 -26.015625 2.582031 -27.601562 3.222656 -29.109375 C 3.84375 -30.570312 4.730469 -31.875 5.882812 -33.027344 C 7.035156 -34.179688 8.339844 -35.066406 9.800781 -35.6875 C 11.308594 -36.328125 12.894531 -36.648438 14.558594 -36.648438 L 16.570312 -36.648438 C 18.234375 -36.648438 19.820312 -36.328125 21.328125 -35.6875 C 22.785156 -35.066406 24.09375 -34.179688 25.246094 -33.027344 C 26.398438 -31.875 27.285156 -30.570312 27.90625 -29.109375 C 28.542969 -27.601562 28.863281 -26.015625 28.863281 -24.351562 L 28.863281 -11.65625 L 2.261719 -11.65625 Z M 2.261719 -24.351562 "/></g></g><g style="fill:#31081f;fill-opacity:1;"><g transform="translate(402.108548, 90.83841)"><path style="stroke:none" d=""/></g></g><g style="fill:#31081f;fill-opacity:1;"><g transform="translate(418.744316, 90.83841)"><path style="stroke:none" d="M 16.234375 -56.90625 L 18.648438 -56.90625 C 22.488281 -56.90625 26.027344 -55.953125 29.265625 -54.039062 C 32.421875 -52.175781 34.933594 -49.664062 36.800781 -46.507812 C 38.710938 -43.269531 39.664062 -39.730469 39.664062 -35.890625 L 39.664062 -21.316406 L 13.332031 -21.316406 L 13.332031 -36.429688 C 13.332031 -35.777344 13.464844 -35.136719 13.730469 -34.507812 C 13.980469 -33.914062 14.316406 -33.40625 14.738281 -32.984375 C 15.160156 -32.566406 15.664062 -32.230469 16.261719 -31.976562 C 16.890625 -31.710938 17.53125 -31.578125 18.179688 -31.578125 L 16.703125 -31.578125 C 17.320312 -31.578125 17.933594 -31.707031 18.546875 -31.964844 C 19.191406 -32.230469 19.742188 -32.601562 20.203125 -33.078125 C 20.613281 -33.5 20.941406 -34.003906 21.179688 -34.589844 C 21.429688 -35.195312 21.550781 -35.808594 21.550781 -36.429688 L 21.550781 -10.53125 C 21.550781 -11.152344 21.429688 -11.765625 21.179688 -12.371094 C 20.941406 -12.957031 20.613281 -13.460938 20.203125 -13.882812 C 19.742188 -14.359375 19.191406 -14.730469 18.546875 -14.996094 C 17.933594 -15.253906 17.320312 -15.378906 16.703125 -15.378906 L 18.179688 -15.378906 C 17.53125 -15.378906 16.890625 -15.246094 16.261719 -14.980469 C 15.664062 -14.730469 15.160156 -14.394531 14.738281 -13.976562 C 14.316406 -13.554688 13.980469 -13.046875 13.730469 -12.453125 C 13.464844 -11.824219 13.332031 -11.183594 13.332031 -10.53125 L 13.332031 -25.644531 L 39.664062 -25.644531 L 39.664062 -11.070312 C 39.664062 -7.230469 38.710938 -3.691406 36.800781 -0.453125 C 34.933594 2.703125 32.421875 5.214844 29.265625 7.078125 C 26.027344 8.992188 22.488281 9.945312 18.648438 9.945312 L 16.234375 9.945312 C 12.394531 9.945312 8.855469 8.992188 5.621094 7.078125 C 2.460938 5.214844 -0.0507812 2.703125 -1.914062 -0.453125 C -3.824219 -3.691406 -4.78125 -7.230469 -4.78125 -11.070312 L -4.78125 -35.890625 C -4.78125 -39.730469 -3.824219 -43.269531 -1.914062 -46.507812 C -0.0507812 -49.664062 2.460938 -52.175781 5.621094 -54.039062 C 8.855469 -55.953125 12.394531 -56.90625 16.234375 -56.90625 Z M 16.234375 -39.296875 C 15.601562 -39.296875 15.046875 -39.15625 14.574219 -38.875 C 14.019531 -38.546875 13.578125 -38.105469 13.253906 -37.554688 C 12.972656 -37.078125 12.832031 -36.523438 12.832031 -35.890625 L 12.832031 -11.070312 C 12.832031 -10.4375 12.972656 -9.882812 13.253906 -9.40625 C 13.578125 -8.855469 14.019531 -8.414062 14.574219 -8.085938 C 15.046875 -7.804688 15.601562 -7.664062 16.234375 -7.664062 L 18.648438 -7.664062 C 19.28125 -7.664062 19.835938 -7.804688 20.3125 -8.085938 C 20.867188 -8.414062 21.304688 -8.855469 21.632812 -9.40625 C 21.914062 -9.882812 22.054688 -10.4375 22.054688 -11.070312 L 22.054688 -16.839844 L 30.859375 -16.839844 L 30.859375 -8.03125 L 22.136719 -8.03125 L 22.136719 -16.839844 L 30.945312 -16.839844 L 30.945312 -10.53125 C 30.945312 -8.808594 30.617188 -7.167969 29.960938 -5.609375 C 29.316406 -4.085938 28.394531 -2.726562 27.191406 -1.523438 C 25.988281 -0.316406 24.625 0.605469 23.101562 1.246094 C 21.546875 1.902344 19.90625 2.230469 18.179688 2.230469 L 16.703125 2.230469 C 14.972656 2.230469 13.328125 1.90625 11.773438 1.261719 C 10.191406 0.601562 8.789062 -0.355469 7.570312 -1.613281 C 6.398438 -2.820312 5.503906 -4.179688 4.882812 -5.695312 C 4.253906 -7.226562 3.941406 -8.839844 3.941406 -10.53125 L 3.941406 -36.429688 C 3.941406 -38.121094 4.253906 -39.734375 4.882812 -41.265625 C 5.503906 -42.78125 6.398438 -44.140625 7.570312 -45.347656 C 8.789062 -46.605469 10.191406 -47.5625 11.773438 -48.222656 C 13.328125 -48.867188 14.972656 -49.191406 16.703125 -49.191406 L 18.179688 -49.191406 C 19.90625 -49.191406 21.546875 -48.863281 23.101562 -48.207031 C 24.625 -47.566406 25.988281 -46.640625 27.191406 -45.4375 C 28.394531 -44.234375 29.316406 -42.871094 29.960938 -41.351562 C 30.617188 -39.792969 30.945312 -38.152344 30.945312 -36.429688 L 30.945312 -30.121094 L 22.136719 -30.121094 L 22.136719 -38.929688 L 30.859375 -38.929688 L 30.859375 -30.121094 L 22.054688 -30.121094 L 22.054688 -35.890625 C 22.054688 -36.523438 21.914062 -37.078125 21.632812 -37.554688 C 21.304688 -38.105469 20.867188 -38.546875 20.3125 -38.875 C 19.835938 -39.15625 19.28125 -39.296875 18.648438 -39.296875 Z M 16.234375 -39.296875 "/></g></g><g style="fill:#31081f;fill-opacity:1;"><g transform="translate(451.814889, 90.83841)"><path style="stroke:none" d="M 13.820312 -43.488281 L 15.230469 -43.488281 C 18.796875 -43.488281 22.085938 -42.601562 25.097656 -40.828125 C 28.039062 -39.097656 30.375 -36.761719 32.109375 -33.820312 C 33.882812 -30.808594 34.769531 -27.496094 34.769531 -23.882812 L 34.769531 8.804688 L 16.984375 8.804688 L 13.273438 3.703125 L 20.394531 -1.476562 L 20.394531 7.332031 L 19.925781 7.332031 L 19.925781 -1.476562 L 26.921875 3.875 C 25.28125 6.019531 22.945312 7.628906 19.917969 8.703125 C 17.578125 9.53125 15.078125 9.945312 12.410156 9.945312 C 9.335938 9.945312 6.433594 9.367188 3.703125 8.207031 C 0.484375 6.839844 -2.113281 4.707031 -4.089844 1.808594 C -6.117188 -1.164062 -7.128906 -4.695312 -7.128906 -8.789062 L -7.128906 -9.59375 C -7.128906 -11.609375 -6.785156 -13.519531 -6.101562 -15.324219 C -5.390625 -17.191406 -4.34375 -18.867188 -2.957031 -20.355469 C -1.027344 -22.429688 1.308594 -24.152344 4.046875 -25.519531 C 6.253906 -26.625 8.511719 -27.539062 10.820312 -28.261719 C 12.707031 -28.851562 14.339844 -29.355469 15.71875 -29.769531 L 18.246094 -21.332031 L 9.441406 -21.332031 L 9.441406 -24.351562 C 9.441406 -23.628906 9.589844 -22.917969 9.882812 -22.226562 C 10.15625 -21.585938 10.519531 -21.035156 10.980469 -20.574219 C 11.441406 -20.113281 11.992188 -19.746094 12.632812 -19.476562 C 13.324219 -19.183594 14.035156 -19.035156 14.757812 -19.035156 L 14.289062 -19.035156 C 14.949219 -19.035156 15.597656 -19.164062 16.238281 -19.425781 C 16.867188 -19.683594 17.410156 -20.03125 17.867188 -20.476562 C 18.339844 -20.933594 18.714844 -21.484375 19 -22.132812 C 19.316406 -22.851562 19.472656 -23.59375 19.472656 -24.351562 L 19.472656 -12.796875 L -5.789062 -12.796875 L -5.789062 -23.882812 C -5.789062 -27.453125 -4.898438 -30.742188 -3.125 -33.753906 C -1.402344 -36.683594 0.9375 -39.023438 3.886719 -40.777344 C 6.925781 -42.585938 10.238281 -43.488281 13.820312 -43.488281 Z M 13.820312 -25.878906 C 13.464844 -25.878906 13.15625 -25.796875 12.886719 -25.640625 C 12.527344 -25.425781 12.246094 -25.148438 12.050781 -24.8125 C 11.898438 -24.558594 11.824219 -24.25 11.824219 -23.882812 L 11.824219 -21.601562 L 3.019531 -21.601562 L 3.019531 -30.40625 L 10.667969 -30.40625 L 10.667969 -21.601562 L 1.859375 -21.601562 L 1.859375 -24.351562 C 1.859375 -26.050781 2.195312 -27.667969 2.871094 -29.203125 C 3.511719 -30.667969 4.425781 -31.976562 5.613281 -33.125 C 6.785156 -34.261719 8.113281 -35.132812 9.589844 -35.734375 C 11.078125 -36.34375 12.644531 -36.648438 14.289062 -36.648438 L 14.757812 -36.648438 C 16.421875 -36.648438 18.011719 -36.328125 19.519531 -35.6875 C 20.976562 -35.066406 22.28125 -34.179688 23.433594 -33.027344 C 24.585938 -31.875 25.472656 -30.570312 26.09375 -29.109375 C 26.734375 -27.601562 27.054688 -26.015625 27.054688 -24.351562 L 27.054688 -14.78125 L 20.777344 -12.898438 C 19.46875 -12.507812 17.90625 -12.023438 16.082031 -11.453125 C 14.675781 -11.011719 13.289062 -10.453125 11.921875 -9.765625 C 11.082031 -9.347656 10.417969 -8.875 9.933594 -8.355469 C 10.113281 -8.546875 10.253906 -8.785156 10.359375 -9.0625 C 10.441406 -9.277344 10.484375 -9.453125 10.484375 -9.59375 L 10.484375 -8.789062 C 10.484375 -8.421875 10.507812 -8.140625 10.5625 -7.949219 L 10.558594 -7.949219 C 10.535156 -8 10.5 -8.054688 10.460938 -8.113281 C 10.5 -8.0625 10.539062 -8.023438 10.585938 -8.003906 C 11.121094 -7.777344 11.726562 -7.664062 12.410156 -7.664062 C 13.054688 -7.664062 13.59375 -7.742188 14.027344 -7.898438 C 14.097656 -7.921875 14.148438 -7.941406 14.179688 -7.957031 C 14.140625 -7.9375 14.089844 -7.90625 14.023438 -7.867188 C 13.636719 -7.621094 13.273438 -7.273438 12.929688 -6.824219 L 15.574219 -10.28125 L 24.878906 -10.28125 L 28.589844 -5.179688 L 21.46875 0 L 21.46875 -8.804688 L 25.960938 -8.804688 L 25.960938 0 L 17.15625 0 L 17.15625 -23.882812 C 17.15625 -24.292969 17.082031 -24.628906 16.933594 -24.882812 C 16.742188 -25.207031 16.484375 -25.460938 16.160156 -25.652344 C 15.90625 -25.804688 15.597656 -25.878906 15.230469 -25.878906 Z M 9.441406 -9.191406 L 9.441406 -15.027344 L 18.246094 -15.027344 L 21.476562 -6.835938 C 19.6875 -6.128906 17.957031 -5.554688 16.289062 -5.109375 C 16.171875 -5.078125 16.097656 -5.054688 16.066406 -5.039062 C 16.167969 -5.089844 16.28125 -5.164062 16.40625 -5.273438 C 17.191406 -5.933594 17.746094 -6.714844 18.066406 -7.609375 C 18.199219 -7.980469 18.265625 -8.261719 18.265625 -8.453125 L 18.265625 -7.78125 C 18.265625 -8.734375 18.042969 -9.679688 17.59375 -10.613281 C 16.96875 -11.917969 16.039062 -12.945312 14.808594 -13.695312 C 14.113281 -14.117188 13.441406 -14.386719 12.796875 -14.496094 C 12.730469 -14.507812 12.691406 -14.515625 12.671875 -14.515625 C 12.738281 -14.511719 12.832031 -14.507812 12.949219 -14.507812 L 14.757812 -14.507812 C 14.070312 -14.507812 13.390625 -14.371094 12.726562 -14.097656 C 12.09375 -13.839844 11.546875 -13.484375 11.082031 -13.035156 C 10.5625 -12.535156 10.15625 -11.933594 9.867188 -11.234375 C 9.582031 -10.558594 9.441406 -9.878906 9.441406 -9.191406 Z M 27.054688 -9.191406 C 27.054688 -7.519531 26.738281 -5.933594 26.109375 -4.429688 C 25.46875 -2.902344 24.542969 -1.554688 23.332031 -0.378906 C 22.175781 0.738281 20.871094 1.59375 19.421875 2.191406 C 17.941406 2.800781 16.386719 3.105469 14.757812 3.105469 L 12.949219 3.105469 C 10.003906 3.105469 7.574219 2.519531 5.652344 1.351562 C 3.90625 0.289062 2.59375 -1.164062 1.710938 -3.003906 C 1.003906 -4.476562 0.652344 -6.066406 0.652344 -7.78125 L 0.652344 -8.453125 C 0.652344 -10.300781 0.929688 -12 1.488281 -13.554688 C 2.234375 -15.636719 3.425781 -17.367188 5.0625 -18.746094 C 6.914062 -20.304688 9.144531 -21.433594 11.753906 -22.128906 C 12.769531 -22.398438 13.859375 -22.761719 15.019531 -23.21875 L 27.054688 -27.960938 Z M 27.054688 -9.191406 "/></g></g><g style="fill:#31081f;fill-opacity:1;"><g transform="translate(479.653056, 90.83841)"><path style="stroke:none" d="M -4.78125 -55.765625 L 20.546875 -55.765625 L 20.546875 8.804688 L -4.78125 8.804688 Z M -4.78125 -55.765625 "/></g></g><g style="fill:#31081f;fill-opacity:1;"><g transform="translate(493.94098, 90.83841)"><path style="stroke:none" d="M 14.15625 -43.488281 L 17.039062 -43.488281 C 20.640625 -43.488281 23.957031 -42.578125 26.988281 -40.75 C 29.863281 -39.015625 32.171875 -36.707031 33.90625 -33.828125 C 35.734375 -30.796875 36.648438 -27.484375 36.648438 -23.882812 L 36.648438 -12.796875 L 11.253906 -12.796875 L 11.253906 -24.351562 C 11.253906 -23.628906 11.398438 -22.917969 11.695312 -22.226562 C 11.964844 -21.585938 12.332031 -21.035156 12.792969 -20.574219 C 13.253906 -20.113281 13.804688 -19.746094 14.445312 -19.476562 C 15.136719 -19.183594 15.84375 -19.035156 16.570312 -19.035156 L 14.625 -19.035156 C 15.3125 -19.035156 15.996094 -19.175781 16.667969 -19.457031 C 17.367188 -19.75 17.96875 -20.15625 18.472656 -20.675781 C 18.917969 -21.140625 19.273438 -21.6875 19.53125 -22.320312 C 19.804688 -22.984375 19.941406 -23.664062 19.941406 -24.351562 L 19.941406 -9.191406 C 19.941406 -9.84375 19.8125 -10.492188 19.550781 -11.140625 C 19.269531 -11.832031 18.875 -12.429688 18.371094 -12.933594 C 17.863281 -13.441406 17.265625 -13.835938 16.574219 -14.113281 C 15.925781 -14.378906 15.277344 -14.507812 14.625 -14.507812 L 16.570312 -14.507812 C 15.878906 -14.507812 15.203125 -14.371094 14.539062 -14.097656 C 13.90625 -13.839844 13.359375 -13.484375 12.894531 -13.035156 C 12.375 -12.535156 11.96875 -11.933594 11.675781 -11.234375 C 11.394531 -10.558594 11.253906 -9.878906 11.253906 -9.191406 L 11.253906 -20.746094 L 36.648438 -20.746094 L 36.648438 -9.660156 C 36.648438 -6.078125 35.742188 -2.765625 33.933594 0.273438 C 32.179688 3.222656 29.839844 5.558594 26.910156 7.285156 C 23.898438 9.058594 20.609375 9.945312 17.039062 9.945312 L 14.15625 9.945312 C 10.605469 9.945312 7.320312 9.070312 4.296875 7.3125 C 1.296875 5.570312 -1.074219 3.199219 -2.816406 0.199219 C -4.574219 -2.824219 -5.453125 -6.109375 -5.453125 -9.660156 L -5.453125 -23.882812 C -5.453125 -27.453125 -4.566406 -30.742188 -2.789062 -33.753906 C -1.066406 -36.683594 1.273438 -39.023438 4.21875 -40.777344 C 7.261719 -42.585938 10.574219 -43.488281 14.15625 -43.488281 Z M 14.15625 -25.878906 C 13.800781 -25.878906 13.488281 -25.796875 13.222656 -25.640625 C 12.859375 -25.425781 12.582031 -25.148438 12.382812 -24.8125 C 12.234375 -24.558594 12.160156 -24.25 12.160156 -23.882812 L 12.160156 -9.660156 C 12.160156 -9.273438 12.242188 -8.9375 12.410156 -8.652344 C 12.589844 -8.339844 12.835938 -8.097656 13.144531 -7.914062 C 13.433594 -7.75 13.769531 -7.664062 14.15625 -7.664062 L 17.039062 -7.664062 C 17.40625 -7.664062 17.71875 -7.742188 17.972656 -7.890625 C 18.304688 -8.085938 18.582031 -8.367188 18.796875 -8.726562 C 18.957031 -8.996094 19.035156 -9.304688 19.035156 -9.660156 L 19.035156 -11.941406 L 27.839844 -11.941406 L 27.839844 -3.136719 L 20.058594 -3.136719 L 20.058594 -11.941406 L 28.863281 -11.941406 L 28.863281 -9.191406 C 28.863281 -7.519531 28.550781 -5.933594 27.921875 -4.429688 C 27.28125 -2.902344 26.355469 -1.554688 25.144531 -0.378906 C 23.988281 0.738281 22.683594 1.59375 21.234375 2.191406 C 19.753906 2.800781 18.199219 3.105469 16.570312 3.105469 L 14.625 3.105469 C 12.988281 3.105469 11.433594 2.804688 9.957031 2.207031 C 8.441406 1.59375 7.09375 0.695312 5.914062 -0.480469 C 4.738281 -1.660156 3.84375 -3.007812 3.226562 -4.523438 C 2.628906 -6 2.332031 -7.554688 2.332031 -9.191406 L 2.332031 -24.351562 C 2.332031 -25.980469 2.632812 -27.535156 3.242188 -29.015625 C 3.839844 -30.464844 4.695312 -31.769531 5.816406 -32.925781 C 6.988281 -34.136719 8.339844 -35.0625 9.863281 -35.703125 C 11.367188 -36.332031 12.953125 -36.648438 14.625 -36.648438 L 16.570312 -36.648438 C 18.234375 -36.648438 19.820312 -36.328125 21.328125 -35.6875 C 22.785156 -35.066406 24.09375 -34.179688 25.246094 -33.027344 C 26.398438 -31.875 27.285156 -30.570312 27.90625 -29.109375 C 28.542969 -27.601562 28.863281 -26.015625 28.863281 -24.351562 L 28.863281 -21.601562 L 20.058594 -21.601562 L 20.058594 -30.40625 L 27.839844 -30.40625 L 27.839844 -21.601562 L 19.035156 -21.601562 L 19.035156 -23.882812 C 19.035156 -24.21875 18.964844 -24.503906 18.824219 -24.738281 C 18.589844 -25.125 18.28125 -25.433594 17.894531 -25.664062 C 17.660156 -25.808594 17.375 -25.878906 17.039062 -25.878906 Z M 14.15625 -25.878906 "/></g></g><g style="fill:#31081f;fill-opacity:1;"><g transform="translate(522.315839, 90.83841)"><path style="stroke:none" d="M 10.378906 -11.605469 L 10.378906 -42.347656 L 35.707031 -42.347656 L 35.707031 8.804688 L 11.453125 8.804688 L 11.453125 -1.476562 L 20.261719 -1.476562 L 20.261719 7.332031 L 19.65625 7.332031 L 19.65625 -1.476562 L 26.652344 3.875 C 25.023438 6.003906 22.714844 7.609375 19.726562 8.6875 C 17.394531 9.527344 15.203125 9.945312 13.148438 9.945312 L 12.476562 9.945312 C 9.929688 9.945312 7.554688 9.484375 5.359375 8.558594 C 3.058594 7.589844 1.050781 6.15625 -0.664062 4.261719 C -2.320312 2.425781 -3.554688 0.304688 -4.363281 -2.097656 C -5.089844 -4.257812 -5.453125 -6.597656 -5.453125 -9.125 L -5.453125 -42.347656 L 19.875 -42.347656 L 19.875 -11.808594 C 19.875 -11.148438 19.90625 -10.484375 19.96875 -9.824219 C 19.882812 -10.738281 19.503906 -11.585938 18.828125 -12.371094 C 18.039062 -13.292969 17.105469 -13.933594 16.035156 -14.292969 C 15.601562 -14.4375 15.242188 -14.507812 14.960938 -14.507812 C 14.476562 -14.507812 13.9375 -14.375 13.34375 -14.113281 C 12.34375 -13.667969 11.53125 -12.988281 10.914062 -12.070312 C 10.609375 -11.617188 10.417969 -11.214844 10.339844 -10.855469 C 10.367188 -10.984375 10.378906 -11.230469 10.378906 -11.605469 Z M 27.992188 -11.605469 C 27.992188 -7.796875 27.167969 -4.671875 25.515625 -2.222656 C 24.246094 -0.339844 22.570312 1.0625 20.484375 1.988281 C 18.804688 2.730469 16.964844 3.105469 14.960938 3.105469 C 13.335938 3.105469 11.839844 2.875 10.464844 2.417969 C 8.453125 1.746094 6.78125 0.636719 5.457031 -0.910156 C 3.710938 -2.949219 2.703125 -5.363281 2.4375 -8.15625 C 2.320312 -9.371094 2.261719 -10.589844 2.261719 -11.808594 L 2.261719 -33.542969 L 11.070312 -33.542969 L 11.070312 -24.738281 L 3.355469 -24.738281 L 3.355469 -33.542969 L 12.160156 -33.542969 L 12.160156 -9.125 C 12.160156 -8.519531 12.21875 -8.050781 12.328125 -7.710938 C 12.359375 -7.625 12.382812 -7.570312 12.402344 -7.546875 C 12.367188 -7.585938 12.300781 -7.628906 12.199219 -7.671875 C 12.179688 -7.679688 12.160156 -7.683594 12.148438 -7.691406 L 12.160156 -7.6875 C 12.238281 -7.671875 12.34375 -7.664062 12.476562 -7.664062 L 13.148438 -7.664062 C 13.082031 -7.664062 13.027344 -7.664062 12.984375 -7.660156 C 12.992188 -7.660156 13.011719 -7.664062 13.042969 -7.667969 C 13.230469 -7.707031 13.464844 -7.777344 13.75 -7.882812 C 13.816406 -7.90625 13.859375 -7.921875 13.886719 -7.933594 C 13.847656 -7.914062 13.792969 -7.882812 13.722656 -7.839844 C 13.347656 -7.597656 12.992188 -7.261719 12.660156 -6.824219 L 15.304688 -10.28125 L 29.066406 -10.28125 L 29.066406 0 L 20.261719 0 L 20.261719 -8.804688 L 26.902344 -8.804688 L 26.902344 0 L 18.09375 0 L 18.09375 -33.542969 L 26.902344 -33.542969 L 26.902344 -24.738281 L 19.1875 -24.738281 L 19.1875 -33.542969 L 27.992188 -33.542969 Z M 27.992188 -11.605469 "/></g></g><g style="fill:#31081f;fill-opacity:1;"><g transform="translate(552.099396, 90.83841)"><path style="stroke:none" d="M -4.78125 -55.765625 L 20.546875 -55.765625 L 20.546875 8.804688 L -4.78125 8.804688 Z M -4.78125 -55.765625 "/></g></g><g style="fill:#31081f;fill-opacity:1;"><g transform="translate(567.058133, 90.83841)"><path style="stroke:none" d="M 13.820312 -43.488281 L 15.230469 -43.488281 C 18.796875 -43.488281 22.085938 -42.601562 25.097656 -40.828125 C 28.039062 -39.097656 30.375 -36.761719 32.109375 -33.820312 C 33.882812 -30.808594 34.769531 -27.496094 34.769531 -23.882812 L 34.769531 8.804688 L 16.984375 8.804688 L 13.273438 3.703125 L 20.394531 -1.476562 L 20.394531 7.332031 L 19.925781 7.332031 L 19.925781 -1.476562 L 26.921875 3.875 C 25.28125 6.019531 22.945312 7.628906 19.917969 8.703125 C 17.578125 9.53125 15.078125 9.945312 12.410156 9.945312 C 9.335938 9.945312 6.433594 9.367188 3.703125 8.207031 C 0.484375 6.839844 -2.113281 4.707031 -4.089844 1.808594 C -6.117188 -1.164062 -7.128906 -4.695312 -7.128906 -8.789062 L -7.128906 -9.59375 C -7.128906 -11.609375 -6.785156 -13.519531 -6.101562 -15.324219 C -5.390625 -17.191406 -4.34375 -18.867188 -2.957031 -20.355469 C -1.027344 -22.429688 1.308594 -24.152344 4.046875 -25.519531 C 6.253906 -26.625 8.511719 -27.539062 10.820312 -28.261719 C 12.707031 -28.851562 14.339844 -29.355469 15.71875 -29.769531 L 18.246094 -21.332031 L 9.441406 -21.332031 L 9.441406 -24.351562 C 9.441406 -23.628906 9.589844 -22.917969 9.882812 -22.226562 C 10.15625 -21.585938 10.519531 -21.035156 10.980469 -20.574219 C 11.441406 -20.113281 11.992188 -19.746094 12.632812 -19.476562 C 13.324219 -19.183594 14.035156 -19.035156 14.757812 -19.035156 L 14.289062 -19.035156 C 14.949219 -19.035156 15.597656 -19.164062 16.238281 -19.425781 C 16.867188 -19.683594 17.410156 -20.03125 17.867188 -20.476562 C 18.339844 -20.933594 18.714844 -21.484375 19 -22.132812 C 19.316406 -22.851562 19.472656 -23.59375 19.472656 -24.351562 L 19.472656 -12.796875 L -5.789062 -12.796875 L -5.789062 -23.882812 C -5.789062 -27.453125 -4.898438 -30.742188 -3.125 -33.753906 C -1.402344 -36.683594 0.9375 -39.023438 3.886719 -40.777344 C 6.925781 -42.585938 10.238281 -43.488281 13.820312 -43.488281 Z M 13.820312 -25.878906 C 13.464844 -25.878906 13.15625 -25.796875 12.886719 -25.640625 C 12.527344 -25.425781 12.246094 -25.148438 12.050781 -24.8125 C 11.898438 -24.558594 11.824219 -24.25 11.824219 -23.882812 L 11.824219 -21.601562 L 3.019531 -21.601562 L 3.019531 -30.40625 L 10.667969 -30.40625 L 10.667969 -21.601562 L 1.859375 -21.601562 L 1.859375 -24.351562 C 1.859375 -26.050781 2.195312 -27.667969 2.871094 -29.203125 C 3.511719 -30.667969 4.425781 -31.976562 5.613281 -33.125 C 6.785156 -34.261719 8.113281 -35.132812 9.589844 -35.734375 C 11.078125 -36.34375 12.644531 -36.648438 14.289062 -36.648438 L 14.757812 -36.648438 C 16.421875 -36.648438 18.011719 -36.328125 19.519531 -35.6875 C 20.976562 -35.066406 22.28125 -34.179688 23.433594 -33.027344 C 24.585938 -31.875 25.472656 -30.570312 26.09375 -29.109375 C 26.734375 -27.601562 27.054688 -26.015625 27.054688 -24.351562 L 27.054688 -14.78125 L 20.777344 -12.898438 C 19.46875 -12.507812 17.90625 -12.023438 16.082031 -11.453125 C 14.675781 -11.011719 13.289062 -10.453125 11.921875 -9.765625 C 11.082031 -9.347656 10.417969 -8.875 9.933594 -8.355469 C 10.113281 -8.546875 10.253906 -8.785156 10.359375 -9.0625 C 10.441406 -9.277344 10.484375 -9.453125 10.484375 -9.59375 L 10.484375 -8.789062 C 10.484375 -8.421875 10.507812 -8.140625 10.5625 -7.949219 L 10.558594 -7.949219 C 10.535156 -8 10.5 -8.054688 10.460938 -8.113281 C 10.5 -8.0625 10.539062 -8.023438 10.585938 -8.003906 C 11.121094 -7.777344 11.726562 -7.664062 12.410156 -7.664062 C 13.054688 -7.664062 13.59375 -7.742188 14.027344 -7.898438 C 14.097656 -7.921875 14.148438 -7.941406 14.179688 -7.957031 C 14.140625 -7.9375 14.089844 -7.90625 14.023438 -7.867188 C 13.636719 -7.621094 13.273438 -7.273438 12.929688 -6.824219 L 15.574219 -10.28125 L 24.878906 -10.28125 L 28.589844 -5.179688 L 21.46875 0 L 21.46875 -8.804688 L 25.960938 -8.804688 L 25.960938 0 L 17.15625 0 L 17.15625 -23.882812 C 17.15625 -24.292969 17.082031 -24.628906 16.933594 -24.882812 C 16.742188 -25.207031 16.484375 -25.460938 16.160156 -25.652344 C 15.90625 -25.804688 15.597656 -25.878906 15.230469 -25.878906 Z M 9.441406 -9.191406 L 9.441406 -15.027344 L 18.246094 -15.027344 L 21.476562 -6.835938 C 19.6875 -6.128906 17.957031 -5.554688 16.289062 -5.109375 C 16.171875 -5.078125 16.097656 -5.054688 16.066406 -5.039062 C 16.167969 -5.089844 16.28125 -5.164062 16.40625 -5.273438 C 17.191406 -5.933594 17.746094 -6.714844 18.066406 -7.609375 C 18.199219 -7.980469 18.265625 -8.261719 18.265625 -8.453125 L 18.265625 -7.78125 C 18.265625 -8.734375 18.042969 -9.679688 17.59375 -10.613281 C 16.96875 -11.917969 16.039062 -12.945312 14.808594 -13.695312 C 14.113281 -14.117188 13.441406 -14.386719 12.796875 -14.496094 C 12.730469 -14.507812 12.691406 -14.515625 12.671875 -14.515625 C 12.738281 -14.511719 12.832031 -14.507812 12.949219 -14.507812 L 14.757812 -14.507812 C 14.070312 -14.507812 13.390625 -14.371094 12.726562 -14.097656 C 12.09375 -13.839844 11.546875 -13.484375 11.082031 -13.035156 C 10.5625 -12.535156 10.15625 -11.933594 9.867188 -11.234375 C 9.582031 -10.558594 9.441406 -9.878906 9.441406 -9.191406 Z M 27.054688 -9.191406 C 27.054688 -7.519531 26.738281 -5.933594 26.109375 -4.429688 C 25.46875 -2.902344 24.542969 -1.554688 23.332031 -0.378906 C 22.175781 0.738281 20.871094 1.59375 19.421875 2.191406 C 17.941406 2.800781 16.386719 3.105469 14.757812 3.105469 L 12.949219 3.105469 C 10.003906 3.105469 7.574219 2.519531 5.652344 1.351562 C 3.90625 0.289062 2.59375 -1.164062 1.710938 -3.003906 C 1.003906 -4.476562 0.652344 -6.066406 0.652344 -7.78125 L 0.652344 -8.453125 C 0.652344 -10.300781 0.929688 -12 1.488281 -13.554688 C 2.234375 -15.636719 3.425781 -17.367188 5.0625 -18.746094 C 6.914062 -20.304688 9.144531 -21.433594 11.753906 -22.128906 C 12.769531 -22.398438 13.859375 -22.761719 15.019531 -23.21875 L 27.054688 -27.960938 Z M 27.054688 -9.191406 "/></g></g><g style="fill:#31081f;fill-opacity:1;"><g transform="translate(594.896323, 90.83841)"><path style="stroke:none" d="M 8.90625 -8.25 L 8.90625 -20.746094 L 34.300781 -20.746094 L 34.300781 -8.722656 C 34.300781 -5.3125 33.4375 -2.164062 31.710938 0.722656 C 30.070312 3.476562 27.886719 5.679688 25.160156 7.328125 C 22.28125 9.074219 19.105469 9.945312 15.632812 9.945312 L 13.214844 9.945312 C 9.808594 9.945312 6.660156 9.085938 3.769531 7.359375 C 1 5.707031 -1.210938 3.492188 -2.863281 0.722656 C -4.589844 -2.164062 -5.453125 -5.3125 -5.453125 -8.722656 L -5.453125 -53.148438 L 19.875 -53.148438 L 19.875 -33.542969 L 11.070312 -33.542969 L 11.070312 -42.347656 L 27.253906 -42.347656 L 27.253906 -18.164062 L 11.070312 -18.164062 L 11.070312 -26.96875 L 19.875 -26.96875 L 19.875 -8.25 C 19.875 -9.09375 19.703125 -9.914062 19.363281 -10.714844 C 19.019531 -11.519531 18.542969 -12.21875 17.929688 -12.804688 C 17.363281 -13.34375 16.707031 -13.765625 15.957031 -14.0625 C 15.214844 -14.359375 14.457031 -14.507812 13.6875 -14.507812 L 15.160156 -14.507812 C 14.328125 -14.507812 13.515625 -14.34375 12.734375 -14.019531 C 12.015625 -13.722656 11.386719 -13.316406 10.851562 -12.804688 C 10.238281 -12.21875 9.761719 -11.519531 9.417969 -10.714844 C 9.074219 -9.914062 8.90625 -9.09375 8.90625 -8.25 Z M 26.515625 -8.25 C 26.515625 -6.695312 26.21875 -5.214844 25.621094 -3.8125 C 25.019531 -2.402344 24.15625 -1.15625 23.027344 -0.078125 C 21.976562 0.929688 20.796875 1.703125 19.484375 2.246094 C 18.109375 2.816406 16.667969 3.105469 15.160156 3.105469 L 13.6875 3.105469 C 12.199219 3.105469 10.773438 2.832031 9.417969 2.289062 C 8.054688 1.742188 6.832031 0.957031 5.753906 -0.078125 C 4.625 -1.15625 3.761719 -2.402344 3.160156 -3.8125 C 2.5625 -5.214844 2.261719 -6.695312 2.261719 -8.25 L 2.261719 -35.773438 L 18.449219 -35.773438 L 18.449219 -26.96875 L 9.644531 -26.96875 L 9.644531 -33.542969 L 18.449219 -33.542969 L 18.449219 -24.738281 L 2.261719 -24.738281 L 2.261719 -44.34375 L 11.070312 -44.34375 L 11.070312 -35.539062 L 3.355469 -35.539062 L 3.355469 -44.34375 L 12.160156 -44.34375 L 12.160156 -8.722656 C 12.160156 -8.550781 12.191406 -8.414062 12.257812 -8.304688 C 12.390625 -8.078125 12.574219 -7.898438 12.800781 -7.761719 C 12.90625 -7.699219 13.046875 -7.664062 13.214844 -7.664062 L 15.632812 -7.664062 C 15.824219 -7.664062 15.957031 -7.6875 16.03125 -7.730469 C 16.257812 -7.871094 16.445312 -8.058594 16.589844 -8.304688 C 16.65625 -8.414062 16.6875 -8.550781 16.6875 -8.722656 L 16.6875 -11.941406 L 25.492188 -11.941406 L 25.492188 -3.136719 L 17.710938 -3.136719 L 17.710938 -11.941406 L 26.515625 -11.941406 Z M 26.515625 -8.25 "/></g></g><g style="fill:#31081f;fill-opacity:1;"><g transform="translate(620.25257, 90.83841)"><path style="stroke:none" d="M 14.089844 -43.488281 L 17.039062 -43.488281 C 20.609375 -43.488281 23.898438 -42.601562 26.910156 -40.828125 C 29.824219 -39.113281 32.15625 -36.800781 33.90625 -33.894531 C 35.734375 -30.867188 36.648438 -27.527344 36.648438 -23.882812 L 36.648438 -9.660156 C 36.648438 -6.078125 35.742188 -2.765625 33.933594 0.273438 C 32.179688 3.222656 29.839844 5.558594 26.910156 7.285156 C 23.898438 9.058594 20.609375 9.945312 17.039062 9.945312 L 14.089844 9.945312 C 10.519531 9.945312 7.230469 9.058594 4.21875 7.285156 C 1.261719 5.542969 -1.082031 3.179688 -2.816406 0.199219 C -4.574219 -2.824219 -5.453125 -6.109375 -5.453125 -9.660156 L -5.453125 -23.882812 C -5.453125 -27.496094 -4.566406 -30.808594 -2.789062 -33.820312 C -1.058594 -36.761719 1.277344 -39.097656 4.21875 -40.828125 C 7.230469 -42.601562 10.519531 -43.488281 14.089844 -43.488281 Z M 14.089844 -25.878906 C 13.722656 -25.878906 13.410156 -25.804688 13.15625 -25.652344 C 12.832031 -25.460938 12.574219 -25.207031 12.382812 -24.882812 C 12.234375 -24.628906 12.160156 -24.292969 12.160156 -23.882812 L 12.160156 -9.660156 C 12.160156 -9.273438 12.242188 -8.9375 12.410156 -8.652344 C 12.601562 -8.324219 12.847656 -8.070312 13.15625 -7.890625 C 13.410156 -7.742188 13.722656 -7.664062 14.089844 -7.664062 L 17.039062 -7.664062 C 17.40625 -7.664062 17.71875 -7.742188 17.972656 -7.890625 C 18.304688 -8.085938 18.582031 -8.367188 18.796875 -8.726562 C 18.957031 -8.996094 19.035156 -9.304688 19.035156 -9.660156 L 19.035156 -23.882812 C 19.035156 -24.261719 18.964844 -24.570312 18.824219 -24.804688 C 18.605469 -25.164062 18.324219 -25.445312 17.972656 -25.652344 C 17.71875 -25.804688 17.40625 -25.878906 17.039062 -25.878906 Z M 11.253906 -9.191406 L 11.253906 -24.351562 C 11.253906 -23.664062 11.394531 -22.984375 11.675781 -22.308594 C 11.96875 -21.609375 12.375 -21.007812 12.894531 -20.507812 C 13.359375 -20.058594 13.90625 -19.703125 14.539062 -19.445312 C 15.203125 -19.171875 15.878906 -19.035156 16.570312 -19.035156 L 14.625 -19.035156 C 15.277344 -19.035156 15.925781 -19.167969 16.574219 -19.429688 C 17.265625 -19.707031 17.863281 -20.101562 18.371094 -20.609375 C 18.875 -21.113281 19.269531 -21.710938 19.550781 -22.402344 C 19.8125 -23.050781 19.941406 -23.699219 19.941406 -24.351562 L 19.941406 -9.191406 C 19.941406 -9.84375 19.8125 -10.492188 19.550781 -11.140625 C 19.269531 -11.832031 18.875 -12.429688 18.371094 -12.933594 C 17.863281 -13.441406 17.265625 -13.835938 16.574219 -14.113281 C 15.925781 -14.378906 15.277344 -14.507812 14.625 -14.507812 L 16.570312 -14.507812 C 15.878906 -14.507812 15.203125 -14.371094 14.539062 -14.097656 C 13.90625 -13.839844 13.359375 -13.484375 12.894531 -13.035156 C 12.375 -12.535156 11.96875 -11.933594 11.675781 -11.234375 C 11.394531 -10.558594 11.253906 -9.878906 11.253906 -9.191406 Z M 28.863281 -9.191406 C 28.863281 -7.519531 28.550781 -5.933594 27.921875 -4.429688 C 27.28125 -2.902344 26.355469 -1.554688 25.144531 -0.378906 C 23.988281 0.738281 22.683594 1.59375 21.234375 2.191406 C 19.753906 2.800781 18.199219 3.105469 16.570312 3.105469 L 14.625 3.105469 C 12.988281 3.105469 11.433594 2.804688 9.957031 2.207031 C 8.441406 1.59375 7.09375 0.695312 5.914062 -0.480469 C 4.738281 -1.660156 3.84375 -3.007812 3.226562 -4.523438 C 2.628906 -6 2.332031 -7.554688 2.332031 -9.191406 L 2.332031 -24.351562 C 2.332031 -25.988281 2.628906 -27.542969 3.226562 -29.019531 C 3.84375 -30.535156 4.738281 -31.882812 5.914062 -33.0625 C 7.09375 -34.238281 8.441406 -35.136719 9.957031 -35.75 C 11.433594 -36.347656 12.988281 -36.648438 14.625 -36.648438 L 16.570312 -36.648438 C 18.199219 -36.648438 19.753906 -36.34375 21.234375 -35.734375 C 22.683594 -35.136719 23.988281 -34.28125 25.144531 -33.164062 C 26.355469 -31.988281 27.28125 -30.640625 27.921875 -29.113281 C 28.550781 -27.613281 28.863281 -26.023438 28.863281 -24.351562 Z M 28.863281 -9.191406 "/></g></g><g style="fill:#31081f;fill-opacity:1;"><g transform="translate(650.304415, 90.83841)"><path style="stroke:none" d="M 17.644531 -43.488281 L 17.914062 -43.488281 C 20.492188 -43.488281 22.886719 -43.023438 25.089844 -42.085938 C 27.429688 -41.09375 29.453125 -39.628906 31.160156 -37.6875 C 34.28125 -34.144531 35.84375 -29.699219 35.84375 -24.351562 L 35.84375 -12.796875 L 10.851562 -12.796875 L 10.851562 -21.601562 C 10.851562 -22.179688 10.816406 -22.8125 10.753906 -23.503906 C 10.808594 -22.894531 11.046875 -22.296875 11.46875 -21.703125 C 12.210938 -20.65625 13.160156 -19.898438 14.316406 -19.425781 C 14.960938 -19.164062 15.554688 -19.035156 16.101562 -19.035156 C 16.636719 -19.035156 17.207031 -19.171875 17.816406 -19.445312 C 18.667969 -19.828125 19.367188 -20.390625 19.914062 -21.132812 C 20.246094 -21.585938 20.464844 -22.011719 20.5625 -22.414062 C 20.570312 -22.4375 20.574219 -22.453125 20.574219 -22.464844 C 20.570312 -22.449219 20.570312 -22.425781 20.566406 -22.398438 C 20.554688 -22.273438 20.546875 -22.121094 20.546875 -21.9375 L 20.546875 8.804688 L -4.78125 8.804688 L -4.78125 -42.347656 L 19.472656 -42.347656 L 19.472656 -32.066406 L 10.667969 -32.066406 L 10.667969 -40.875 L 11.269531 -40.875 L 11.269531 -32.066406 L 4.472656 -37.664062 C 6.089844 -39.628906 8.277344 -41.132812 11.03125 -42.179688 C 13.335938 -43.054688 15.539062 -43.488281 17.644531 -43.488281 Z M 17.644531 -25.878906 C 17.714844 -25.878906 17.777344 -25.878906 17.828125 -25.886719 L 17.824219 -25.882812 C 17.683594 -25.855469 17.503906 -25.796875 17.277344 -25.710938 C 17.222656 -25.691406 17.179688 -25.671875 17.152344 -25.660156 C 17.179688 -25.671875 17.21875 -25.695312 17.265625 -25.726562 C 17.542969 -25.90625 17.808594 -26.152344 18.066406 -26.46875 L 15.425781 -23.261719 L 1.859375 -23.261719 L 1.859375 -33.542969 L 10.667969 -33.542969 L 10.667969 -24.738281 L 4.023438 -24.738281 L 4.023438 -33.542969 L 12.832031 -33.542969 L 12.832031 0 L 4.023438 0 L 4.023438 -8.804688 L 11.738281 -8.804688 L 11.738281 0 L 2.933594 0 L 2.933594 -21.9375 C 2.933594 -25.839844 3.871094 -29.058594 5.746094 -31.597656 C 7.019531 -33.320312 8.628906 -34.621094 10.570312 -35.5 C 12.265625 -36.265625 14.109375 -36.648438 16.101562 -36.648438 C 17.855469 -36.648438 19.480469 -36.34375 20.96875 -35.734375 C 22.976562 -34.917969 24.597656 -33.636719 25.832031 -31.898438 C 27.234375 -29.917969 28.054688 -27.664062 28.289062 -25.132812 C 28.40625 -23.902344 28.460938 -22.722656 28.460938 -21.601562 L 19.65625 -21.601562 L 19.65625 -30.40625 L 27.035156 -30.40625 L 27.035156 -21.601562 L 18.230469 -21.601562 L 18.230469 -24.351562 C 18.230469 -24.972656 18.171875 -25.460938 18.054688 -25.816406 C 18.015625 -25.929688 17.980469 -26.007812 17.945312 -26.046875 C 18 -25.980469 18.089844 -25.925781 18.214844 -25.871094 C 18.234375 -25.863281 18.253906 -25.855469 18.269531 -25.851562 L 18.257812 -25.855469 C 18.171875 -25.871094 18.058594 -25.878906 17.914062 -25.878906 Z M 17.644531 -25.878906 "/></g></g><g style="fill:#c0884e;fill-opacity:1;"><g transform="translate(131.642392, 90.83841)"><path style="stroke:none" d="M 4.703125 -46.96875 L 17.640625 -46.96875 C 19.878906 -46.96875 21.925781 -46.414062 23.78125 -45.3125 C 25.632812 -44.21875 27.109375 -42.753906 28.203125 -40.921875 C 29.304688 -39.085938 29.859375 -37.054688 29.859375 -34.828125 L 29.921875 -24.828125 C 29.921875 -22.585938 29.375 -20.539062 28.28125 -18.6875 C 27.1875 -16.832031 25.722656 -15.351562 23.890625 -14.25 C 22.054688 -13.15625 20.019531 -12.585938 17.78125 -12.546875 L 13.15625 -12.546875 L 13.21875 0 L 4.828125 0.0625 Z M 13.15625 -19.921875 L 17.25 -19.921875 C 18.363281 -19.921875 19.300781 -20.3125 20.0625 -21.09375 C 20.820312 -21.882812 21.203125 -22.816406 21.203125 -23.890625 L 21.140625 -35.625 C 21.140625 -36.738281 20.757812 -37.675781 20 -38.4375 C 19.238281 -39.195312 18.296875 -39.578125 17.171875 -39.578125 L 13.078125 -39.578125 Z M 13.15625 -19.921875 "/></g></g><g style="fill:#c0884e;fill-opacity:1;"><g transform="translate(162.767541, 90.83841)"><path style="stroke:none" d="M 8.453125 -36.640625 L 7.375 -36.640625 C 6.257812 -36.640625 5.3125 -37.03125 4.53125 -37.8125 C 3.75 -38.59375 3.359375 -39.519531 3.359375 -40.59375 L 3.359375 -44.078125 C 3.359375 -45.203125 3.75 -46.144531 4.53125 -46.90625 C 5.3125 -47.664062 6.257812 -48.046875 7.375 -48.046875 L 8.453125 -48.046875 C 9.523438 -48.046875 10.453125 -47.664062 11.234375 -46.90625 C 12.015625 -46.144531 12.40625 -45.203125 12.40625 -44.078125 L 12.40625 -40.59375 C 12.40625 -39.519531 12.015625 -38.59375 11.234375 -37.8125 C 10.453125 -37.03125 9.523438 -36.640625 8.453125 -36.640625 Z M 4.03125 -33.546875 L 11.734375 -33.546875 L 11.734375 0 L 4.03125 0 Z M 4.03125 -33.546875 "/></g></g><g style="fill:#c0884e;fill-opacity:1;"><g transform="translate(177.390883, 90.83841)"><path style="stroke:none" d="M 24.484375 -30.265625 L 11.734375 -6.578125 L 23.890625 -6.578125 L 23.890625 0 L 1.671875 0 L 1.671875 -3.21875 L 14.421875 -26.96875 L 3.09375 -26.96875 L 3.09375 -33.546875 L 24.484375 -33.546875 Z M 24.484375 -30.265625 "/></g></g><g style="fill:#c0884e;fill-opacity:1;"><g transform="translate(202.4117, 90.83841)"><path style="stroke:none" d="M 24.484375 -30.265625 L 11.734375 -6.578125 L 23.890625 -6.578125 L 23.890625 0 L 1.671875 0 L 1.671875 -3.21875 L 14.421875 -26.96875 L 3.09375 -26.96875 L 3.09375 -33.546875 L 24.484375 -33.546875 Z M 24.484375 -30.265625 "/></g></g><g style="fill:#c0884e;fill-opacity:1;"><g transform="translate(227.432517, 90.83841)"><path style="stroke:none" d="M 13.828125 -34.6875 L 15.234375 -34.6875 C 17.203125 -34.6875 19 -34.203125 20.625 -33.234375 C 22.257812 -32.273438 23.554688 -30.976562 24.515625 -29.34375 C 25.484375 -27.71875 25.96875 -25.898438 25.96875 -23.890625 L 25.96875 0 L 21.46875 0 L 20.390625 -1.46875 L 19.921875 -1.46875 C 19.335938 -0.707031 18.351562 -0.0820312 16.96875 0.40625 C 15.582031 0.894531 14.0625 1.140625 12.40625 1.140625 C 10.53125 1.140625 8.773438 0.789062 7.140625 0.09375 C 5.515625 -0.59375 4.195312 -1.675781 3.1875 -3.15625 C 2.175781 -4.632812 1.671875 -6.515625 1.671875 -8.796875 L 1.671875 -9.59375 C 1.671875 -11.46875 2.273438 -13.050781 3.484375 -14.34375 C 4.691406 -15.644531 6.191406 -16.742188 7.984375 -17.640625 C 9.773438 -18.535156 11.597656 -19.273438 13.453125 -19.859375 C 15.304688 -20.441406 16.90625 -20.929688 18.25 -21.328125 L 18.25 -24.359375 C 18.25 -25.296875 17.898438 -26.109375 17.203125 -26.796875 C 16.515625 -27.492188 15.703125 -27.84375 14.765625 -27.84375 L 14.296875 -27.84375 C 13.304688 -27.84375 12.453125 -27.492188 11.734375 -26.796875 C 11.023438 -26.109375 10.671875 -25.296875 10.671875 -24.359375 L 10.671875 -21.609375 L 3.015625 -21.609375 L 3.015625 -23.890625 C 3.015625 -25.859375 3.492188 -27.65625 4.453125 -29.28125 C 5.421875 -30.914062 6.734375 -32.222656 8.390625 -33.203125 C 10.046875 -34.191406 11.859375 -34.6875 13.828125 -34.6875 Z M 18.25 -9.1875 L 18.25 -15.03125 C 16.769531 -14.445312 15.359375 -13.972656 14.015625 -13.609375 C 12.679688 -13.253906 11.585938 -12.71875 10.734375 -12 C 9.878906 -11.289062 9.453125 -10.109375 9.453125 -8.453125 L 9.453125 -7.78125 C 9.453125 -7.019531 9.707031 -6.484375 10.21875 -6.171875 C 10.738281 -5.859375 11.648438 -5.703125 12.953125 -5.703125 L 14.765625 -5.703125 C 15.703125 -5.703125 16.515625 -6.035156 17.203125 -6.703125 C 17.898438 -7.378906 18.25 -8.207031 18.25 -9.1875 Z M 18.25 -9.1875 "/></g></g><g style="fill:#c0884e;fill-opacity:1;"><g transform="translate(255.606125, 90.83841)"><path style="stroke:none" d=""/></g></g><g style="fill:#c0884e;fill-opacity:1;"><g transform="translate(272.241882, 90.83841)"><path style="stroke:none" d="M 15.5625 -17.515625 L 16.171875 -17.515625 L 21.734375 -46.96875 L 30.0625 -46.96875 L 20.390625 0 L 11.34375 0 L 1.671875 -46.96875 L 10 -46.96875 Z M 15.5625 -17.515625 "/></g></g><g style="fill:#c0884e;fill-opacity:1;"><g transform="translate(301.824086, 90.83841)"><path style="stroke:none" d="M 13.828125 -34.6875 L 15.234375 -34.6875 C 17.203125 -34.6875 19 -34.203125 20.625 -33.234375 C 22.257812 -32.273438 23.554688 -30.976562 24.515625 -29.34375 C 25.484375 -27.71875 25.96875 -25.898438 25.96875 -23.890625 L 25.96875 0 L 21.46875 0 L 20.390625 -1.46875 L 19.921875 -1.46875 C 19.335938 -0.707031 18.351562 -0.0820312 16.96875 0.40625 C 15.582031 0.894531 14.0625 1.140625 12.40625 1.140625 C 10.53125 1.140625 8.773438 0.789062 7.140625 0.09375 C 5.515625 -0.59375 4.195312 -1.675781 3.1875 -3.15625 C 2.175781 -4.632812 1.671875 -6.515625 1.671875 -8.796875 L 1.671875 -9.59375 C 1.671875 -11.46875 2.273438 -13.050781 3.484375 -14.34375 C 4.691406 -15.644531 6.191406 -16.742188 7.984375 -17.640625 C 9.773438 -18.535156 11.597656 -19.273438 13.453125 -19.859375 C 15.304688 -20.441406 16.90625 -20.929688 18.25 -21.328125 L 18.25 -24.359375 C 18.25 -25.296875 17.898438 -26.109375 17.203125 -26.796875 C 16.515625 -27.492188 15.703125 -27.84375 14.765625 -27.84375 L 14.296875 -27.84375 C 13.304688 -27.84375 12.453125 -27.492188 11.734375 -26.796875 C 11.023438 -26.109375 10.671875 -25.296875 10.671875 -24.359375 L 10.671875 -21.609375 L 3.015625 -21.609375 L 3.015625 -23.890625 C 3.015625 -25.859375 3.492188 -27.65625 4.453125 -29.28125 C 5.421875 -30.914062 6.734375 -32.222656 8.390625 -33.203125 C 10.046875 -34.191406 11.859375 -34.6875 13.828125 -34.6875 Z M 18.25 -9.1875 L 18.25 -15.03125 C 16.769531 -14.445312 15.359375 -13.972656 14.015625 -13.609375 C 12.679688 -13.253906 11.585938 -12.71875 10.734375 -12 C 9.878906 -11.289062 9.453125 -10.109375 9.453125 -8.453125 L 9.453125 -7.78125 C 9.453125 -7.019531 9.707031 -6.484375 10.21875 -6.171875 C 10.738281 -5.859375 11.648438 -5.703125 12.953125 -5.703125 L 14.765625 -5.703125 C 15.703125 -5.703125 16.515625 -6.035156 17.203125 -6.703125 C 17.898438 -7.378906 18.25 -8.207031 18.25 -9.1875 Z M 18.25 -9.1875 "/></g></g><g style="fill:#c0884e;fill-opacity:1;"><g transform="translate(329.662254, 90.83841)"><path style="stroke:none" d="M 11.734375 0 L 4.03125 0 L 4.03125 -46.96875 L 11.734375 -46.96875 Z M 11.734375 0 "/></g></g><g style="fill:#c0884e;fill-opacity:1;"><g transform="translate(343.950177, 90.83841)"><path style="stroke:none" d="M 19.1875 -11.609375 L 19.1875 -33.546875 L 26.90625 -33.546875 L 26.90625 0 L 20.265625 0 L 20.265625 -1.46875 L 19.65625 -1.46875 C 19.070312 -0.707031 18.097656 -0.0820312 16.734375 0.40625 C 15.367188 0.894531 14.175781 1.140625 13.15625 1.140625 L 12.484375 1.140625 C 9.753906 1.140625 7.550781 0.210938 5.875 -1.640625 C 4.195312 -3.492188 3.359375 -5.988281 3.359375 -9.125 L 3.359375 -33.546875 L 11.078125 -33.546875 L 11.078125 -11.8125 C 11.078125 -10.875 11.117188 -9.929688 11.203125 -8.984375 C 11.296875 -8.046875 11.609375 -7.265625 12.140625 -6.640625 C 12.679688 -6.015625 13.625 -5.703125 14.96875 -5.703125 C 16.488281 -5.703125 17.570312 -6.179688 18.21875 -7.140625 C 18.863281 -8.109375 19.1875 -9.597656 19.1875 -11.609375 Z M 19.1875 -11.609375 "/></g></g><g style="fill:#c0884e;fill-opacity:1;"><g transform="translate(373.398282, 90.83841)"><path style="stroke:none" d="M 27.84375 -23.890625 L 27.84375 -15.234375 L 11.078125 -15.234375 L 11.078125 -9.1875 C 11.078125 -8.207031 11.421875 -7.378906 12.109375 -6.703125 C 12.804688 -6.035156 13.625 -5.703125 14.5625 -5.703125 L 16.578125 -5.703125 C 17.515625 -5.703125 18.328125 -6.035156 19.015625 -6.703125 C 19.710938 -7.378906 20.0625 -8.207031 20.0625 -9.1875 L 20.0625 -11.9375 L 27.84375 -11.9375 L 27.84375 -9.65625 C 27.84375 -7.6875 27.347656 -5.875 26.359375 -4.21875 C 25.378906 -2.570312 24.070312 -1.265625 22.4375 -0.296875 C 20.8125 0.660156 19.015625 1.140625 17.046875 1.140625 L 14.09375 1.140625 C 12.125 1.140625 10.320312 0.660156 8.6875 -0.296875 C 7.050781 -1.265625 5.753906 -2.570312 4.796875 -4.21875 C 3.835938 -5.875 3.359375 -7.6875 3.359375 -9.65625 L 3.359375 -23.890625 C 3.359375 -25.859375 3.835938 -27.65625 4.796875 -29.28125 C 5.753906 -30.914062 7.050781 -32.222656 8.6875 -33.203125 C 10.320312 -34.191406 12.125 -34.6875 14.09375 -34.6875 L 17.046875 -34.6875 C 19.015625 -34.6875 20.8125 -34.191406 22.4375 -33.203125 C 24.070312 -32.222656 25.378906 -30.914062 26.359375 -29.28125 C 27.347656 -27.65625 27.84375 -25.859375 27.84375 -23.890625 Z M 11.078125 -24.359375 L 11.078125 -20.46875 L 20.0625 -20.46875 L 20.0625 -24.359375 C 20.0625 -25.296875 19.710938 -26.109375 19.015625 -26.796875 C 18.328125 -27.492188 17.515625 -27.84375 16.578125 -27.84375 L 14.5625 -27.84375 C 13.625 -27.84375 12.804688 -27.492188 12.109375 -26.796875 C 11.421875 -26.109375 11.078125 -25.296875 11.078125 -24.359375 Z M 11.078125 -24.359375 "/></g></g><g style="fill:#c0884e;fill-opacity:1;"><g transform="translate(402.108548, 90.83841)"><path style="stroke:none" d=""/></g></g><g style="fill:#c0884e;fill-opacity:1;"><g transform="translate(418.744316, 90.83841)"><path style="stroke:none" d="M 16.234375 -48.109375 L 18.65625 -48.109375 C 20.882812 -48.109375 22.925781 -47.554688 24.78125 -46.453125 C 26.644531 -45.359375 28.125 -43.882812 29.21875 -42.03125 C 30.3125 -40.175781 30.859375 -38.128906 30.859375 -35.890625 L 30.859375 -30.125 L 22.140625 -30.125 L 22.140625 -36.4375 C 22.140625 -37.507812 21.75 -38.4375 20.96875 -39.21875 C 20.1875 -40 19.257812 -40.390625 18.1875 -40.390625 L 16.703125 -40.390625 C 15.585938 -40.390625 14.648438 -40 13.890625 -39.21875 C 13.128906 -38.4375 12.75 -37.507812 12.75 -36.4375 L 12.75 -10.53125 C 12.75 -9.457031 13.128906 -8.53125 13.890625 -7.75 C 14.648438 -6.96875 15.585938 -6.578125 16.703125 -6.578125 L 18.1875 -6.578125 C 19.257812 -6.578125 20.1875 -6.96875 20.96875 -7.75 C 21.75 -8.53125 22.140625 -9.457031 22.140625 -10.53125 L 22.140625 -16.84375 L 30.859375 -16.84375 L 30.859375 -11.078125 C 30.859375 -8.835938 30.3125 -6.785156 29.21875 -4.921875 C 28.125 -3.066406 26.644531 -1.59375 24.78125 -0.5 C 22.925781 0.59375 20.882812 1.140625 18.65625 1.140625 L 16.234375 1.140625 C 13.992188 1.140625 11.945312 0.59375 10.09375 -0.5 C 8.238281 -1.59375 6.765625 -3.066406 5.671875 -4.921875 C 4.578125 -6.785156 4.03125 -8.835938 4.03125 -11.078125 L 4.03125 -35.890625 C 4.03125 -38.128906 4.578125 -40.175781 5.671875 -42.03125 C 6.765625 -43.882812 8.238281 -45.359375 10.09375 -46.453125 C 11.945312 -47.554688 13.992188 -48.109375 16.234375 -48.109375 Z M 16.234375 -48.109375 "/></g></g><g style="fill:#c0884e;fill-opacity:1;"><g transform="translate(451.814889, 90.83841)"><path style="stroke:none" d="M 13.828125 -34.6875 L 15.234375 -34.6875 C 17.203125 -34.6875 19 -34.203125 20.625 -33.234375 C 22.257812 -32.273438 23.554688 -30.976562 24.515625 -29.34375 C 25.484375 -27.71875 25.96875 -25.898438 25.96875 -23.890625 L 25.96875 0 L 21.46875 0 L 20.390625 -1.46875 L 19.921875 -1.46875 C 19.335938 -0.707031 18.351562 -0.0820312 16.96875 0.40625 C 15.582031 0.894531 14.0625 1.140625 12.40625 1.140625 C 10.53125 1.140625 8.773438 0.789062 7.140625 0.09375 C 5.515625 -0.59375 4.195312 -1.675781 3.1875 -3.15625 C 2.175781 -4.632812 1.671875 -6.515625 1.671875 -8.796875 L 1.671875 -9.59375 C 1.671875 -11.46875 2.273438 -13.050781 3.484375 -14.34375 C 4.691406 -15.644531 6.191406 -16.742188 7.984375 -17.640625 C 9.773438 -18.535156 11.597656 -19.273438 13.453125 -19.859375 C 15.304688 -20.441406 16.90625 -20.929688 18.25 -21.328125 L 18.25 -24.359375 C 18.25 -25.296875 17.898438 -26.109375 17.203125 -26.796875 C 16.515625 -27.492188 15.703125 -27.84375 14.765625 -27.84375 L 14.296875 -27.84375 C 13.304688 -27.84375 12.453125 -27.492188 11.734375 -26.796875 C 11.023438 -26.109375 10.671875 -25.296875 10.671875 -24.359375 L 10.671875 -21.609375 L 3.015625 -21.609375 L 3.015625 -23.890625 C 3.015625 -25.859375 3.492188 -27.65625 4.453125 -29.28125 C 5.421875 -30.914062 6.734375 -32.222656 8.390625 -33.203125 C 10.046875 -34.191406 11.859375 -34.6875 13.828125 -34.6875 Z M 18.25 -9.1875 L 18.25 -15.03125 C 16.769531 -14.445312 15.359375 -13.972656 14.015625 -13.609375 C 12.679688 -13.253906 11.585938 -12.71875 10.734375 -12 C 9.878906 -11.289062 9.453125 -10.109375 9.453125 -8.453125 L 9.453125 -7.78125 C 9.453125 -7.019531 9.707031 -6.484375 10.21875 -6.171875 C 10.738281 -5.859375 11.648438 -5.703125 12.953125 -5.703125 L 14.765625 -5.703125 C 15.703125 -5.703125 16.515625 -6.035156 17.203125 -6.703125 C 17.898438 -7.378906 18.25 -8.207031 18.25 -9.1875 Z M 18.25 -9.1875 "/></g></g><g style="fill:#c0884e;fill-opacity:1;"><g transform="translate(479.653056, 90.83841)"><path style="stroke:none" d="M 11.734375 0 L 4.03125 0 L 4.03125 -46.96875 L 11.734375 -46.96875 Z M 11.734375 0 "/></g></g><g style="fill:#c0884e;fill-opacity:1;"><g transform="translate(493.94098, 90.83841)"><path style="stroke:none" d="M 14.15625 -34.6875 L 17.046875 -34.6875 C 19.015625 -34.6875 20.8125 -34.191406 22.4375 -33.203125 C 24.070312 -32.222656 25.378906 -30.914062 26.359375 -29.28125 C 27.347656 -27.65625 27.84375 -25.859375 27.84375 -23.890625 L 27.84375 -21.609375 L 20.0625 -21.609375 L 20.0625 -24.359375 C 20.0625 -25.296875 19.710938 -26.109375 19.015625 -26.796875 C 18.328125 -27.492188 17.515625 -27.84375 16.578125 -27.84375 L 14.625 -27.84375 C 13.644531 -27.84375 12.816406 -27.492188 12.140625 -26.796875 C 11.472656 -26.109375 11.140625 -25.296875 11.140625 -24.359375 L 11.140625 -9.1875 C 11.140625 -8.207031 11.472656 -7.378906 12.140625 -6.703125 C 12.816406 -6.035156 13.644531 -5.703125 14.625 -5.703125 L 16.578125 -5.703125 C 17.515625 -5.703125 18.328125 -6.035156 19.015625 -6.703125 C 19.710938 -7.378906 20.0625 -8.207031 20.0625 -9.1875 L 20.0625 -11.9375 L 27.84375 -11.9375 L 27.84375 -9.65625 C 27.84375 -7.6875 27.347656 -5.875 26.359375 -4.21875 C 25.378906 -2.570312 24.070312 -1.265625 22.4375 -0.296875 C 20.8125 0.660156 19.015625 1.140625 17.046875 1.140625 L 14.15625 1.140625 C 12.1875 1.140625 10.375 0.660156 8.71875 -0.296875 C 7.0625 -1.265625 5.753906 -2.570312 4.796875 -4.21875 C 3.835938 -5.875 3.359375 -7.6875 3.359375 -9.65625 L 3.359375 -23.890625 C 3.359375 -25.859375 3.835938 -27.65625 4.796875 -29.28125 C 5.753906 -30.914062 7.0625 -32.222656 8.71875 -33.203125 C 10.375 -34.191406 12.1875 -34.6875 14.15625 -34.6875 Z M 14.15625 -34.6875 "/></g></g><g style="fill:#c0884e;fill-opacity:1;"><g transform="translate(522.315839, 90.83841)"><path style="stroke:none" d="M 19.1875 -11.609375 L 19.1875 -33.546875 L 26.90625 -33.546875 L 26.90625 0 L 20.265625 0 L 20.265625 -1.46875 L 19.65625 -1.46875 C 19.070312 -0.707031 18.097656 -0.0820312 16.734375 0.40625 C 15.367188 0.894531 14.175781 1.140625 13.15625 1.140625 L 12.484375 1.140625 C 9.753906 1.140625 7.550781 0.210938 5.875 -1.640625 C 4.195312 -3.492188 3.359375 -5.988281 3.359375 -9.125 L 3.359375 -33.546875 L 11.078125 -33.546875 L 11.078125 -11.8125 C 11.078125 -10.875 11.117188 -9.929688 11.203125 -8.984375 C 11.296875 -8.046875 11.609375 -7.265625 12.140625 -6.640625 C 12.679688 -6.015625 13.625 -5.703125 14.96875 -5.703125 C 16.488281 -5.703125 17.570312 -6.179688 18.21875 -7.140625 C 18.863281 -8.109375 19.1875 -9.597656 19.1875 -11.609375 Z M 19.1875 -11.609375 "/></g></g><g style="fill:#c0884e;fill-opacity:1;"><g transform="translate(552.099396, 90.83841)"><path style="stroke:none" d="M 11.734375 0 L 4.03125 0 L 4.03125 -46.96875 L 11.734375 -46.96875 Z M 11.734375 0 "/></g></g><g style="fill:#c0884e;fill-opacity:1;"><g transform="translate(567.058133, 90.83841)"><path style="stroke:none" d="M 13.828125 -34.6875 L 15.234375 -34.6875 C 17.203125 -34.6875 19 -34.203125 20.625 -33.234375 C 22.257812 -32.273438 23.554688 -30.976562 24.515625 -29.34375 C 25.484375 -27.71875 25.96875 -25.898438 25.96875 -23.890625 L 25.96875 0 L 21.46875 0 L 20.390625 -1.46875 L 19.921875 -1.46875 C 19.335938 -0.707031 18.351562 -0.0820312 16.96875 0.40625 C 15.582031 0.894531 14.0625 1.140625 12.40625 1.140625 C 10.53125 1.140625 8.773438 0.789062 7.140625 0.09375 C 5.515625 -0.59375 4.195312 -1.675781 3.1875 -3.15625 C 2.175781 -4.632812 1.671875 -6.515625 1.671875 -8.796875 L 1.671875 -9.59375 C 1.671875 -11.46875 2.273438 -13.050781 3.484375 -14.34375 C 4.691406 -15.644531 6.191406 -16.742188 7.984375 -17.640625 C 9.773438 -18.535156 11.597656 -19.273438 13.453125 -19.859375 C 15.304688 -20.441406 16.90625 -20.929688 18.25 -21.328125 L 18.25 -24.359375 C 18.25 -25.296875 17.898438 -26.109375 17.203125 -26.796875 C 16.515625 -27.492188 15.703125 -27.84375 14.765625 -27.84375 L 14.296875 -27.84375 C 13.304688 -27.84375 12.453125 -27.492188 11.734375 -26.796875 C 11.023438 -26.109375 10.671875 -25.296875 10.671875 -24.359375 L 10.671875 -21.609375 L 3.015625 -21.609375 L 3.015625 -23.890625 C 3.015625 -25.859375 3.492188 -27.65625 4.453125 -29.28125 C 5.421875 -30.914062 6.734375 -32.222656 8.390625 -33.203125 C 10.046875 -34.191406 11.859375 -34.6875 13.828125 -34.6875 Z M 18.25 -9.1875 L 18.25 -15.03125 C 16.769531 -14.445312 15.359375 -13.972656 14.015625 -13.609375 C 12.679688 -13.253906 11.585938 -12.71875 10.734375 -12 C 9.878906 -11.289062 9.453125 -10.109375 9.453125 -8.453125 L 9.453125 -7.78125 C 9.453125 -7.019531 9.707031 -6.484375 10.21875 -6.171875 C 10.738281 -5.859375 11.648438 -5.703125 12.953125 -5.703125 L 14.765625 -5.703125 C 15.703125 -5.703125 16.515625 -6.035156 17.203125 -6.703125 C 17.898438 -7.378906 18.25 -8.207031 18.25 -9.1875 Z M 18.25 -9.1875 "/></g></g><g style="fill:#c0884e;fill-opacity:1;"><g transform="translate(594.896323, 90.83841)"><path style="stroke:none" d="M 17.71875 -8.25 L 17.71875 -11.9375 L 25.5 -11.9375 L 25.5 -8.71875 C 25.5 -6.925781 25.050781 -5.28125 24.15625 -3.78125 C 23.257812 -2.289062 22.070312 -1.097656 20.59375 -0.203125 C 19.125 0.691406 17.472656 1.140625 15.640625 1.140625 L 13.21875 1.140625 C 11.425781 1.140625 9.78125 0.691406 8.28125 -0.203125 C 6.78125 -1.097656 5.582031 -2.289062 4.6875 -3.78125 C 3.800781 -5.28125 3.359375 -6.925781 3.359375 -8.71875 L 3.359375 -44.34375 L 11.078125 -44.34375 L 11.078125 -33.546875 L 18.453125 -33.546875 L 18.453125 -26.96875 L 11.078125 -26.96875 L 11.078125 -8.25 C 11.078125 -7.53125 11.332031 -6.925781 11.84375 -6.4375 C 12.351562 -5.945312 12.96875 -5.703125 13.6875 -5.703125 L 15.15625 -5.703125 C 15.832031 -5.703125 16.425781 -5.945312 16.9375 -6.4375 C 17.457031 -6.925781 17.71875 -7.53125 17.71875 -8.25 Z M 17.71875 -8.25 "/></g></g><g style="fill:#c0884e;fill-opacity:1;"><g transform="translate(620.25257, 90.83841)"><path style="stroke:none" d="M 14.09375 -34.6875 L 17.046875 -34.6875 C 19.015625 -34.6875 20.8125 -34.203125 22.4375 -33.234375 C 24.070312 -32.273438 25.378906 -30.976562 26.359375 -29.34375 C 27.347656 -27.71875 27.84375 -25.898438 27.84375 -23.890625 L 27.84375 -9.65625 C 27.84375 -7.6875 27.347656 -5.875 26.359375 -4.21875 C 25.378906 -2.570312 24.070312 -1.265625 22.4375 -0.296875 C 20.8125 0.660156 19.015625 1.140625 17.046875 1.140625 L 14.09375 1.140625 C 12.125 1.140625 10.320312 0.660156 8.6875 -0.296875 C 7.050781 -1.265625 5.753906 -2.570312 4.796875 -4.21875 C 3.835938 -5.875 3.359375 -7.6875 3.359375 -9.65625 L 3.359375 -23.890625 C 3.359375 -25.898438 3.835938 -27.71875 4.796875 -29.34375 C 5.753906 -30.976562 7.050781 -32.273438 8.6875 -33.234375 C 10.320312 -34.203125 12.125 -34.6875 14.09375 -34.6875 Z M 20.0625 -9.1875 L 20.0625 -24.359375 C 20.0625 -25.335938 19.710938 -26.160156 19.015625 -26.828125 C 18.328125 -27.503906 17.515625 -27.84375 16.578125 -27.84375 L 14.625 -27.84375 C 13.644531 -27.84375 12.816406 -27.503906 12.140625 -26.828125 C 11.472656 -26.160156 11.140625 -25.335938 11.140625 -24.359375 L 11.140625 -9.1875 C 11.140625 -8.207031 11.472656 -7.378906 12.140625 -6.703125 C 12.816406 -6.035156 13.644531 -5.703125 14.625 -5.703125 L 16.578125 -5.703125 C 17.515625 -5.703125 18.328125 -6.035156 19.015625 -6.703125 C 19.710938 -7.378906 20.0625 -8.207031 20.0625 -9.1875 Z M 20.0625 -9.1875 "/></g></g><g style="fill:#c0884e;fill-opacity:1;"><g transform="translate(650.304415, 90.83841)"><path style="stroke:none" d="M 17.640625 -34.6875 L 17.90625 -34.6875 C 20.6875 -34.6875 22.898438 -33.742188 24.546875 -31.859375 C 26.203125 -29.984375 27.03125 -27.484375 27.03125 -24.359375 L 27.03125 -21.609375 L 19.65625 -21.609375 C 19.65625 -22.453125 19.609375 -23.351562 19.515625 -24.3125 C 19.429688 -25.28125 19.140625 -26.109375 18.640625 -26.796875 C 18.148438 -27.492188 17.304688 -27.84375 16.109375 -27.84375 C 13.191406 -27.84375 11.734375 -25.875 11.734375 -21.9375 L 11.734375 0 L 4.03125 0 L 4.03125 -33.546875 L 10.671875 -33.546875 L 10.671875 -32.078125 L 11.265625 -32.078125 C 11.898438 -32.835938 12.863281 -33.460938 14.15625 -33.953125 C 15.457031 -34.441406 16.617188 -34.6875 17.640625 -34.6875 Z M 17.640625 -34.6875 "/></g></g></g></svg>