<svg xmlns="http://www.w3.org/2000/svg" xmlns:xlink="http://www.w3.org/1999/xlink" width="1080" zoomAndPan="magnify" viewBox="0 0 810 193.499995" height="258" preserveAspectRatio="xMidYMid meet" version="1.2"><defs><clipPath id="c22befaed4"><path d="M 1.042969 0 L 162.625 0 L 162.625 192.511719 L 1.042969 192.511719 Z M 1.042969 0 "/></clipPath><clipPath id="a6685043a0"><path d="M 54.933594 188.601562 C 63.21875 190.867188 72.636719 192.355469 81.878906 192.355469 C 91.121094 192.355469 100.015625 191.082031 108.214844 188.8125 C 108.386719 188.742188 108.5625 188.742188 108.738281 188.671875 C 139.519531 179.597656 162.191406 155.640625 162.625 126.925781 L 162.625 0 L 1.042969 0 L 1.042969 126.832031 C 1.480469 155.78125 23.804688 179.742188 54.933594 188.601562 Z M 54.933594 188.601562 "/></clipPath><clipPath id="aa662f4905"><path d="M 162.625 0 L 324.207031 0 L 324.207031 192.511719 L 162.625 192.511719 Z M 162.625 0 "/></clipPath><clipPath id="fbd9e78f88"><path d="M 216.515625 188.601562 C 224.800781 190.867188 234.21875 192.355469 243.460938 192.355469 C 252.703125 192.355469 261.597656 191.082031 269.796875 188.8125 C 269.96875 188.742188 270.144531 188.742188 270.320312 188.671875 C 301.101562 179.597656 323.773438 155.640625 324.207031 126.925781 L 324.207031 0 L 162.625 0 L 162.625 126.832031 C 163.0625 155.78125 185.386719 179.742188 216.515625 188.601562 Z M 216.515625 188.601562 "/></clipPath><clipPath id="522e4e5645"><path d="M 324.207031 0 L 485.792969 0 L 485.792969 192.511719 L 324.207031 192.511719 Z M 324.207031 0 "/></clipPath><clipPath id="90b2776bad"><path d="M 378.097656 188.601562 C 386.382812 190.867188 395.800781 192.355469 405.042969 192.355469 C 414.285156 192.355469 423.179688 191.082031 431.378906 188.8125 C 431.550781 188.742188 431.726562 188.742188 431.902344 188.671875 C 462.683594 179.597656 485.355469 155.640625 485.792969 126.925781 L 485.792969 0 L 324.207031 0 L 324.207031 126.832031 C 324.644531 155.78125 346.96875 179.742188 378.097656 188.601562 Z M 378.097656 188.601562 "/></clipPath><clipPath id="34760acc97"><path d="M 485.792969 0 L 647.375 0 L 647.375 192.511719 L 485.792969 192.511719 Z M 485.792969 0 "/></clipPath><clipPath id="2b0667632b"><path d="M 539.679688 188.601562 C 547.964844 190.867188 557.382812 192.355469 566.625 192.355469 C 575.871094 192.355469 584.765625 191.082031 592.960938 188.8125 C 593.136719 188.742188 593.308594 188.742188 593.484375 188.671875 C 624.265625 179.597656 646.9375 155.640625 647.375 126.925781 L 647.375 0 L 485.792969 0 L 485.792969 126.832031 C 486.226562 155.78125 508.550781 179.742188 539.679688 188.601562 Z M 539.679688 188.601562 "/></clipPath><clipPath id="3a96d197dc"><path d="M 647.375 0 L 808.957031 0 L 808.957031 192.511719 L 647.375 192.511719 Z M 647.375 0 "/></clipPath><clipPath id="2125056cae"><path d="M 701.261719 188.601562 C 709.546875 190.867188 718.964844 192.355469 728.207031 192.355469 C 737.453125 192.355469 746.347656 191.082031 754.542969 188.8125 C 754.71875 188.742188 754.890625 188.742188 755.066406 188.671875 C 785.847656 179.597656 808.519531 155.640625 808.957031 126.925781 L 808.957031 0 L 647.375 0 L 647.375 126.832031 C 647.808594 155.78125 670.132812 179.742188 701.261719 188.601562 Z M 701.261719 188.601562 "/></clipPath></defs><g id="fb643ebaec"><g clip-rule="nonzero" clip-path="url(#c22befaed4)"><g clip-rule="nonzero" clip-path="url(#a6685043a0)"><path style=" stroke:none;fill-rule:nonzero;fill:#de542a;fill-opacity:1;" d="M 1.042969 0 L 162.625 0 L 162.625 192.511719 L 1.042969 192.511719 Z M 1.042969 0 "/></g></g><g clip-rule="nonzero" clip-path="url(#aa662f4905)"><g clip-rule="nonzero" clip-path="url(#fbd9e78f88)"><path style=" stroke:none;fill-rule:nonzero;fill:#fff7e1;fill-opacity:1;" d="M 162.625 0 L 324.207031 0 L 324.207031 192.511719 L 162.625 192.511719 Z M 162.625 0 "/></g></g><g clip-rule="nonzero" clip-path="url(#522e4e5645)"><g clip-rule="nonzero" clip-path="url(#90b2776bad)"><path style=" stroke:none;fill-rule:nonzero;fill:#de542a;fill-opacity:1;" d="M 324.207031 0 L 485.792969 0 L 485.792969 192.511719 L 324.207031 192.511719 Z M 324.207031 0 "/></g></g><g clip-rule="nonzero" clip-path="url(#34760acc97)"><g clip-rule="nonzero" clip-path="url(#2b0667632b)"><path style=" stroke:none;fill-rule:nonzero;fill:#fff7e1;fill-opacity:1;" d="M 485.792969 0 L 647.375 0 L 647.375 192.511719 L 485.792969 192.511719 Z M 485.792969 0 "/></g></g><g clip-rule="nonzero" clip-path="url(#3a96d197dc)"><g clip-rule="nonzero" clip-path="url(#2125056cae)"><path style=" stroke:none;fill-rule:nonzero;fill:#de542a;fill-opacity:1;" d="M 647.375 0 L 808.957031 0 L 808.957031 192.511719 L 647.375 192.511719 Z M 647.375 0 "/></g></g><g style="fill:#debe8e;fill-opacity:1;"><g transform="translate(124.575278, 88.02413)"><path style="stroke:none" d="M 4.921875 -55.835938 L 18.484375 -55.835938 C 22.035156 -55.835938 25.304688 -54.953125 28.289062 -53.191406 C 31.203125 -51.472656 33.523438 -49.167969 35.25 -46.277344 C 37.023438 -43.308594 37.914062 -40.042969 37.914062 -36.480469 L 37.984375 -26.050781 C 37.984375 -22.46875 37.101562 -19.1875 35.339844 -16.203125 C 33.617188 -13.289062 31.3125 -10.96875 28.425781 -9.242188 C 25.496094 -7.492188 22.273438 -6.582031 18.757812 -6.511719 L 13.777344 -6.511719 L 13.777344 -13.144531 L 20.410156 -13.179688 L 20.515625 6.582031 L -1.554688 6.757812 L -1.734375 -55.835938 Z M 4.921875 -42.566406 L 4.921875 -49.203125 L 11.554688 -49.222656 L 11.695312 0.0507812 L 5.0625 0.0703125 L 5.007812 -6.5625 L 13.792969 -6.632812 L 13.847656 0 L 7.210938 0.0351562 L 7.105469 -19.777344 L 18.492188 -19.777344 C 19.664062 -19.800781 20.707031 -20.085938 21.621094 -20.632812 C 22.574219 -21.203125 23.339844 -21.972656 23.914062 -22.949219 C 24.449219 -23.851562 24.714844 -24.855469 24.714844 -25.960938 L 24.644531 -36.480469 C 24.644531 -37.601562 24.382812 -38.601562 23.863281 -39.472656 C 23.292969 -40.425781 22.519531 -41.191406 21.542969 -41.765625 C 20.640625 -42.300781 19.621094 -42.566406 18.484375 -42.566406 Z M 13.777344 -27.507812 L 18.0625 -27.507812 C 17.765625 -27.507812 17.453125 -27.441406 17.128906 -27.308594 C 16.78125 -27.164062 16.492188 -26.96875 16.257812 -26.726562 C 16.058594 -26.523438 15.898438 -26.269531 15.773438 -25.964844 C 15.640625 -25.644531 15.578125 -25.332031 15.578125 -25.023438 L 15.507812 -37.285156 C 15.507812 -37.035156 15.570312 -36.757812 15.691406 -36.449219 C 15.832031 -36.109375 16.019531 -35.820312 16.253906 -35.585938 C 16.492188 -35.347656 16.78125 -35.160156 17.121094 -35.023438 C 17.425781 -34.898438 17.71875 -34.835938 17.992188 -34.835938 L 13.707031 -34.835938 L 13.707031 -41.46875 L 20.339844 -41.492188 L 20.410156 -20.898438 L 13.777344 -20.875 Z M 7.164062 -14.242188 L 7.050781 -48.105469 L 17.992188 -48.105469 C 19.441406 -48.105469 20.808594 -47.84375 22.097656 -47.320312 C 23.425781 -46.785156 24.601562 -46 25.636719 -44.964844 C 26.671875 -43.933594 27.457031 -42.753906 27.992188 -41.429688 C 28.515625 -40.136719 28.773438 -38.78125 28.773438 -37.359375 L 28.84375 -25.023438 C 28.84375 -23.589844 28.582031 -22.226562 28.050781 -20.933594 C 27.527344 -19.65625 26.769531 -18.507812 25.773438 -17.484375 C 24.742188 -16.421875 23.5625 -15.613281 22.230469 -15.058594 C 20.921875 -14.515625 19.535156 -14.242188 18.0625 -14.242188 Z M 7.164062 -14.242188 "/></g></g><g style="fill:#debe8e;fill-opacity:1;"><g transform="translate(157.186505, 88.02413)"><path style="stroke:none" d="M 8.855469 -31.742188 L 7.730469 -31.742188 C 6.269531 -31.742188 4.886719 -32.011719 3.582031 -32.550781 C 2.265625 -33.09375 1.089844 -33.882812 0.0546875 -34.917969 C -0.96875 -35.9375 -1.75 -37.089844 -2.289062 -38.375 C -2.84375 -39.683594 -3.121094 -41.066406 -3.121094 -42.523438 L -3.121094 -46.179688 C -3.121094 -47.648438 -2.847656 -49.039062 -2.300781 -50.347656 C -1.746094 -51.679688 -0.941406 -52.859375 0.121094 -53.890625 C 1.160156 -54.898438 2.332031 -55.664062 3.640625 -56.1875 C 4.929688 -56.703125 6.292969 -56.960938 7.730469 -56.960938 L 8.855469 -56.960938 C 10.289062 -56.960938 11.652344 -56.695312 12.945312 -56.167969 C 14.222656 -55.644531 15.371094 -54.882812 16.394531 -53.890625 C 17.457031 -52.859375 18.265625 -51.679688 18.820312 -50.347656 C 19.363281 -49.039062 19.636719 -47.648438 19.636719 -46.179688 L 19.636719 -42.523438 C 19.636719 -41.066406 19.359375 -39.683594 18.808594 -38.375 C 18.265625 -37.089844 17.484375 -35.9375 16.464844 -34.917969 C 15.441406 -33.894531 14.289062 -33.113281 13.007812 -32.570312 C 11.695312 -32.019531 10.3125 -31.742188 8.855469 -31.742188 Z M 8.855469 -45.011719 C 8.523438 -45.011719 8.1875 -44.941406 7.851562 -44.796875 C 7.539062 -44.667969 7.285156 -44.5 7.082031 -44.296875 C 6.878906 -44.097656 6.714844 -43.839844 6.582031 -43.53125 C 6.441406 -43.191406 6.371094 -42.855469 6.371094 -42.523438 L 6.371094 -46.179688 C 6.371094 -45.878906 6.4375 -45.570312 6.570312 -45.246094 C 6.714844 -44.898438 6.910156 -44.609375 7.152344 -44.375 C 7.355469 -44.175781 7.609375 -44.015625 7.914062 -43.890625 C 8.234375 -43.757812 8.546875 -43.691406 8.855469 -43.691406 L 7.730469 -43.691406 C 7.996094 -43.691406 8.277344 -43.75 8.570312 -43.867188 C 8.882812 -43.992188 9.148438 -44.160156 9.367188 -44.375 C 9.609375 -44.609375 9.800781 -44.898438 9.945312 -45.246094 C 10.082031 -45.570312 10.148438 -45.878906 10.148438 -46.179688 L 10.148438 -42.523438 C 10.148438 -42.855469 10.078125 -43.191406 9.933594 -43.53125 C 9.804688 -43.839844 9.636719 -44.097656 9.433594 -44.296875 C 9.21875 -44.515625 8.953125 -44.6875 8.632812 -44.820312 C 8.320312 -44.949219 8.019531 -45.011719 7.730469 -45.011719 Z M 4.21875 -41.777344 L 18.933594 -41.777344 L 18.933594 6.632812 L -2.417969 6.632812 L -2.417969 -41.777344 Z M 4.21875 -28.511719 L 4.21875 -35.144531 L 10.851562 -35.144531 L 10.851562 0 L 4.21875 0 L 4.21875 -6.632812 L 12.300781 -6.632812 L 12.300781 0 L 5.667969 0 L 5.667969 -35.144531 L 12.300781 -35.144531 L 12.300781 -28.511719 Z M 4.21875 -28.511719 "/></g></g><g style="fill:#debe8e;fill-opacity:1;"><g transform="translate(172.508054, 88.02413)"><path style="stroke:none" d="M 31.496094 -28.554688 L 18.140625 -3.742188 L 12.300781 -6.886719 L 12.300781 -13.523438 L 31.65625 -13.523438 L 31.65625 6.632812 L -4.875 6.632812 L -4.875 -5.042969 L 9.265625 -31.394531 L 15.113281 -28.257812 L 15.113281 -21.621094 L -3.402344 -21.621094 L -3.402344 -41.777344 L 32.289062 -41.777344 L 32.289062 -30.027344 Z M 19.8125 -34.84375 L 25.65625 -31.699219 L 19.019531 -31.699219 L 19.019531 -35.144531 L 25.65625 -35.144531 L 25.65625 -28.511719 L 3.234375 -28.511719 L 3.234375 -35.144531 L 9.867188 -35.144531 L 9.867188 -28.257812 L 3.234375 -28.257812 L 3.234375 -34.890625 L 26.203125 -34.890625 L 7.601562 -0.238281 L 1.757812 -3.375 L 8.390625 -3.375 L 8.390625 0 L 1.757812 0 L 1.757812 -6.632812 L 25.023438 -6.632812 L 25.023438 0 L 18.386719 0 L 18.386719 -6.886719 L 25.023438 -6.886719 L 25.023438 -0.253906 L 1.195312 -0.253906 Z M 19.8125 -34.84375 "/></g></g><g style="fill:#debe8e;fill-opacity:1;"><g transform="translate(198.723512, 88.02413)"><path style="stroke:none" d="M 31.496094 -28.554688 L 18.140625 -3.742188 L 12.300781 -6.886719 L 12.300781 -13.523438 L 31.65625 -13.523438 L 31.65625 6.632812 L -4.875 6.632812 L -4.875 -5.042969 L 9.265625 -31.394531 L 15.113281 -28.257812 L 15.113281 -21.621094 L -3.402344 -21.621094 L -3.402344 -41.777344 L 32.289062 -41.777344 L 32.289062 -30.027344 Z M 19.8125 -34.84375 L 25.65625 -31.699219 L 19.019531 -31.699219 L 19.019531 -35.144531 L 25.65625 -35.144531 L 25.65625 -28.511719 L 3.234375 -28.511719 L 3.234375 -35.144531 L 9.867188 -35.144531 L 9.867188 -28.257812 L 3.234375 -28.257812 L 3.234375 -34.890625 L 26.203125 -34.890625 L 7.601562 -0.238281 L 1.757812 -3.375 L 8.390625 -3.375 L 8.390625 0 L 1.757812 0 L 1.757812 -6.632812 L 25.023438 -6.632812 L 25.023438 0 L 18.386719 0 L 18.386719 -6.886719 L 25.023438 -6.886719 L 25.023438 -0.253906 L 1.195312 -0.253906 Z M 19.8125 -34.84375 "/></g></g><g style="fill:#debe8e;fill-opacity:1;"><g transform="translate(224.938969, 88.02413)"><path style="stroke:none" d="M 14.480469 -42.972656 L 15.957031 -42.972656 C 19.222656 -42.972656 22.230469 -42.164062 24.980469 -40.542969 C 27.675781 -38.957031 29.820312 -36.8125 31.40625 -34.117188 C 33.027344 -31.367188 33.835938 -28.335938 33.835938 -25.023438 L 33.835938 6.632812 L 19.113281 6.632812 L 16.003906 2.355469 L 21.367188 -1.546875 L 21.367188 5.085938 L 20.875 5.085938 L 20.875 -1.546875 L 26.144531 2.484375 C 24.738281 4.324219 22.691406 5.71875 20 6.675781 C 17.832031 7.445312 15.5 7.828125 13.003906 7.828125 C 10.136719 7.828125 7.429688 7.289062 4.894531 6.210938 C 1.988281 4.976562 -0.355469 3.050781 -2.140625 0.433594 C -3.964844 -2.238281 -4.875 -5.453125 -4.875 -9.207031 L -4.875 -10.050781 C -4.875 -13.757812 -3.652344 -16.929688 -1.199219 -19.5625 C 0.609375 -21.507812 2.808594 -23.125 5.398438 -24.417969 C 7.589844 -25.515625 9.828125 -26.421875 12.109375 -27.136719 C 14.078125 -27.753906 15.78125 -28.277344 17.210938 -28.707031 L 19.117188 -22.351562 L 12.484375 -22.351562 L 12.484375 -25.515625 C 12.484375 -25.105469 12.570312 -24.703125 12.738281 -24.300781 C 12.894531 -23.9375 13.09375 -23.632812 13.339844 -23.390625 C 13.582031 -23.144531 13.886719 -22.945312 14.25 -22.792969 C 14.652344 -22.621094 15.054688 -22.535156 15.464844 -22.535156 L 14.972656 -22.535156 C 15.324219 -22.535156 15.679688 -22.609375 16.035156 -22.753906 C 16.382812 -22.894531 16.675781 -23.082031 16.917969 -23.316406 C 17.164062 -23.558594 17.371094 -23.863281 17.53125 -24.230469 C 17.71875 -24.652344 17.808594 -25.078125 17.808594 -25.515625 L 17.808594 -16 L -3.472656 -16 L -3.472656 -25.023438 C -3.472656 -28.289062 -2.660156 -31.296875 -1.042969 -34.046875 C 0.542969 -36.734375 2.6875 -38.882812 5.394531 -40.496094 C 8.175781 -42.148438 11.203125 -42.972656 14.480469 -42.972656 Z M 14.480469 -29.703125 C 13.632812 -29.703125 12.867188 -29.5 12.175781 -29.089844 C 11.417969 -28.640625 10.820312 -28.046875 10.390625 -27.3125 C 9.996094 -26.640625 9.796875 -25.878906 9.796875 -25.023438 L 9.796875 -22.632812 L 3.164062 -22.632812 L 3.164062 -29.265625 L 11.175781 -29.265625 L 11.175781 -22.632812 L 4.542969 -22.632812 L 4.542969 -25.515625 C 4.542969 -26.933594 4.820312 -28.28125 5.382812 -29.558594 C 5.917969 -30.78125 6.683594 -31.878906 7.683594 -32.84375 C 8.675781 -33.804688 9.789062 -34.535156 11.023438 -35.039062 C 12.273438 -35.550781 13.589844 -35.804688 14.972656 -35.804688 L 15.464844 -35.804688 C 16.855469 -35.804688 18.179688 -35.535156 19.4375 -35.003906 C 20.65625 -34.484375 21.75 -33.742188 22.71875 -32.769531 C 23.691406 -31.800781 24.433594 -30.707031 24.953125 -29.488281 C 25.484375 -28.230469 25.753906 -26.90625 25.753906 -25.515625 L 25.753906 -17.414062 L 21.023438 -15.996094 C 19.644531 -15.582031 17.996094 -15.074219 16.074219 -14.476562 C 14.46875 -13.972656 12.886719 -13.332031 11.332031 -12.550781 C 10.171875 -11.972656 9.230469 -11.296875 8.511719 -10.519531 C 8.46875 -10.476562 8.441406 -10.441406 8.433594 -10.417969 C 8.40625 -10.34375 8.390625 -10.222656 8.390625 -10.050781 L 8.390625 -9.207031 C 8.390625 -8.183594 8.535156 -7.460938 8.820312 -7.039062 C 9.144531 -6.566406 9.5625 -6.21875 10.078125 -6 C 10.960938 -5.625 11.933594 -5.4375 13.003906 -5.4375 C 13.976562 -5.4375 14.828125 -5.570312 15.566406 -5.832031 C 15.816406 -5.921875 15.992188 -5.996094 16.082031 -6.054688 C 15.9375 -5.960938 15.777344 -5.800781 15.605469 -5.578125 L 17.597656 -8.179688 L 24.746094 -8.179688 L 27.859375 -3.902344 L 22.492188 0 L 22.492188 -6.632812 L 27.203125 -6.632812 L 27.203125 0 L 20.566406 0 L 20.566406 -25.023438 C 20.566406 -25.925781 20.371094 -26.710938 19.972656 -27.382812 C 19.546875 -28.109375 18.972656 -28.683594 18.246094 -29.113281 C 17.574219 -29.507812 16.8125 -29.703125 15.957031 -29.703125 Z M 12.484375 -9.628906 L 12.484375 -15.746094 L 19.117188 -15.746094 L 21.550781 -9.570312 C 19.765625 -8.871094 18.050781 -8.296875 16.398438 -7.859375 C 15.949219 -7.738281 15.65625 -7.621094 15.519531 -7.507812 C 15.984375 -7.898438 16.308594 -8.347656 16.488281 -8.847656 C 16.523438 -8.949219 16.546875 -9.023438 16.554688 -9.082031 C 16.546875 -9.035156 16.542969 -8.960938 16.542969 -8.855469 L 16.542969 -8.152344 C 16.542969 -8.761719 16.394531 -9.375 16.09375 -10 C 15.664062 -10.902344 15.019531 -11.613281 14.167969 -12.132812 C 13.71875 -12.40625 13.320312 -12.574219 12.964844 -12.632812 C 13.066406 -12.617188 13.265625 -12.609375 13.566406 -12.609375 L 15.464844 -12.609375 C 15.082031 -12.609375 14.703125 -12.53125 14.320312 -12.375 C 13.964844 -12.226562 13.660156 -12.035156 13.414062 -11.796875 C 13.125 -11.515625 12.898438 -11.171875 12.726562 -10.769531 C 12.566406 -10.382812 12.484375 -10.003906 12.484375 -9.628906 Z M 25.753906 -9.628906 C 25.753906 -8.226562 25.488281 -6.894531 24.964844 -5.644531 C 24.433594 -4.371094 23.660156 -3.246094 22.640625 -2.261719 C 21.667969 -1.320312 20.578125 -0.601562 19.363281 -0.101562 C 18.128906 0.40625 16.828125 0.660156 15.464844 0.660156 L 13.566406 0.660156 C 10.964844 0.660156 8.867188 0.171875 7.269531 -0.800781 C 5.878906 -1.644531 4.832031 -2.800781 4.128906 -4.265625 C 3.5625 -5.453125 3.277344 -6.75 3.277344 -8.152344 L 3.277344 -8.855469 C 3.277344 -10.492188 3.519531 -11.980469 4 -13.328125 C 4.625 -15.070312 5.617188 -16.511719 6.972656 -17.65625 C 8.617188 -19.042969 10.621094 -20.050781 12.980469 -20.679688 C 14.140625 -20.988281 15.375 -21.402344 16.6875 -21.917969 L 25.753906 -25.488281 Z M 25.753906 -9.628906 "/></g></g><g style="fill:#debe8e;fill-opacity:1;"><g transform="translate(254.457742, 88.02413)"><path style="stroke:none" d=""/></g></g><g style="fill:#debe8e;fill-opacity:1;"><g transform="translate(271.887796, 88.02413)"><path style="stroke:none" d="M 16.308594 -24.980469 L 16.941406 -24.980469 L 16.941406 -18.34375 L 10.421875 -19.578125 L 17.277344 -55.835938 L 39.625 -55.835938 L 26.777344 6.632812 L 6.46875 6.632812 L -6.378906 -55.835938 L 15.96875 -55.835938 L 22.824219 -19.578125 L 16.308594 -18.34375 Z M 10.808594 -11.710938 L 3.953125 -47.96875 L 10.472656 -49.203125 L 10.472656 -42.566406 L 1.757812 -42.566406 L 1.757812 -49.203125 L 8.253906 -50.539062 L 18.375 -1.335938 L 11.878906 0 L 11.878906 -6.632812 L 21.367188 -6.632812 L 21.367188 0 L 14.871094 -1.335938 L 24.992188 -50.539062 L 31.488281 -49.203125 L 31.488281 -42.566406 L 22.773438 -42.566406 L 22.773438 -49.203125 L 29.292969 -47.96875 L 22.4375 -11.710938 Z M 10.808594 -11.710938 "/></g></g><g style="fill:#debe8e;fill-opacity:1;"><g transform="translate(302.882442, 88.02413)"><path style="stroke:none" d="M 14.480469 -42.972656 L 15.957031 -42.972656 C 19.222656 -42.972656 22.230469 -42.164062 24.980469 -40.542969 C 27.675781 -38.957031 29.820312 -36.8125 31.40625 -34.117188 C 33.027344 -31.367188 33.835938 -28.335938 33.835938 -25.023438 L 33.835938 6.632812 L 19.113281 6.632812 L 16.003906 2.355469 L 21.367188 -1.546875 L 21.367188 5.085938 L 20.875 5.085938 L 20.875 -1.546875 L 26.144531 2.484375 C 24.738281 4.324219 22.691406 5.71875 20 6.675781 C 17.832031 7.445312 15.5 7.828125 13.003906 7.828125 C 10.136719 7.828125 7.429688 7.289062 4.894531 6.210938 C 1.988281 4.976562 -0.355469 3.050781 -2.140625 0.433594 C -3.964844 -2.238281 -4.875 -5.453125 -4.875 -9.207031 L -4.875 -10.050781 C -4.875 -13.757812 -3.652344 -16.929688 -1.199219 -19.5625 C 0.609375 -21.507812 2.808594 -23.125 5.398438 -24.417969 C 7.589844 -25.515625 9.828125 -26.421875 12.109375 -27.136719 C 14.078125 -27.753906 15.78125 -28.277344 17.210938 -28.707031 L 19.117188 -22.351562 L 12.484375 -22.351562 L 12.484375 -25.515625 C 12.484375 -25.105469 12.570312 -24.703125 12.738281 -24.300781 C 12.894531 -23.9375 13.09375 -23.632812 13.339844 -23.390625 C 13.582031 -23.144531 13.886719 -22.945312 14.25 -22.792969 C 14.652344 -22.621094 15.054688 -22.535156 15.464844 -22.535156 L 14.972656 -22.535156 C 15.324219 -22.535156 15.679688 -22.609375 16.035156 -22.753906 C 16.382812 -22.894531 16.675781 -23.082031 16.917969 -23.316406 C 17.164062 -23.558594 17.371094 -23.863281 17.53125 -24.230469 C 17.71875 -24.652344 17.808594 -25.078125 17.808594 -25.515625 L 17.808594 -16 L -3.472656 -16 L -3.472656 -25.023438 C -3.472656 -28.289062 -2.660156 -31.296875 -1.042969 -34.046875 C 0.542969 -36.734375 2.6875 -38.882812 5.394531 -40.496094 C 8.175781 -42.148438 11.203125 -42.972656 14.480469 -42.972656 Z M 14.480469 -29.703125 C 13.632812 -29.703125 12.867188 -29.5 12.175781 -29.089844 C 11.417969 -28.640625 10.820312 -28.046875 10.390625 -27.3125 C 9.996094 -26.640625 9.796875 -25.878906 9.796875 -25.023438 L 9.796875 -22.632812 L 3.164062 -22.632812 L 3.164062 -29.265625 L 11.175781 -29.265625 L 11.175781 -22.632812 L 4.542969 -22.632812 L 4.542969 -25.515625 C 4.542969 -26.933594 4.820312 -28.28125 5.382812 -29.558594 C 5.917969 -30.78125 6.683594 -31.878906 7.683594 -32.84375 C 8.675781 -33.804688 9.789062 -34.535156 11.023438 -35.039062 C 12.273438 -35.550781 13.589844 -35.804688 14.972656 -35.804688 L 15.464844 -35.804688 C 16.855469 -35.804688 18.179688 -35.535156 19.4375 -35.003906 C 20.65625 -34.484375 21.75 -33.742188 22.71875 -32.769531 C 23.691406 -31.800781 24.433594 -30.707031 24.953125 -29.488281 C 25.484375 -28.230469 25.753906 -26.90625 25.753906 -25.515625 L 25.753906 -17.414062 L 21.023438 -15.996094 C 19.644531 -15.582031 17.996094 -15.074219 16.074219 -14.476562 C 14.46875 -13.972656 12.886719 -13.332031 11.332031 -12.550781 C 10.171875 -11.972656 9.230469 -11.296875 8.511719 -10.519531 C 8.46875 -10.476562 8.441406 -10.441406 8.433594 -10.417969 C 8.40625 -10.34375 8.390625 -10.222656 8.390625 -10.050781 L 8.390625 -9.207031 C 8.390625 -8.183594 8.535156 -7.460938 8.820312 -7.039062 C 9.144531 -6.566406 9.5625 -6.21875 10.078125 -6 C 10.960938 -5.625 11.933594 -5.4375 13.003906 -5.4375 C 13.976562 -5.4375 14.828125 -5.570312 15.566406 -5.832031 C 15.816406 -5.921875 15.992188 -5.996094 16.082031 -6.054688 C 15.9375 -5.960938 15.777344 -5.800781 15.605469 -5.578125 L 17.597656 -8.179688 L 24.746094 -8.179688 L 27.859375 -3.902344 L 22.492188 0 L 22.492188 -6.632812 L 27.203125 -6.632812 L 27.203125 0 L 20.566406 0 L 20.566406 -25.023438 C 20.566406 -25.925781 20.371094 -26.710938 19.972656 -27.382812 C 19.546875 -28.109375 18.972656 -28.683594 18.246094 -29.113281 C 17.574219 -29.507812 16.8125 -29.703125 15.957031 -29.703125 Z M 12.484375 -9.628906 L 12.484375 -15.746094 L 19.117188 -15.746094 L 21.550781 -9.570312 C 19.765625 -8.871094 18.050781 -8.296875 16.398438 -7.859375 C 15.949219 -7.738281 15.65625 -7.621094 15.519531 -7.507812 C 15.984375 -7.898438 16.308594 -8.347656 16.488281 -8.847656 C 16.523438 -8.949219 16.546875 -9.023438 16.554688 -9.082031 C 16.546875 -9.035156 16.542969 -8.960938 16.542969 -8.855469 L 16.542969 -8.152344 C 16.542969 -8.761719 16.394531 -9.375 16.09375 -10 C 15.664062 -10.902344 15.019531 -11.613281 14.167969 -12.132812 C 13.71875 -12.40625 13.320312 -12.574219 12.964844 -12.632812 C 13.066406 -12.617188 13.265625 -12.609375 13.566406 -12.609375 L 15.464844 -12.609375 C 15.082031 -12.609375 14.703125 -12.53125 14.320312 -12.375 C 13.964844 -12.226562 13.660156 -12.035156 13.414062 -11.796875 C 13.125 -11.515625 12.898438 -11.171875 12.726562 -10.769531 C 12.566406 -10.382812 12.484375 -10.003906 12.484375 -9.628906 Z M 25.753906 -9.628906 C 25.753906 -8.226562 25.488281 -6.894531 24.964844 -5.644531 C 24.433594 -4.371094 23.660156 -3.246094 22.640625 -2.261719 C 21.667969 -1.320312 20.578125 -0.601562 19.363281 -0.101562 C 18.128906 0.40625 16.828125 0.660156 15.464844 0.660156 L 13.566406 0.660156 C 10.964844 0.660156 8.867188 0.171875 7.269531 -0.800781 C 5.878906 -1.644531 4.832031 -2.800781 4.128906 -4.265625 C 3.5625 -5.453125 3.277344 -6.75 3.277344 -8.152344 L 3.277344 -8.855469 C 3.277344 -10.492188 3.519531 -11.980469 4 -13.328125 C 4.625 -15.070312 5.617188 -16.511719 6.972656 -17.65625 C 8.617188 -19.042969 10.621094 -20.050781 12.980469 -20.679688 C 14.140625 -20.988281 15.375 -21.402344 16.6875 -21.917969 L 25.753906 -25.488281 Z M 25.753906 -9.628906 "/></g></g><g style="fill:#debe8e;fill-opacity:1;"><g transform="translate(332.049759, 88.02413)"><path style="stroke:none" d="M -2.417969 -55.835938 L 18.933594 -55.835938 L 18.933594 6.632812 L -2.417969 6.632812 Z M -2.417969 -55.835938 "/></g></g><g style="fill:#debe8e;fill-opacity:1;"><g transform="translate(347.019865, 88.02413)"><path style="stroke:none" d="M 13.46875 -12.160156 L 13.46875 -41.777344 L 34.820312 -41.777344 L 34.820312 6.632812 L 14.59375 6.632812 L 14.59375 -1.546875 L 21.226562 -1.546875 L 21.226562 5.085938 L 20.59375 5.085938 L 20.59375 -1.546875 L 25.863281 2.484375 C 24.464844 4.3125 22.441406 5.707031 19.789062 6.664062 C 17.632812 7.441406 15.628906 7.828125 13.777344 7.828125 L 13.074219 7.828125 C 10.75 7.828125 8.601562 7.414062 6.625 6.578125 C 4.5625 5.710938 2.765625 4.425781 1.226562 2.726562 C -1.671875 -0.480469 -3.121094 -4.578125 -3.121094 -9.558594 L -3.121094 -41.777344 L 18.230469 -41.777344 L 18.230469 -12.371094 C 18.230469 -11.597656 18.269531 -10.824219 18.34375 -10.046875 C 18.304688 -10.457031 18.109375 -10.867188 17.757812 -11.277344 C 17.242188 -11.878906 16.648438 -12.289062 15.980469 -12.515625 C 15.835938 -12.5625 15.710938 -12.59375 15.601562 -12.609375 L 15.585938 -12.609375 C 15.609375 -12.609375 15.636719 -12.609375 15.675781 -12.609375 L 15.6875 -12.609375 C 15.65625 -12.605469 15.621094 -12.601562 15.578125 -12.59375 C 15.40625 -12.5625 15.226562 -12.503906 15.03125 -12.417969 C 14.4375 -12.152344 13.953125 -11.746094 13.582031 -11.195312 C 13.484375 -11.050781 13.414062 -10.917969 13.363281 -10.792969 C 13.355469 -10.773438 13.351562 -10.761719 13.347656 -10.75 C 13.351562 -10.769531 13.359375 -10.792969 13.367188 -10.824219 C 13.433594 -11.136719 13.46875 -11.582031 13.46875 -12.160156 Z M 26.738281 -12.160156 C 26.738281 -8.699219 26.019531 -5.90625 24.582031 -3.777344 C 23.53125 -2.21875 22.140625 -1.054688 20.410156 -0.289062 C 18.984375 0.34375 17.40625 0.660156 15.675781 0.660156 C 12.234375 0.660156 9.570312 -0.441406 7.683594 -2.640625 C 6.210938 -4.359375 5.359375 -6.410156 5.132812 -8.789062 C 5.019531 -9.984375 4.964844 -11.175781 4.964844 -12.371094 L 4.964844 -35.144531 L 11.597656 -35.144531 L 11.597656 -28.511719 L 3.515625 -28.511719 L 3.515625 -35.144531 L 10.148438 -35.144531 L 10.148438 -9.558594 C 10.148438 -7.980469 10.457031 -6.851562 11.074219 -6.167969 C 11.292969 -5.925781 11.527344 -5.753906 11.773438 -5.648438 C 12.105469 -5.507812 12.539062 -5.4375 13.074219 -5.4375 L 13.777344 -5.4375 C 14.082031 -5.4375 14.585938 -5.566406 15.285156 -5.820312 C 15.527344 -5.90625 15.695312 -5.980469 15.78125 -6.035156 C 15.640625 -5.945312 15.488281 -5.792969 15.324219 -5.578125 L 17.316406 -8.179688 L 27.859375 -8.179688 L 27.859375 0 L 21.226562 0 L 21.226562 -6.632812 L 28.1875 -6.632812 L 28.1875 0 L 21.550781 0 L 21.550781 -35.144531 L 28.1875 -35.144531 L 28.1875 -28.511719 L 20.101562 -28.511719 L 20.101562 -35.144531 L 26.738281 -35.144531 Z M 26.738281 -12.160156 "/></g></g><g style="fill:#debe8e;fill-opacity:1;"><g transform="translate(377.873998, 88.02413)"><path style="stroke:none" d="M 35.804688 -25.023438 L 35.804688 -9.320312 L 11.597656 -9.320312 L 11.597656 -15.957031 L 18.230469 -15.957031 L 18.230469 -9.628906 C 18.230469 -10.003906 18.152344 -10.382812 17.988281 -10.769531 C 17.820312 -11.171875 17.589844 -11.515625 17.300781 -11.796875 C 17.054688 -12.035156 16.753906 -12.226562 16.394531 -12.375 C 16.015625 -12.53125 15.632812 -12.609375 15.253906 -12.609375 L 17.359375 -12.609375 C 16.980469 -12.609375 16.597656 -12.53125 16.21875 -12.375 C 15.863281 -12.226562 15.558594 -12.035156 15.3125 -11.796875 C 15.023438 -11.515625 14.792969 -11.171875 14.625 -10.769531 C 14.464844 -10.382812 14.382812 -10.003906 14.382812 -9.628906 L 14.382812 -19.144531 L 35.804688 -19.144531 L 35.804688 -10.121094 C 35.804688 -6.84375 34.976562 -3.816406 33.324219 -1.039062 C 31.714844 1.671875 29.566406 3.816406 26.878906 5.398438 C 24.128906 7.019531 21.121094 7.828125 17.851562 7.828125 L 14.761719 7.828125 C 11.492188 7.828125 8.484375 7.019531 5.734375 5.398438 C 3.027344 3.804688 0.878906 1.640625 -0.710938 -1.09375 C -2.316406 -3.859375 -3.121094 -6.867188 -3.121094 -10.121094 L -3.121094 -25.023438 C -3.121094 -28.289062 -2.308594 -31.296875 -0.691406 -34.046875 C 0.886719 -36.722656 3.007812 -38.867188 5.675781 -40.472656 C 8.441406 -42.140625 11.46875 -42.972656 14.761719 -42.972656 L 17.851562 -42.972656 C 21.144531 -42.972656 24.171875 -42.140625 26.9375 -40.472656 C 29.585938 -38.878906 31.707031 -36.753906 33.304688 -34.105469 C 34.972656 -31.34375 35.804688 -28.3125 35.804688 -25.023438 Z M 22.535156 -25.023438 C 22.535156 -25.855469 22.335938 -26.597656 21.941406 -27.257812 C 21.476562 -28.027344 20.859375 -28.644531 20.085938 -29.109375 C 19.429688 -29.507812 18.683594 -29.703125 17.851562 -29.703125 L 14.761719 -29.703125 C 13.929688 -29.703125 13.183594 -29.507812 12.527344 -29.109375 C 11.777344 -28.660156 11.179688 -28.058594 10.742188 -27.3125 C 10.347656 -26.640625 10.148438 -25.878906 10.148438 -25.023438 L 10.148438 -10.121094 C 10.148438 -9.25 10.351562 -8.464844 10.761719 -7.761719 C 11.1875 -7.027344 11.757812 -6.453125 12.46875 -6.03125 C 13.140625 -5.636719 13.90625 -5.4375 14.761719 -5.4375 L 17.851562 -5.4375 C 18.710938 -5.4375 19.472656 -5.636719 20.144531 -6.03125 C 20.878906 -6.464844 21.46875 -7.058594 21.921875 -7.820312 C 22.332031 -8.507812 22.535156 -9.273438 22.535156 -10.121094 L 22.535156 -12.511719 L 29.167969 -12.511719 L 29.167969 -5.878906 L 21.015625 -5.878906 L 21.015625 -12.511719 L 27.648438 -12.511719 L 27.648438 -9.628906 C 27.648438 -8.226562 27.386719 -6.894531 26.863281 -5.644531 C 26.332031 -4.371094 25.554688 -3.246094 24.539062 -2.261719 C 23.566406 -1.320312 22.476562 -0.601562 21.261719 -0.101562 C 20.027344 0.40625 18.726562 0.660156 17.359375 0.660156 L 15.253906 0.660156 C 13.886719 0.660156 12.585938 0.40625 11.351562 -0.101562 C 10.140625 -0.601562 9.046875 -1.320312 8.074219 -2.261719 C 7.058594 -3.246094 6.285156 -4.371094 5.75 -5.644531 C 5.226562 -6.894531 4.964844 -8.226562 4.964844 -9.628906 L 4.964844 -22.589844 L 29.167969 -22.589844 L 29.167969 -15.957031 L 22.535156 -15.957031 Z M 18.230469 -25.515625 L 18.230469 -21.4375 L 11.597656 -21.4375 L 11.597656 -28.070312 L 21.015625 -28.070312 L 21.015625 -21.4375 L 14.382812 -21.4375 L 14.382812 -25.515625 C 14.382812 -25.105469 14.46875 -24.703125 14.636719 -24.300781 C 14.792969 -23.9375 14.992188 -23.632812 15.234375 -23.390625 C 15.480469 -23.144531 15.785156 -22.945312 16.148438 -22.792969 C 16.546875 -22.621094 16.953125 -22.535156 17.359375 -22.535156 L 15.253906 -22.535156 C 15.660156 -22.535156 16.066406 -22.621094 16.464844 -22.792969 C 16.828125 -22.945312 17.132812 -23.144531 17.378906 -23.390625 C 17.621094 -23.632812 17.820312 -23.9375 17.976562 -24.300781 C 18.148438 -24.703125 18.230469 -25.105469 18.230469 -25.515625 Z M 4.964844 -25.515625 C 4.964844 -26.90625 5.230469 -28.230469 5.761719 -29.488281 C 6.28125 -30.707031 7.023438 -31.800781 7.996094 -32.769531 C 8.96875 -33.742188 10.0625 -34.484375 11.28125 -35.003906 C 12.535156 -35.535156 13.859375 -35.804688 15.253906 -35.804688 L 17.359375 -35.804688 C 18.753906 -35.804688 20.078125 -35.535156 21.332031 -35.003906 C 22.550781 -34.484375 23.648438 -33.742188 24.617188 -32.769531 C 25.589844 -31.800781 26.332031 -30.707031 26.851562 -29.488281 C 27.382812 -28.230469 27.648438 -26.90625 27.648438 -25.515625 L 27.648438 -14.804688 L 4.964844 -14.804688 Z M 4.964844 -25.515625 "/></g></g><g style="fill:#debe8e;fill-opacity:1;"><g transform="translate(407.955042, 88.02413)"><path style="stroke:none" d=""/></g></g><g style="fill:#debe8e;fill-opacity:1;"><g transform="translate(425.385084, 88.02413)"><path style="stroke:none" d="M 17.011719 -57.03125 L 19.539062 -57.03125 C 23.089844 -57.03125 26.359375 -56.148438 29.34375 -54.386719 C 32.269531 -52.660156 34.597656 -50.332031 36.324219 -47.410156 C 38.085938 -44.421875 38.964844 -41.15625 38.964844 -37.605469 L 38.964844 -24.925781 L 16.5625 -24.925781 L 16.5625 -38.167969 C 16.5625 -37.835938 16.632812 -37.5 16.773438 -37.160156 C 16.90625 -36.851562 17.074219 -36.59375 17.273438 -36.390625 C 17.476562 -36.191406 17.730469 -36.023438 18.042969 -35.894531 C 18.382812 -35.75 18.714844 -35.679688 19.046875 -35.679688 L 17.5 -35.679688 C 17.800781 -35.679688 18.113281 -35.746094 18.4375 -35.882812 C 18.78125 -36.027344 19.074219 -36.21875 19.308594 -36.460938 C 19.507812 -36.664062 19.667969 -36.917969 19.792969 -37.222656 C 19.921875 -37.542969 19.988281 -37.859375 19.988281 -38.167969 L 19.988281 -11.035156 C 19.988281 -11.34375 19.921875 -11.65625 19.792969 -11.976562 C 19.667969 -12.28125 19.507812 -12.539062 19.308594 -12.742188 C 19.074219 -12.980469 18.78125 -13.175781 18.4375 -13.320312 C 18.113281 -13.453125 17.800781 -13.523438 17.5 -13.523438 L 19.046875 -13.523438 C 18.714844 -13.523438 18.382812 -13.449219 18.042969 -13.308594 C 17.730469 -13.175781 17.476562 -13.011719 17.273438 -12.808594 C 17.074219 -12.609375 16.90625 -12.351562 16.773438 -12.039062 C 16.632812 -11.703125 16.5625 -11.367188 16.5625 -11.035156 L 16.5625 -24.277344 L 38.964844 -24.277344 L 38.964844 -11.597656 C 38.964844 -8.046875 38.085938 -4.777344 36.324219 -1.792969 C 34.597656 1.132812 32.269531 3.457031 29.34375 5.1875 C 26.359375 6.949219 23.089844 7.828125 19.539062 7.828125 L 17.011719 7.828125 C 13.457031 7.828125 10.191406 6.949219 7.207031 5.1875 C 4.28125 3.457031 1.953125 1.132812 0.226562 -1.792969 C -1.535156 -4.777344 -2.417969 -8.046875 -2.417969 -11.597656 L -2.417969 -37.605469 C -2.417969 -41.15625 -1.535156 -44.421875 0.226562 -47.410156 C 1.953125 -50.332031 4.28125 -52.660156 7.207031 -54.386719 C 10.191406 -56.148438 13.457031 -57.03125 17.011719 -57.03125 Z M 17.011719 -43.761719 C 15.875 -43.761719 14.855469 -43.496094 13.949219 -42.960938 C 12.988281 -42.394531 12.222656 -41.625 11.652344 -40.664062 C 11.117188 -39.757812 10.851562 -38.738281 10.851562 -37.605469 L 10.851562 -11.597656 C 10.851562 -10.460938 11.117188 -9.441406 11.652344 -8.539062 C 12.222656 -7.574219 12.988281 -6.808594 13.949219 -6.238281 C 14.855469 -5.707031 15.875 -5.4375 17.011719 -5.4375 L 19.539062 -5.4375 C 20.675781 -5.4375 21.695312 -5.707031 22.597656 -6.238281 C 23.5625 -6.808594 24.328125 -7.574219 24.898438 -8.539062 C 25.433594 -9.441406 25.699219 -10.460938 25.699219 -11.597656 L 25.699219 -17.640625 L 32.332031 -17.640625 L 32.332031 -11.007812 L 23.195312 -11.007812 L 23.195312 -17.640625 L 29.828125 -17.640625 L 29.828125 -11.035156 C 29.828125 -9.578125 29.554688 -8.195312 29 -6.886719 C 28.460938 -5.601562 27.679688 -4.449219 26.65625 -3.425781 C 25.632812 -2.40625 24.480469 -1.625 23.199219 -1.082031 C 21.886719 -0.53125 20.503906 -0.253906 19.046875 -0.253906 L 17.5 -0.253906 C 16.03125 -0.253906 14.640625 -0.527344 13.332031 -1.070312 C 12.003906 -1.625 10.824219 -2.433594 9.792969 -3.496094 C 8.796875 -4.519531 8.039062 -5.671875 7.515625 -6.949219 C 6.984375 -8.238281 6.722656 -9.601562 6.722656 -11.035156 L 6.722656 -38.167969 C 6.722656 -39.601562 6.984375 -40.960938 7.515625 -42.253906 C 8.039062 -43.53125 8.796875 -44.683594 9.792969 -45.707031 C 10.824219 -46.765625 12.003906 -47.574219 13.332031 -48.128906 C 14.640625 -48.675781 16.03125 -48.949219 17.5 -48.949219 L 19.046875 -48.949219 C 20.503906 -48.949219 21.886719 -48.671875 23.199219 -48.117188 C 24.480469 -47.578125 25.632812 -46.796875 26.65625 -45.773438 C 27.679688 -44.753906 28.460938 -43.601562 29 -42.316406 C 29.554688 -41.007812 29.828125 -39.625 29.828125 -38.167969 L 29.828125 -31.558594 L 23.195312 -31.558594 L 23.195312 -38.195312 L 32.332031 -38.195312 L 32.332031 -31.558594 L 25.699219 -31.558594 L 25.699219 -37.605469 C 25.699219 -38.738281 25.433594 -39.757812 24.898438 -40.664062 C 24.328125 -41.625 23.5625 -42.394531 22.597656 -42.960938 C 21.695312 -43.496094 20.675781 -43.761719 19.539062 -43.761719 Z M 17.011719 -43.761719 "/></g></g><g style="fill:#debe8e;fill-opacity:1;"><g transform="translate(460.034593, 88.02413)"><path style="stroke:none" d="M 14.480469 -42.972656 L 15.957031 -42.972656 C 19.222656 -42.972656 22.230469 -42.164062 24.980469 -40.542969 C 27.675781 -38.957031 29.820312 -36.8125 31.40625 -34.117188 C 33.027344 -31.367188 33.835938 -28.335938 33.835938 -25.023438 L 33.835938 6.632812 L 19.113281 6.632812 L 16.003906 2.355469 L 21.367188 -1.546875 L 21.367188 5.085938 L 20.875 5.085938 L 20.875 -1.546875 L 26.144531 2.484375 C 24.738281 4.324219 22.691406 5.71875 20 6.675781 C 17.832031 7.445312 15.5 7.828125 13.003906 7.828125 C 10.136719 7.828125 7.429688 7.289062 4.894531 6.210938 C 1.988281 4.976562 -0.355469 3.050781 -2.140625 0.433594 C -3.964844 -2.238281 -4.875 -5.453125 -4.875 -9.207031 L -4.875 -10.050781 C -4.875 -13.757812 -3.652344 -16.929688 -1.199219 -19.5625 C 0.609375 -21.507812 2.808594 -23.125 5.398438 -24.417969 C 7.589844 -25.515625 9.828125 -26.421875 12.109375 -27.136719 C 14.078125 -27.753906 15.78125 -28.277344 17.210938 -28.707031 L 19.117188 -22.351562 L 12.484375 -22.351562 L 12.484375 -25.515625 C 12.484375 -25.105469 12.570312 -24.703125 12.738281 -24.300781 C 12.894531 -23.9375 13.09375 -23.632812 13.339844 -23.390625 C 13.582031 -23.144531 13.886719 -22.945312 14.25 -22.792969 C 14.652344 -22.621094 15.054688 -22.535156 15.464844 -22.535156 L 14.972656 -22.535156 C 15.324219 -22.535156 15.679688 -22.609375 16.035156 -22.753906 C 16.382812 -22.894531 16.675781 -23.082031 16.917969 -23.316406 C 17.164062 -23.558594 17.371094 -23.863281 17.53125 -24.230469 C 17.71875 -24.652344 17.808594 -25.078125 17.808594 -25.515625 L 17.808594 -16 L -3.472656 -16 L -3.472656 -25.023438 C -3.472656 -28.289062 -2.660156 -31.296875 -1.042969 -34.046875 C 0.542969 -36.734375 2.6875 -38.882812 5.394531 -40.496094 C 8.175781 -42.148438 11.203125 -42.972656 14.480469 -42.972656 Z M 14.480469 -29.703125 C 13.632812 -29.703125 12.867188 -29.5 12.175781 -29.089844 C 11.417969 -28.640625 10.820312 -28.046875 10.390625 -27.3125 C 9.996094 -26.640625 9.796875 -25.878906 9.796875 -25.023438 L 9.796875 -22.632812 L 3.164062 -22.632812 L 3.164062 -29.265625 L 11.175781 -29.265625 L 11.175781 -22.632812 L 4.542969 -22.632812 L 4.542969 -25.515625 C 4.542969 -26.933594 4.820312 -28.28125 5.382812 -29.558594 C 5.917969 -30.78125 6.683594 -31.878906 7.683594 -32.84375 C 8.675781 -33.804688 9.789062 -34.535156 11.023438 -35.039062 C 12.273438 -35.550781 13.589844 -35.804688 14.972656 -35.804688 L 15.464844 -35.804688 C 16.855469 -35.804688 18.179688 -35.535156 19.4375 -35.003906 C 20.65625 -34.484375 21.75 -33.742188 22.71875 -32.769531 C 23.691406 -31.800781 24.433594 -30.707031 24.953125 -29.488281 C 25.484375 -28.230469 25.753906 -26.90625 25.753906 -25.515625 L 25.753906 -17.414062 L 21.023438 -15.996094 C 19.644531 -15.582031 17.996094 -15.074219 16.074219 -14.476562 C 14.46875 -13.972656 12.886719 -13.332031 11.332031 -12.550781 C 10.171875 -11.972656 9.230469 -11.296875 8.511719 -10.519531 C 8.46875 -10.476562 8.441406 -10.441406 8.433594 -10.417969 C 8.40625 -10.34375 8.390625 -10.222656 8.390625 -10.050781 L 8.390625 -9.207031 C 8.390625 -8.183594 8.535156 -7.460938 8.820312 -7.039062 C 9.144531 -6.566406 9.5625 -6.21875 10.078125 -6 C 10.960938 -5.625 11.933594 -5.4375 13.003906 -5.4375 C 13.976562 -5.4375 14.828125 -5.570312 15.566406 -5.832031 C 15.816406 -5.921875 15.992188 -5.996094 16.082031 -6.054688 C 15.9375 -5.960938 15.777344 -5.800781 15.605469 -5.578125 L 17.597656 -8.179688 L 24.746094 -8.179688 L 27.859375 -3.902344 L 22.492188 0 L 22.492188 -6.632812 L 27.203125 -6.632812 L 27.203125 0 L 20.566406 0 L 20.566406 -25.023438 C 20.566406 -25.925781 20.371094 -26.710938 19.972656 -27.382812 C 19.546875 -28.109375 18.972656 -28.683594 18.246094 -29.113281 C 17.574219 -29.507812 16.8125 -29.703125 15.957031 -29.703125 Z M 12.484375 -9.628906 L 12.484375 -15.746094 L 19.117188 -15.746094 L 21.550781 -9.570312 C 19.765625 -8.871094 18.050781 -8.296875 16.398438 -7.859375 C 15.949219 -7.738281 15.65625 -7.621094 15.519531 -7.507812 C 15.984375 -7.898438 16.308594 -8.347656 16.488281 -8.847656 C 16.523438 -8.949219 16.546875 -9.023438 16.554688 -9.082031 C 16.546875 -9.035156 16.542969 -8.960938 16.542969 -8.855469 L 16.542969 -8.152344 C 16.542969 -8.761719 16.394531 -9.375 16.09375 -10 C 15.664062 -10.902344 15.019531 -11.613281 14.167969 -12.132812 C 13.71875 -12.40625 13.320312 -12.574219 12.964844 -12.632812 C 13.066406 -12.617188 13.265625 -12.609375 13.566406 -12.609375 L 15.464844 -12.609375 C 15.082031 -12.609375 14.703125 -12.53125 14.320312 -12.375 C 13.964844 -12.226562 13.660156 -12.035156 13.414062 -11.796875 C 13.125 -11.515625 12.898438 -11.171875 12.726562 -10.769531 C 12.566406 -10.382812 12.484375 -10.003906 12.484375 -9.628906 Z M 25.753906 -9.628906 C 25.753906 -8.226562 25.488281 -6.894531 24.964844 -5.644531 C 24.433594 -4.371094 23.660156 -3.246094 22.640625 -2.261719 C 21.667969 -1.320312 20.578125 -0.601562 19.363281 -0.101562 C 18.128906 0.40625 16.828125 0.660156 15.464844 0.660156 L 13.566406 0.660156 C 10.964844 0.660156 8.867188 0.171875 7.269531 -0.800781 C 5.878906 -1.644531 4.832031 -2.800781 4.128906 -4.265625 C 3.5625 -5.453125 3.277344 -6.75 3.277344 -8.152344 L 3.277344 -8.855469 C 3.277344 -10.492188 3.519531 -11.980469 4 -13.328125 C 4.625 -15.070312 5.617188 -16.511719 6.972656 -17.65625 C 8.617188 -19.042969 10.621094 -20.050781 12.980469 -20.679688 C 14.140625 -20.988281 15.375 -21.402344 16.6875 -21.917969 L 25.753906 -25.488281 Z M 25.753906 -9.628906 "/></g></g><g style="fill:#debe8e;fill-opacity:1;"><g transform="translate(489.201944, 88.02413)"><path style="stroke:none" d="M -2.417969 -55.835938 L 18.933594 -55.835938 L 18.933594 6.632812 L -2.417969 6.632812 Z M -2.417969 -55.835938 "/></g></g><g style="fill:#debe8e;fill-opacity:1;"><g transform="translate(504.17205, 88.02413)"><path style="stroke:none" d="M 14.832031 -42.972656 L 17.851562 -42.972656 C 21.144531 -42.972656 24.171875 -42.140625 26.9375 -40.472656 C 29.585938 -38.878906 31.707031 -36.753906 33.304688 -34.105469 C 34.972656 -31.34375 35.804688 -28.3125 35.804688 -25.023438 L 35.804688 -16 L 14.382812 -16 L 14.382812 -25.515625 C 14.382812 -25.105469 14.46875 -24.703125 14.636719 -24.300781 C 14.792969 -23.9375 14.992188 -23.632812 15.234375 -23.390625 C 15.480469 -23.144531 15.785156 -22.945312 16.148438 -22.792969 C 16.546875 -22.621094 16.953125 -22.535156 17.359375 -22.535156 L 15.324219 -22.535156 C 15.695312 -22.535156 16.078125 -22.617188 16.460938 -22.777344 C 16.867188 -22.949219 17.210938 -23.175781 17.488281 -23.464844 C 17.726562 -23.714844 17.921875 -24.015625 18.066406 -24.371094 C 18.222656 -24.753906 18.300781 -25.132812 18.300781 -25.515625 L 18.300781 -9.628906 C 18.300781 -9.976562 18.226562 -10.332031 18.078125 -10.699219 C 17.917969 -11.097656 17.695312 -11.4375 17.414062 -11.71875 C 17.128906 -12.003906 16.789062 -12.226562 16.390625 -12.386719 C 16.027344 -12.535156 15.667969 -12.609375 15.324219 -12.609375 L 17.359375 -12.609375 C 16.980469 -12.609375 16.597656 -12.53125 16.21875 -12.375 C 15.863281 -12.226562 15.558594 -12.035156 15.3125 -11.796875 C 15.023438 -11.515625 14.792969 -11.171875 14.625 -10.769531 C 14.464844 -10.382812 14.382812 -10.003906 14.382812 -9.628906 L 14.382812 -19.144531 L 35.804688 -19.144531 L 35.804688 -10.121094 C 35.804688 -6.84375 34.976562 -3.816406 33.324219 -1.039062 C 31.714844 1.671875 29.566406 3.816406 26.878906 5.398438 C 24.128906 7.019531 21.121094 7.828125 17.851562 7.828125 L 14.832031 7.828125 C 11.578125 7.828125 8.570312 7.027344 5.804688 5.417969 C 3.058594 3.824219 0.886719 1.652344 -0.710938 -1.09375 C -2.316406 -3.859375 -3.121094 -6.867188 -3.121094 -10.121094 L -3.121094 -25.023438 C -3.121094 -28.289062 -2.308594 -31.296875 -0.691406 -34.046875 C 0.890625 -36.734375 3.039062 -38.882812 5.746094 -40.496094 C 8.527344 -42.148438 11.554688 -42.972656 14.832031 -42.972656 Z M 14.832031 -29.703125 C 13.984375 -29.703125 13.21875 -29.5 12.527344 -29.089844 C 11.769531 -28.640625 11.171875 -28.046875 10.742188 -27.3125 C 10.347656 -26.640625 10.148438 -25.878906 10.148438 -25.023438 L 10.148438 -10.121094 C 10.148438 -9.25 10.351562 -8.464844 10.761719 -7.761719 C 11.179688 -7.039062 11.75 -6.472656 12.46875 -6.050781 C 13.175781 -5.644531 13.960938 -5.4375 14.832031 -5.4375 L 17.851562 -5.4375 C 18.710938 -5.4375 19.472656 -5.636719 20.144531 -6.03125 C 20.878906 -6.464844 21.46875 -7.058594 21.921875 -7.820312 C 22.332031 -8.507812 22.535156 -9.273438 22.535156 -10.121094 L 22.535156 -12.511719 L 29.167969 -12.511719 L 29.167969 -5.878906 L 21.015625 -5.878906 L 21.015625 -12.511719 L 27.648438 -12.511719 L 27.648438 -9.628906 C 27.648438 -8.226562 27.386719 -6.894531 26.863281 -5.644531 C 26.332031 -4.371094 25.554688 -3.246094 24.539062 -2.261719 C 23.566406 -1.320312 22.476562 -0.601562 21.261719 -0.101562 C 20.027344 0.40625 18.726562 0.660156 17.359375 0.660156 L 15.324219 0.660156 C 13.945312 0.660156 12.640625 0.410156 11.40625 -0.0898438 C 10.140625 -0.601562 9.015625 -1.351562 8.03125 -2.335938 C 7.046875 -3.324219 6.296875 -4.449219 5.785156 -5.714844 C 5.285156 -6.945312 5.035156 -8.25 5.035156 -9.628906 L 5.035156 -25.515625 C 5.035156 -26.878906 5.289062 -28.179688 5.796875 -29.414062 C 6.292969 -30.628906 7.011719 -31.722656 7.953125 -32.695312 C 8.9375 -33.710938 10.066406 -34.484375 11.335938 -35.015625 C 12.589844 -35.542969 13.917969 -35.804688 15.324219 -35.804688 L 17.359375 -35.804688 C 18.753906 -35.804688 20.078125 -35.535156 21.332031 -35.003906 C 22.550781 -34.484375 23.648438 -33.742188 24.617188 -32.769531 C 25.589844 -31.800781 26.332031 -30.707031 26.851562 -29.488281 C 27.382812 -28.230469 27.648438 -26.90625 27.648438 -25.515625 L 27.648438 -22.632812 L 21.015625 -22.632812 L 21.015625 -29.265625 L 29.167969 -29.265625 L 29.167969 -22.632812 L 22.535156 -22.632812 L 22.535156 -25.023438 C 22.535156 -25.855469 22.335938 -26.597656 21.941406 -27.257812 C 21.476562 -28.027344 20.859375 -28.644531 20.085938 -29.109375 C 19.429688 -29.507812 18.683594 -29.703125 17.851562 -29.703125 Z M 14.832031 -29.703125 "/></g></g><g style="fill:#debe8e;fill-opacity:1;"><g transform="translate(533.901684, 88.02413)"><path style="stroke:none" d="M 13.46875 -12.160156 L 13.46875 -41.777344 L 34.820312 -41.777344 L 34.820312 6.632812 L 14.59375 6.632812 L 14.59375 -1.546875 L 21.226562 -1.546875 L 21.226562 5.085938 L 20.59375 5.085938 L 20.59375 -1.546875 L 25.863281 2.484375 C 24.464844 4.3125 22.441406 5.707031 19.789062 6.664062 C 17.632812 7.441406 15.628906 7.828125 13.777344 7.828125 L 13.074219 7.828125 C 10.75 7.828125 8.601562 7.414062 6.625 6.578125 C 4.5625 5.710938 2.765625 4.425781 1.226562 2.726562 C -1.671875 -0.480469 -3.121094 -4.578125 -3.121094 -9.558594 L -3.121094 -41.777344 L 18.230469 -41.777344 L 18.230469 -12.371094 C 18.230469 -11.597656 18.269531 -10.824219 18.34375 -10.046875 C 18.304688 -10.457031 18.109375 -10.867188 17.757812 -11.277344 C 17.242188 -11.878906 16.648438 -12.289062 15.980469 -12.515625 C 15.835938 -12.5625 15.710938 -12.59375 15.601562 -12.609375 L 15.585938 -12.609375 C 15.609375 -12.609375 15.636719 -12.609375 15.675781 -12.609375 L 15.6875 -12.609375 C 15.65625 -12.605469 15.621094 -12.601562 15.578125 -12.59375 C 15.40625 -12.5625 15.226562 -12.503906 15.03125 -12.417969 C 14.4375 -12.152344 13.953125 -11.746094 13.582031 -11.195312 C 13.484375 -11.050781 13.414062 -10.917969 13.363281 -10.792969 C 13.355469 -10.773438 13.351562 -10.761719 13.347656 -10.75 C 13.351562 -10.769531 13.359375 -10.792969 13.367188 -10.824219 C 13.433594 -11.136719 13.46875 -11.582031 13.46875 -12.160156 Z M 26.738281 -12.160156 C 26.738281 -8.699219 26.019531 -5.90625 24.582031 -3.777344 C 23.53125 -2.21875 22.140625 -1.054688 20.410156 -0.289062 C 18.984375 0.34375 17.40625 0.660156 15.675781 0.660156 C 12.234375 0.660156 9.570312 -0.441406 7.683594 -2.640625 C 6.210938 -4.359375 5.359375 -6.410156 5.132812 -8.789062 C 5.019531 -9.984375 4.964844 -11.175781 4.964844 -12.371094 L 4.964844 -35.144531 L 11.597656 -35.144531 L 11.597656 -28.511719 L 3.515625 -28.511719 L 3.515625 -35.144531 L 10.148438 -35.144531 L 10.148438 -9.558594 C 10.148438 -7.980469 10.457031 -6.851562 11.074219 -6.167969 C 11.292969 -5.925781 11.527344 -5.753906 11.773438 -5.648438 C 12.105469 -5.507812 12.539062 -5.4375 13.074219 -5.4375 L 13.777344 -5.4375 C 14.082031 -5.4375 14.585938 -5.566406 15.285156 -5.820312 C 15.527344 -5.90625 15.695312 -5.980469 15.78125 -6.035156 C 15.640625 -5.945312 15.488281 -5.792969 15.324219 -5.578125 L 17.316406 -8.179688 L 27.859375 -8.179688 L 27.859375 0 L 21.226562 0 L 21.226562 -6.632812 L 28.1875 -6.632812 L 28.1875 0 L 21.550781 0 L 21.550781 -35.144531 L 28.1875 -35.144531 L 28.1875 -28.511719 L 20.101562 -28.511719 L 20.101562 -35.144531 L 26.738281 -35.144531 Z M 26.738281 -12.160156 "/></g></g><g style="fill:#debe8e;fill-opacity:1;"><g transform="translate(565.107226, 88.02413)"><path style="stroke:none" d="M -2.417969 -55.835938 L 18.933594 -55.835938 L 18.933594 6.632812 L -2.417969 6.632812 Z M -2.417969 -55.835938 "/></g></g><g style="fill:#debe8e;fill-opacity:1;"><g transform="translate(580.780243, 88.02413)"><path style="stroke:none" d="M 14.480469 -42.972656 L 15.957031 -42.972656 C 19.222656 -42.972656 22.230469 -42.164062 24.980469 -40.542969 C 27.675781 -38.957031 29.820312 -36.8125 31.40625 -34.117188 C 33.027344 -31.367188 33.835938 -28.335938 33.835938 -25.023438 L 33.835938 6.632812 L 19.113281 6.632812 L 16.003906 2.355469 L 21.367188 -1.546875 L 21.367188 5.085938 L 20.875 5.085938 L 20.875 -1.546875 L 26.144531 2.484375 C 24.738281 4.324219 22.691406 5.71875 20 6.675781 C 17.832031 7.445312 15.5 7.828125 13.003906 7.828125 C 10.136719 7.828125 7.429688 7.289062 4.894531 6.210938 C 1.988281 4.976562 -0.355469 3.050781 -2.140625 0.433594 C -3.964844 -2.238281 -4.875 -5.453125 -4.875 -9.207031 L -4.875 -10.050781 C -4.875 -13.757812 -3.652344 -16.929688 -1.199219 -19.5625 C 0.609375 -21.507812 2.808594 -23.125 5.398438 -24.417969 C 7.589844 -25.515625 9.828125 -26.421875 12.109375 -27.136719 C 14.078125 -27.753906 15.78125 -28.277344 17.210938 -28.707031 L 19.117188 -22.351562 L 12.484375 -22.351562 L 12.484375 -25.515625 C 12.484375 -25.105469 12.570312 -24.703125 12.738281 -24.300781 C 12.894531 -23.9375 13.09375 -23.632812 13.339844 -23.390625 C 13.582031 -23.144531 13.886719 -22.945312 14.25 -22.792969 C 14.652344 -22.621094 15.054688 -22.535156 15.464844 -22.535156 L 14.972656 -22.535156 C 15.324219 -22.535156 15.679688 -22.609375 16.035156 -22.753906 C 16.382812 -22.894531 16.675781 -23.082031 16.917969 -23.316406 C 17.164062 -23.558594 17.371094 -23.863281 17.53125 -24.230469 C 17.71875 -24.652344 17.808594 -25.078125 17.808594 -25.515625 L 17.808594 -16 L -3.472656 -16 L -3.472656 -25.023438 C -3.472656 -28.289062 -2.660156 -31.296875 -1.042969 -34.046875 C 0.542969 -36.734375 2.6875 -38.882812 5.394531 -40.496094 C 8.175781 -42.148438 11.203125 -42.972656 14.480469 -42.972656 Z M 14.480469 -29.703125 C 13.632812 -29.703125 12.867188 -29.5 12.175781 -29.089844 C 11.417969 -28.640625 10.820312 -28.046875 10.390625 -27.3125 C 9.996094 -26.640625 9.796875 -25.878906 9.796875 -25.023438 L 9.796875 -22.632812 L 3.164062 -22.632812 L 3.164062 -29.265625 L 11.175781 -29.265625 L 11.175781 -22.632812 L 4.542969 -22.632812 L 4.542969 -25.515625 C 4.542969 -26.933594 4.820312 -28.28125 5.382812 -29.558594 C 5.917969 -30.78125 6.683594 -31.878906 7.683594 -32.84375 C 8.675781 -33.804688 9.789062 -34.535156 11.023438 -35.039062 C 12.273438 -35.550781 13.589844 -35.804688 14.972656 -35.804688 L 15.464844 -35.804688 C 16.855469 -35.804688 18.179688 -35.535156 19.4375 -35.003906 C 20.65625 -34.484375 21.75 -33.742188 22.71875 -32.769531 C 23.691406 -31.800781 24.433594 -30.707031 24.953125 -29.488281 C 25.484375 -28.230469 25.753906 -26.90625 25.753906 -25.515625 L 25.753906 -17.414062 L 21.023438 -15.996094 C 19.644531 -15.582031 17.996094 -15.074219 16.074219 -14.476562 C 14.46875 -13.972656 12.886719 -13.332031 11.332031 -12.550781 C 10.171875 -11.972656 9.230469 -11.296875 8.511719 -10.519531 C 8.46875 -10.476562 8.441406 -10.441406 8.433594 -10.417969 C 8.40625 -10.34375 8.390625 -10.222656 8.390625 -10.050781 L 8.390625 -9.207031 C 8.390625 -8.183594 8.535156 -7.460938 8.820312 -7.039062 C 9.144531 -6.566406 9.5625 -6.21875 10.078125 -6 C 10.960938 -5.625 11.933594 -5.4375 13.003906 -5.4375 C 13.976562 -5.4375 14.828125 -5.570312 15.566406 -5.832031 C 15.816406 -5.921875 15.992188 -5.996094 16.082031 -6.054688 C 15.9375 -5.960938 15.777344 -5.800781 15.605469 -5.578125 L 17.597656 -8.179688 L 24.746094 -8.179688 L 27.859375 -3.902344 L 22.492188 0 L 22.492188 -6.632812 L 27.203125 -6.632812 L 27.203125 0 L 20.566406 0 L 20.566406 -25.023438 C 20.566406 -25.925781 20.371094 -26.710938 19.972656 -27.382812 C 19.546875 -28.109375 18.972656 -28.683594 18.246094 -29.113281 C 17.574219 -29.507812 16.8125 -29.703125 15.957031 -29.703125 Z M 12.484375 -9.628906 L 12.484375 -15.746094 L 19.117188 -15.746094 L 21.550781 -9.570312 C 19.765625 -8.871094 18.050781 -8.296875 16.398438 -7.859375 C 15.949219 -7.738281 15.65625 -7.621094 15.519531 -7.507812 C 15.984375 -7.898438 16.308594 -8.347656 16.488281 -8.847656 C 16.523438 -8.949219 16.546875 -9.023438 16.554688 -9.082031 C 16.546875 -9.035156 16.542969 -8.960938 16.542969 -8.855469 L 16.542969 -8.152344 C 16.542969 -8.761719 16.394531 -9.375 16.09375 -10 C 15.664062 -10.902344 15.019531 -11.613281 14.167969 -12.132812 C 13.71875 -12.40625 13.320312 -12.574219 12.964844 -12.632812 C 13.066406 -12.617188 13.265625 -12.609375 13.566406 -12.609375 L 15.464844 -12.609375 C 15.082031 -12.609375 14.703125 -12.53125 14.320312 -12.375 C 13.964844 -12.226562 13.660156 -12.035156 13.414062 -11.796875 C 13.125 -11.515625 12.898438 -11.171875 12.726562 -10.769531 C 12.566406 -10.382812 12.484375 -10.003906 12.484375 -9.628906 Z M 25.753906 -9.628906 C 25.753906 -8.226562 25.488281 -6.894531 24.964844 -5.644531 C 24.433594 -4.371094 23.660156 -3.246094 22.640625 -2.261719 C 21.667969 -1.320312 20.578125 -0.601562 19.363281 -0.101562 C 18.128906 0.40625 16.828125 0.660156 15.464844 0.660156 L 13.566406 0.660156 C 10.964844 0.660156 8.867188 0.171875 7.269531 -0.800781 C 5.878906 -1.644531 4.832031 -2.800781 4.128906 -4.265625 C 3.5625 -5.453125 3.277344 -6.75 3.277344 -8.152344 L 3.277344 -8.855469 C 3.277344 -10.492188 3.519531 -11.980469 4 -13.328125 C 4.625 -15.070312 5.617188 -16.511719 6.972656 -17.65625 C 8.617188 -19.042969 10.621094 -20.050781 12.980469 -20.679688 C 14.140625 -20.988281 15.375 -21.402344 16.6875 -21.917969 L 25.753906 -25.488281 Z M 25.753906 -9.628906 "/></g></g><g style="fill:#debe8e;fill-opacity:1;"><g transform="translate(609.947549, 88.02413)"><path style="stroke:none" d="M 11.921875 -8.644531 L 11.921875 -19.144531 L 33.34375 -19.144531 L 33.34375 -9.136719 C 33.34375 -6.042969 32.5625 -3.1875 31 -0.570312 C 29.5 1.945312 27.503906 3.953125 25.015625 5.460938 C 22.414062 7.039062 19.535156 7.828125 16.378906 7.828125 L 13.847656 7.828125 C 10.753906 7.828125 7.898438 7.046875 5.28125 5.484375 C 2.75 3.976562 0.734375 1.957031 -0.777344 -0.570312 C -2.339844 -3.1875 -3.121094 -6.042969 -3.121094 -9.136719 L -3.121094 -53.09375 L 18.230469 -53.09375 L 18.230469 -35.144531 L 11.597656 -35.144531 L 11.597656 -41.777344 L 25.964844 -41.777344 L 25.964844 -21.621094 L 11.597656 -21.621094 L 11.597656 -28.257812 L 18.230469 -28.257812 L 18.230469 -8.644531 C 18.230469 -9.171875 18.121094 -9.695312 17.902344 -10.207031 C 17.683594 -10.726562 17.378906 -11.171875 16.992188 -11.542969 C 16.640625 -11.875 16.230469 -12.136719 15.757812 -12.328125 C 15.289062 -12.515625 14.816406 -12.609375 14.339844 -12.609375 L 15.886719 -12.609375 C 15.355469 -12.609375 14.839844 -12.503906 14.335938 -12.296875 C 13.882812 -12.105469 13.492188 -11.855469 13.164062 -11.542969 C 12.777344 -11.171875 12.472656 -10.726562 12.25 -10.207031 C 12.03125 -9.695312 11.921875 -9.171875 11.921875 -8.644531 Z M 25.191406 -8.644531 C 25.191406 -7.367188 24.945312 -6.15625 24.457031 -5.007812 C 23.96875 -3.859375 23.257812 -2.839844 22.332031 -1.953125 C 21.464844 -1.125 20.496094 -0.488281 19.421875 -0.0390625 C 18.296875 0.425781 17.117188 0.660156 15.886719 0.660156 L 14.339844 0.660156 C 13.113281 0.660156 11.941406 0.4375 10.828125 -0.0078125 C 9.710938 -0.457031 8.707031 -1.105469 7.820312 -1.953125 C 6.894531 -2.839844 6.1875 -3.859375 5.695312 -5.007812 C 5.207031 -6.15625 4.964844 -7.367188 4.964844 -8.644531 L 4.964844 -34.890625 L 19.328125 -34.890625 L 19.328125 -28.257812 L 12.695312 -28.257812 L 12.695312 -35.144531 L 19.328125 -35.144531 L 19.328125 -28.511719 L 4.964844 -28.511719 L 4.964844 -46.460938 L 11.597656 -46.460938 L 11.597656 -39.828125 L 3.515625 -39.828125 L 3.515625 -46.460938 L 10.148438 -46.460938 L 10.148438 -9.136719 C 10.148438 -8.484375 10.304688 -7.894531 10.617188 -7.371094 C 10.980469 -6.761719 11.46875 -6.273438 12.082031 -5.90625 C 12.605469 -5.59375 13.191406 -5.4375 13.847656 -5.4375 L 16.378906 -5.4375 C 17.0625 -5.4375 17.652344 -5.585938 18.140625 -5.882812 C 18.746094 -6.25 19.234375 -6.746094 19.609375 -7.371094 C 19.917969 -7.894531 20.074219 -8.484375 20.074219 -9.136719 L 20.074219 -12.511719 L 26.710938 -12.511719 L 26.710938 -5.878906 L 18.554688 -5.878906 L 18.554688 -12.511719 L 25.191406 -12.511719 Z M 25.191406 -8.644531 "/></g></g><g style="fill:#debe8e;fill-opacity:1;"><g transform="translate(636.514427, 88.02413)"><path style="stroke:none" d="M 14.761719 -42.972656 L 17.851562 -42.972656 C 21.121094 -42.972656 24.128906 -42.164062 26.878906 -40.542969 C 29.554688 -38.96875 31.695312 -36.84375 33.304688 -34.175781 C 34.972656 -31.414062 35.804688 -28.359375 35.804688 -25.023438 L 35.804688 -10.121094 C 35.804688 -6.84375 34.976562 -3.816406 33.324219 -1.039062 C 31.714844 1.671875 29.566406 3.816406 26.878906 5.398438 C 24.128906 7.019531 21.121094 7.828125 17.851562 7.828125 L 14.761719 7.828125 C 11.492188 7.828125 8.484375 7.019531 5.734375 5.398438 C 3.027344 3.804688 0.878906 1.640625 -0.710938 -1.09375 C -2.316406 -3.859375 -3.121094 -6.867188 -3.121094 -10.121094 L -3.121094 -25.023438 C -3.121094 -28.335938 -2.308594 -31.367188 -0.691406 -34.117188 C 0.898438 -36.8125 3.039062 -38.957031 5.734375 -40.542969 C 8.484375 -42.164062 11.492188 -42.972656 14.761719 -42.972656 Z M 14.761719 -29.703125 C 13.90625 -29.703125 13.140625 -29.507812 12.46875 -29.113281 C 11.746094 -28.683594 11.167969 -28.109375 10.742188 -27.382812 C 10.347656 -26.710938 10.148438 -25.925781 10.148438 -25.023438 L 10.148438 -10.121094 C 10.148438 -9.25 10.351562 -8.464844 10.761719 -7.761719 C 11.1875 -7.027344 11.757812 -6.453125 12.46875 -6.03125 C 13.140625 -5.636719 13.90625 -5.4375 14.761719 -5.4375 L 17.851562 -5.4375 C 18.710938 -5.4375 19.472656 -5.636719 20.144531 -6.03125 C 20.878906 -6.464844 21.46875 -7.058594 21.921875 -7.820312 C 22.332031 -8.507812 22.535156 -9.273438 22.535156 -10.121094 L 22.535156 -25.023438 C 22.535156 -25.902344 22.335938 -26.667969 21.941406 -27.328125 C 21.488281 -28.078125 20.890625 -28.671875 20.144531 -29.113281 C 19.472656 -29.507812 18.710938 -29.703125 17.851562 -29.703125 Z M 14.382812 -9.628906 L 14.382812 -25.515625 C 14.382812 -25.140625 14.464844 -24.761719 14.625 -24.375 C 14.792969 -23.96875 15.023438 -23.628906 15.3125 -23.347656 C 15.558594 -23.109375 15.863281 -22.917969 16.21875 -22.769531 C 16.597656 -22.613281 16.980469 -22.535156 17.359375 -22.535156 L 15.324219 -22.535156 C 15.667969 -22.535156 16.027344 -22.609375 16.390625 -22.757812 C 16.789062 -22.917969 17.128906 -23.140625 17.414062 -23.425781 C 17.695312 -23.707031 17.917969 -24.046875 18.078125 -24.445312 C 18.226562 -24.8125 18.300781 -25.167969 18.300781 -25.515625 L 18.300781 -9.628906 C 18.300781 -9.976562 18.226562 -10.332031 18.078125 -10.699219 C 17.917969 -11.097656 17.695312 -11.4375 17.414062 -11.71875 C 17.128906 -12.003906 16.789062 -12.226562 16.390625 -12.386719 C 16.027344 -12.535156 15.667969 -12.609375 15.324219 -12.609375 L 17.359375 -12.609375 C 16.980469 -12.609375 16.597656 -12.53125 16.21875 -12.375 C 15.863281 -12.226562 15.558594 -12.035156 15.3125 -11.796875 C 15.023438 -11.515625 14.792969 -11.171875 14.625 -10.769531 C 14.464844 -10.382812 14.382812 -10.003906 14.382812 -9.628906 Z M 27.648438 -9.628906 C 27.648438 -8.226562 27.386719 -6.894531 26.863281 -5.644531 C 26.332031 -4.371094 25.554688 -3.246094 24.539062 -2.261719 C 23.566406 -1.320312 22.476562 -0.601562 21.261719 -0.101562 C 20.027344 0.40625 18.726562 0.660156 17.359375 0.660156 L 15.324219 0.660156 C 13.945312 0.660156 12.640625 0.410156 11.40625 -0.0898438 C 10.140625 -0.601562 9.015625 -1.351562 8.03125 -2.335938 C 7.046875 -3.324219 6.296875 -4.449219 5.785156 -5.714844 C 5.285156 -6.945312 5.035156 -8.25 5.035156 -9.628906 L 5.035156 -25.515625 C 5.035156 -26.890625 5.285156 -28.199219 5.785156 -29.429688 C 6.296875 -30.695312 7.046875 -31.820312 8.03125 -32.804688 C 9.015625 -33.792969 10.140625 -34.542969 11.40625 -35.054688 C 12.640625 -35.554688 13.945312 -35.804688 15.324219 -35.804688 L 17.359375 -35.804688 C 18.726562 -35.804688 20.027344 -35.550781 21.261719 -35.042969 C 22.476562 -34.542969 23.566406 -33.824219 24.539062 -32.882812 C 25.554688 -31.898438 26.332031 -30.773438 26.863281 -29.5 C 27.386719 -28.246094 27.648438 -26.917969 27.648438 -25.515625 Z M 27.648438 -9.628906 "/></g></g><g style="fill:#debe8e;fill-opacity:1;"><g transform="translate(668.001087, 88.02413)"><path style="stroke:none" d="M 18.484375 -42.972656 L 18.765625 -42.972656 C 21.117188 -42.972656 23.289062 -42.550781 25.277344 -41.707031 C 27.363281 -40.824219 29.171875 -39.511719 30.703125 -37.773438 C 33.542969 -34.550781 34.960938 -30.464844 34.960938 -25.515625 L 34.960938 -16 L 13.960938 -16 L 13.960938 -22.632812 C 13.960938 -23.316406 13.921875 -24.0625 13.847656 -24.863281 C 13.863281 -24.691406 13.957031 -24.484375 14.128906 -24.242188 C 14.617188 -23.554688 15.234375 -23.058594 15.980469 -22.753906 C 16.339844 -22.609375 16.632812 -22.535156 16.871094 -22.535156 C 17.058594 -22.535156 17.304688 -22.601562 17.597656 -22.734375 C 18.082031 -22.953125 18.472656 -23.269531 18.777344 -23.683594 C 18.878906 -23.816406 18.953125 -23.941406 19.007812 -24.066406 C 19.019531 -24.09375 19.03125 -24.117188 19.035156 -24.132812 C 19.035156 -24.128906 19.03125 -24.121094 19.027344 -24.105469 C 18.964844 -23.851562 18.933594 -23.480469 18.933594 -22.984375 L 18.933594 6.632812 L -2.417969 6.632812 L -2.417969 -41.777344 L 17.808594 -41.777344 L 17.808594 -33.597656 L 11.175781 -33.597656 L 11.175781 -40.230469 L 11.808594 -40.230469 L 11.808594 -33.597656 L 6.6875 -37.816406 C 8.089844 -39.519531 10.019531 -40.835938 12.476562 -41.769531 C 14.59375 -42.570312 16.597656 -42.972656 18.484375 -42.972656 Z M 18.484375 -29.703125 C 18.21875 -29.703125 17.785156 -29.589844 17.183594 -29.363281 C 16.949219 -29.273438 16.78125 -29.195312 16.675781 -29.128906 C 16.742188 -29.171875 16.824219 -29.253906 16.929688 -29.378906 L 14.9375 -26.964844 L 4.542969 -26.964844 L 4.542969 -35.144531 L 11.175781 -35.144531 L 11.175781 -28.511719 L 4.21875 -28.511719 L 4.21875 -35.144531 L 10.851562 -35.144531 L 10.851562 0 L 4.21875 0 L 4.21875 -6.632812 L 12.300781 -6.632812 L 12.300781 0 L 5.667969 0 L 5.667969 -22.984375 C 5.667969 -26.503906 6.480469 -29.363281 8.105469 -31.566406 C 9.171875 -33.007812 10.519531 -34.097656 12.140625 -34.828125 C 13.582031 -35.480469 15.15625 -35.804688 16.871094 -35.804688 C 18.367188 -35.804688 19.742188 -35.550781 20.992188 -35.039062 C 22.628906 -34.371094 23.949219 -33.332031 24.949219 -31.917969 C 26.152344 -30.226562 26.855469 -28.285156 27.058594 -26.09375 C 27.171875 -24.882812 27.230469 -23.726562 27.230469 -22.632812 L 20.59375 -22.632812 L 20.59375 -29.265625 L 28.328125 -29.265625 L 28.328125 -22.632812 L 21.691406 -22.632812 L 21.691406 -25.515625 C 21.691406 -27.125 21.378906 -28.285156 20.746094 -29 C 20.546875 -29.230469 20.328125 -29.394531 20.09375 -29.492188 C 19.761719 -29.632812 19.320312 -29.703125 18.765625 -29.703125 Z M 18.484375 -29.703125 "/></g></g><g style="fill:#4c2b09;fill-opacity:1;"><g transform="translate(124.575278, 88.02413)"><path style="stroke:none" d="M 4.921875 -49.203125 L 18.484375 -49.203125 C 20.828125 -49.203125 22.96875 -48.625 24.90625 -47.46875 C 26.851562 -46.320312 28.398438 -44.785156 29.546875 -42.859375 C 30.703125 -40.941406 31.28125 -38.8125 31.28125 -36.46875 L 31.34375 -26 C 31.34375 -23.65625 30.769531 -21.507812 29.625 -19.5625 C 28.476562 -17.625 26.941406 -16.082031 25.015625 -14.9375 C 23.097656 -13.789062 20.96875 -13.191406 18.625 -13.140625 L 13.78125 -13.140625 L 13.84375 0 L 5.0625 0.0625 Z M 13.78125 -20.875 L 18.0625 -20.875 C 19.226562 -20.875 20.207031 -21.28125 21 -22.09375 C 21.800781 -22.914062 22.203125 -23.890625 22.203125 -25.015625 L 22.140625 -37.3125 C 22.140625 -38.488281 21.738281 -39.472656 20.9375 -40.265625 C 20.144531 -41.066406 19.160156 -41.46875 17.984375 -41.46875 L 13.703125 -41.46875 Z M 13.78125 -20.875 "/></g></g><g style="fill:#4c2b09;fill-opacity:1;"><g transform="translate(157.186505, 88.02413)"><path style="stroke:none" d="M 8.859375 -38.375 L 7.734375 -38.375 C 6.554688 -38.375 5.554688 -38.78125 4.734375 -39.59375 C 3.921875 -40.414062 3.515625 -41.390625 3.515625 -42.515625 L 3.515625 -46.171875 C 3.515625 -47.347656 3.921875 -48.332031 4.734375 -49.125 C 5.554688 -49.925781 6.554688 -50.328125 7.734375 -50.328125 L 8.859375 -50.328125 C 9.984375 -50.328125 10.953125 -49.925781 11.765625 -49.125 C 12.585938 -48.332031 13 -47.347656 13 -46.171875 L 13 -42.515625 C 13 -41.390625 12.585938 -40.414062 11.765625 -39.59375 C 10.953125 -38.78125 9.984375 -38.375 8.859375 -38.375 Z M 4.21875 -35.140625 L 12.296875 -35.140625 L 12.296875 0 L 4.21875 0 Z M 4.21875 -35.140625 "/></g></g><g style="fill:#4c2b09;fill-opacity:1;"><g transform="translate(172.508054, 88.02413)"><path style="stroke:none" d="M 25.65625 -31.703125 L 12.296875 -6.890625 L 25.015625 -6.890625 L 25.015625 0 L 1.75 0 L 1.75 -3.375 L 15.109375 -28.25 L 3.234375 -28.25 L 3.234375 -35.140625 L 25.65625 -35.140625 Z M 25.65625 -31.703125 "/></g></g><g style="fill:#4c2b09;fill-opacity:1;"><g transform="translate(198.723512, 88.02413)"><path style="stroke:none" d="M 25.65625 -31.703125 L 12.296875 -6.890625 L 25.015625 -6.890625 L 25.015625 0 L 1.75 0 L 1.75 -3.375 L 15.109375 -28.25 L 3.234375 -28.25 L 3.234375 -35.140625 L 25.65625 -35.140625 Z M 25.65625 -31.703125 "/></g></g><g style="fill:#4c2b09;fill-opacity:1;"><g transform="translate(224.938969, 88.02413)"><path style="stroke:none" d="M 14.484375 -36.328125 L 15.953125 -36.328125 C 18.015625 -36.328125 19.898438 -35.820312 21.609375 -34.8125 C 23.316406 -33.8125 24.675781 -32.457031 25.6875 -30.75 C 26.695312 -29.039062 27.203125 -27.128906 27.203125 -25.015625 L 27.203125 0 L 22.484375 0 L 21.359375 -1.546875 L 20.875 -1.546875 C 20.257812 -0.742188 19.226562 -0.0859375 17.78125 0.421875 C 16.332031 0.929688 14.738281 1.1875 13 1.1875 C 11.03125 1.1875 9.191406 0.820312 7.484375 0.09375 C 5.773438 -0.625 4.390625 -1.753906 3.328125 -3.296875 C 2.273438 -4.847656 1.75 -6.816406 1.75 -9.203125 L 1.75 -10.046875 C 1.75 -12.015625 2.378906 -13.675781 3.640625 -15.03125 C 4.910156 -16.394531 6.484375 -17.546875 8.359375 -18.484375 C 10.234375 -19.421875 12.144531 -20.191406 14.09375 -20.796875 C 16.039062 -21.410156 17.710938 -21.925781 19.109375 -22.34375 L 19.109375 -25.515625 C 19.109375 -26.492188 18.742188 -27.347656 18.015625 -28.078125 C 17.296875 -28.804688 16.445312 -29.171875 15.46875 -29.171875 L 14.96875 -29.171875 C 13.9375 -29.171875 13.046875 -28.804688 12.296875 -28.078125 C 11.546875 -27.347656 11.171875 -26.492188 11.171875 -25.515625 L 11.171875 -22.625 L 3.15625 -22.625 L 3.15625 -25.015625 C 3.15625 -27.078125 3.660156 -28.960938 4.671875 -30.671875 C 5.679688 -32.390625 7.050781 -33.757812 8.78125 -34.78125 C 10.519531 -35.8125 12.421875 -36.328125 14.484375 -36.328125 Z M 19.109375 -9.625 L 19.109375 -15.75 C 17.566406 -15.132812 16.09375 -14.640625 14.6875 -14.265625 C 13.28125 -13.890625 12.128906 -13.328125 11.234375 -12.578125 C 10.347656 -11.828125 9.90625 -10.585938 9.90625 -8.859375 L 9.90625 -8.15625 C 9.90625 -7.351562 10.175781 -6.785156 10.71875 -6.453125 C 11.257812 -6.128906 12.207031 -5.96875 13.5625 -5.96875 L 15.46875 -5.96875 C 16.445312 -5.96875 17.296875 -6.316406 18.015625 -7.015625 C 18.742188 -7.722656 19.109375 -8.59375 19.109375 -9.625 Z M 19.109375 -9.625 "/></g></g><g style="fill:#4c2b09;fill-opacity:1;"><g transform="translate(254.457742, 88.02413)"><path style="stroke:none" d=""/></g></g><g style="fill:#4c2b09;fill-opacity:1;"><g transform="translate(271.887796, 88.02413)"><path style="stroke:none" d="M 16.3125 -18.34375 L 16.9375 -18.34375 L 22.765625 -49.203125 L 31.484375 -49.203125 L 21.359375 0 L 11.875 0 L 1.75 -49.203125 L 10.46875 -49.203125 Z M 16.3125 -18.34375 "/></g></g><g style="fill:#4c2b09;fill-opacity:1;"><g transform="translate(302.882442, 88.02413)"><path style="stroke:none" d="M 14.484375 -36.328125 L 15.953125 -36.328125 C 18.015625 -36.328125 19.898438 -35.820312 21.609375 -34.8125 C 23.316406 -33.8125 24.675781 -32.457031 25.6875 -30.75 C 26.695312 -29.039062 27.203125 -27.128906 27.203125 -25.015625 L 27.203125 0 L 22.484375 0 L 21.359375 -1.546875 L 20.875 -1.546875 C 20.257812 -0.742188 19.226562 -0.0859375 17.78125 0.421875 C 16.332031 0.929688 14.738281 1.1875 13 1.1875 C 11.03125 1.1875 9.191406 0.820312 7.484375 0.09375 C 5.773438 -0.625 4.390625 -1.753906 3.328125 -3.296875 C 2.273438 -4.847656 1.75 -6.816406 1.75 -9.203125 L 1.75 -10.046875 C 1.75 -12.015625 2.378906 -13.675781 3.640625 -15.03125 C 4.910156 -16.394531 6.484375 -17.546875 8.359375 -18.484375 C 10.234375 -19.421875 12.144531 -20.191406 14.09375 -20.796875 C 16.039062 -21.410156 17.710938 -21.925781 19.109375 -22.34375 L 19.109375 -25.515625 C 19.109375 -26.492188 18.742188 -27.347656 18.015625 -28.078125 C 17.296875 -28.804688 16.445312 -29.171875 15.46875 -29.171875 L 14.96875 -29.171875 C 13.9375 -29.171875 13.046875 -28.804688 12.296875 -28.078125 C 11.546875 -27.347656 11.171875 -26.492188 11.171875 -25.515625 L 11.171875 -22.625 L 3.15625 -22.625 L 3.15625 -25.015625 C 3.15625 -27.078125 3.660156 -28.960938 4.671875 -30.671875 C 5.679688 -32.390625 7.050781 -33.757812 8.78125 -34.78125 C 10.519531 -35.8125 12.421875 -36.328125 14.484375 -36.328125 Z M 19.109375 -9.625 L 19.109375 -15.75 C 17.566406 -15.132812 16.09375 -14.640625 14.6875 -14.265625 C 13.28125 -13.890625 12.128906 -13.328125 11.234375 -12.578125 C 10.347656 -11.828125 9.90625 -10.585938 9.90625 -8.859375 L 9.90625 -8.15625 C 9.90625 -7.351562 10.175781 -6.785156 10.71875 -6.453125 C 11.257812 -6.128906 12.207031 -5.96875 13.5625 -5.96875 L 15.46875 -5.96875 C 16.445312 -5.96875 17.296875 -6.316406 18.015625 -7.015625 C 18.742188 -7.722656 19.109375 -8.59375 19.109375 -9.625 Z M 19.109375 -9.625 "/></g></g><g style="fill:#4c2b09;fill-opacity:1;"><g transform="translate(332.049759, 88.02413)"><path style="stroke:none" d="M 12.296875 0 L 4.21875 0 L 4.21875 -49.203125 L 12.296875 -49.203125 Z M 12.296875 0 "/></g></g><g style="fill:#4c2b09;fill-opacity:1;"><g transform="translate(347.019865, 88.02413)"><path style="stroke:none" d="M 20.09375 -12.15625 L 20.09375 -35.140625 L 28.1875 -35.140625 L 28.1875 0 L 21.21875 0 L 21.21875 -1.546875 L 20.59375 -1.546875 C 19.976562 -0.742188 18.957031 -0.0859375 17.53125 0.421875 C 16.101562 0.929688 14.851562 1.1875 13.78125 1.1875 L 13.078125 1.1875 C 10.210938 1.1875 7.898438 0.21875 6.140625 -1.71875 C 4.390625 -3.664062 3.515625 -6.28125 3.515625 -9.5625 L 3.515625 -35.140625 L 11.59375 -35.140625 L 11.59375 -12.375 C 11.59375 -11.382812 11.640625 -10.394531 11.734375 -9.40625 C 11.828125 -8.425781 12.15625 -7.609375 12.71875 -6.953125 C 13.28125 -6.296875 14.265625 -5.96875 15.671875 -5.96875 C 17.265625 -5.96875 18.398438 -6.472656 19.078125 -7.484375 C 19.753906 -8.492188 20.09375 -10.050781 20.09375 -12.15625 Z M 20.09375 -12.15625 "/></g></g><g style="fill:#4c2b09;fill-opacity:1;"><g transform="translate(377.873998, 88.02413)"><path style="stroke:none" d="M 29.171875 -25.015625 L 29.171875 -15.953125 L 11.59375 -15.953125 L 11.59375 -9.625 C 11.59375 -8.59375 11.957031 -7.722656 12.6875 -7.015625 C 13.414062 -6.316406 14.269531 -5.96875 15.25 -5.96875 L 17.359375 -5.96875 C 18.335938 -5.96875 19.191406 -6.316406 19.921875 -7.015625 C 20.648438 -7.722656 21.015625 -8.59375 21.015625 -9.625 L 21.015625 -12.515625 L 29.171875 -12.515625 L 29.171875 -10.125 C 29.171875 -8.0625 28.65625 -6.160156 27.625 -4.421875 C 26.59375 -2.691406 25.21875 -1.320312 23.5 -0.3125 C 21.789062 0.6875 19.90625 1.1875 17.84375 1.1875 L 14.765625 1.1875 C 12.703125 1.1875 10.8125 0.6875 9.09375 -0.3125 C 7.382812 -1.320312 6.023438 -2.691406 5.015625 -4.421875 C 4.015625 -6.160156 3.515625 -8.0625 3.515625 -10.125 L 3.515625 -25.015625 C 3.515625 -27.078125 4.015625 -28.960938 5.015625 -30.671875 C 6.023438 -32.390625 7.382812 -33.757812 9.09375 -34.78125 C 10.8125 -35.8125 12.703125 -36.328125 14.765625 -36.328125 L 17.84375 -36.328125 C 19.90625 -36.328125 21.789062 -35.8125 23.5 -34.78125 C 25.21875 -33.757812 26.59375 -32.390625 27.625 -30.671875 C 28.65625 -28.960938 29.171875 -27.078125 29.171875 -25.015625 Z M 11.59375 -25.515625 L 11.59375 -21.4375 L 21.015625 -21.4375 L 21.015625 -25.515625 C 21.015625 -26.492188 20.648438 -27.347656 19.921875 -28.078125 C 19.191406 -28.804688 18.335938 -29.171875 17.359375 -29.171875 L 15.25 -29.171875 C 14.269531 -29.171875 13.414062 -28.804688 12.6875 -28.078125 C 11.957031 -27.347656 11.59375 -26.492188 11.59375 -25.515625 Z M 11.59375 -25.515625 "/></g></g><g style="fill:#4c2b09;fill-opacity:1;"><g transform="translate(407.955042, 88.02413)"><path style="stroke:none" d=""/></g></g><g style="fill:#4c2b09;fill-opacity:1;"><g transform="translate(425.385084, 88.02413)"><path style="stroke:none" d="M 17.015625 -50.390625 L 19.53125 -50.390625 C 21.875 -50.390625 24.019531 -49.816406 25.96875 -48.671875 C 27.914062 -47.523438 29.460938 -45.976562 30.609375 -44.03125 C 31.753906 -42.082031 32.328125 -39.9375 32.328125 -37.59375 L 32.328125 -31.5625 L 23.1875 -31.5625 L 23.1875 -38.15625 C 23.1875 -39.28125 22.773438 -40.253906 21.953125 -41.078125 C 21.140625 -41.898438 20.171875 -42.3125 19.046875 -42.3125 L 17.5 -42.3125 C 16.332031 -42.3125 15.347656 -41.898438 14.546875 -41.078125 C 13.753906 -40.253906 13.359375 -39.28125 13.359375 -38.15625 L 13.359375 -11.03125 C 13.359375 -9.90625 13.753906 -8.929688 14.546875 -8.109375 C 15.347656 -7.296875 16.332031 -6.890625 17.5 -6.890625 L 19.046875 -6.890625 C 20.171875 -6.890625 21.140625 -7.296875 21.953125 -8.109375 C 22.773438 -8.929688 23.1875 -9.90625 23.1875 -11.03125 L 23.1875 -17.640625 L 32.328125 -17.640625 L 32.328125 -11.59375 C 32.328125 -9.25 31.753906 -7.101562 30.609375 -5.15625 C 29.460938 -3.21875 27.914062 -1.675781 25.96875 -0.53125 C 24.019531 0.613281 21.875 1.1875 19.53125 1.1875 L 17.015625 1.1875 C 14.671875 1.1875 12.523438 0.613281 10.578125 -0.53125 C 8.628906 -1.675781 7.082031 -3.21875 5.9375 -5.15625 C 4.789062 -7.101562 4.21875 -9.25 4.21875 -11.59375 L 4.21875 -37.59375 C 4.21875 -39.9375 4.789062 -42.082031 5.9375 -44.03125 C 7.082031 -45.976562 8.628906 -47.523438 10.578125 -48.671875 C 12.523438 -49.816406 14.671875 -50.390625 17.015625 -50.390625 Z M 17.015625 -50.390625 "/></g></g><g style="fill:#4c2b09;fill-opacity:1;"><g transform="translate(460.034593, 88.02413)"><path style="stroke:none" d="M 14.484375 -36.328125 L 15.953125 -36.328125 C 18.015625 -36.328125 19.898438 -35.820312 21.609375 -34.8125 C 23.316406 -33.8125 24.675781 -32.457031 25.6875 -30.75 C 26.695312 -29.039062 27.203125 -27.128906 27.203125 -25.015625 L 27.203125 0 L 22.484375 0 L 21.359375 -1.546875 L 20.875 -1.546875 C 20.257812 -0.742188 19.226562 -0.0859375 17.78125 0.421875 C 16.332031 0.929688 14.738281 1.1875 13 1.1875 C 11.03125 1.1875 9.191406 0.820312 7.484375 0.09375 C 5.773438 -0.625 4.390625 -1.753906 3.328125 -3.296875 C 2.273438 -4.847656 1.75 -6.816406 1.75 -9.203125 L 1.75 -10.046875 C 1.75 -12.015625 2.378906 -13.675781 3.640625 -15.03125 C 4.910156 -16.394531 6.484375 -17.546875 8.359375 -18.484375 C 10.234375 -19.421875 12.144531 -20.191406 14.09375 -20.796875 C 16.039062 -21.410156 17.710938 -21.925781 19.109375 -22.34375 L 19.109375 -25.515625 C 19.109375 -26.492188 18.742188 -27.347656 18.015625 -28.078125 C 17.296875 -28.804688 16.445312 -29.171875 15.46875 -29.171875 L 14.96875 -29.171875 C 13.9375 -29.171875 13.046875 -28.804688 12.296875 -28.078125 C 11.546875 -27.347656 11.171875 -26.492188 11.171875 -25.515625 L 11.171875 -22.625 L 3.15625 -22.625 L 3.15625 -25.015625 C 3.15625 -27.078125 3.660156 -28.960938 4.671875 -30.671875 C 5.679688 -32.390625 7.050781 -33.757812 8.78125 -34.78125 C 10.519531 -35.8125 12.421875 -36.328125 14.484375 -36.328125 Z M 19.109375 -9.625 L 19.109375 -15.75 C 17.566406 -15.132812 16.09375 -14.640625 14.6875 -14.265625 C 13.28125 -13.890625 12.128906 -13.328125 11.234375 -12.578125 C 10.347656 -11.828125 9.90625 -10.585938 9.90625 -8.859375 L 9.90625 -8.15625 C 9.90625 -7.351562 10.175781 -6.785156 10.71875 -6.453125 C 11.257812 -6.128906 12.207031 -5.96875 13.5625 -5.96875 L 15.46875 -5.96875 C 16.445312 -5.96875 17.296875 -6.316406 18.015625 -7.015625 C 18.742188 -7.722656 19.109375 -8.59375 19.109375 -9.625 Z M 19.109375 -9.625 "/></g></g><g style="fill:#4c2b09;fill-opacity:1;"><g transform="translate(489.201944, 88.02413)"><path style="stroke:none" d="M 12.296875 0 L 4.21875 0 L 4.21875 -49.203125 L 12.296875 -49.203125 Z M 12.296875 0 "/></g></g><g style="fill:#4c2b09;fill-opacity:1;"><g transform="translate(504.17205, 88.02413)"><path style="stroke:none" d="M 14.828125 -36.328125 L 17.84375 -36.328125 C 19.90625 -36.328125 21.789062 -35.8125 23.5 -34.78125 C 25.21875 -33.757812 26.59375 -32.390625 27.625 -30.671875 C 28.65625 -28.960938 29.171875 -27.078125 29.171875 -25.015625 L 29.171875 -22.625 L 21.015625 -22.625 L 21.015625 -25.515625 C 21.015625 -26.492188 20.648438 -27.347656 19.921875 -28.078125 C 19.191406 -28.804688 18.335938 -29.171875 17.359375 -29.171875 L 15.328125 -29.171875 C 14.296875 -29.171875 13.425781 -28.804688 12.71875 -28.078125 C 12.019531 -27.347656 11.671875 -26.492188 11.671875 -25.515625 L 11.671875 -9.625 C 11.671875 -8.59375 12.019531 -7.722656 12.71875 -7.015625 C 13.425781 -6.316406 14.296875 -5.96875 15.328125 -5.96875 L 17.359375 -5.96875 C 18.335938 -5.96875 19.191406 -6.316406 19.921875 -7.015625 C 20.648438 -7.722656 21.015625 -8.59375 21.015625 -9.625 L 21.015625 -12.515625 L 29.171875 -12.515625 L 29.171875 -10.125 C 29.171875 -8.0625 28.65625 -6.160156 27.625 -4.421875 C 26.59375 -2.691406 25.21875 -1.320312 23.5 -0.3125 C 21.789062 0.6875 19.90625 1.1875 17.84375 1.1875 L 14.828125 1.1875 C 12.765625 1.1875 10.863281 0.6875 9.125 -0.3125 C 7.394531 -1.320312 6.023438 -2.691406 5.015625 -4.421875 C 4.015625 -6.160156 3.515625 -8.0625 3.515625 -10.125 L 3.515625 -25.015625 C 3.515625 -27.078125 4.015625 -28.960938 5.015625 -30.671875 C 6.023438 -32.390625 7.394531 -33.757812 9.125 -34.78125 C 10.863281 -35.8125 12.765625 -36.328125 14.828125 -36.328125 Z M 14.828125 -36.328125 "/></g></g><g style="fill:#4c2b09;fill-opacity:1;"><g transform="translate(533.901684, 88.02413)"><path style="stroke:none" d="M 20.09375 -12.15625 L 20.09375 -35.140625 L 28.1875 -35.140625 L 28.1875 0 L 21.21875 0 L 21.21875 -1.546875 L 20.59375 -1.546875 C 19.976562 -0.742188 18.957031 -0.0859375 17.53125 0.421875 C 16.101562 0.929688 14.851562 1.1875 13.78125 1.1875 L 13.078125 1.1875 C 10.210938 1.1875 7.898438 0.21875 6.140625 -1.71875 C 4.390625 -3.664062 3.515625 -6.28125 3.515625 -9.5625 L 3.515625 -35.140625 L 11.59375 -35.140625 L 11.59375 -12.375 C 11.59375 -11.382812 11.640625 -10.394531 11.734375 -9.40625 C 11.828125 -8.425781 12.15625 -7.609375 12.71875 -6.953125 C 13.28125 -6.296875 14.265625 -5.96875 15.671875 -5.96875 C 17.265625 -5.96875 18.398438 -6.472656 19.078125 -7.484375 C 19.753906 -8.492188 20.09375 -10.050781 20.09375 -12.15625 Z M 20.09375 -12.15625 "/></g></g><g style="fill:#4c2b09;fill-opacity:1;"><g transform="translate(565.107226, 88.02413)"><path style="stroke:none" d="M 12.296875 0 L 4.21875 0 L 4.21875 -49.203125 L 12.296875 -49.203125 Z M 12.296875 0 "/></g></g><g style="fill:#4c2b09;fill-opacity:1;"><g transform="translate(580.780243, 88.02413)"><path style="stroke:none" d="M 14.484375 -36.328125 L 15.953125 -36.328125 C 18.015625 -36.328125 19.898438 -35.820312 21.609375 -34.8125 C 23.316406 -33.8125 24.675781 -32.457031 25.6875 -30.75 C 26.695312 -29.039062 27.203125 -27.128906 27.203125 -25.015625 L 27.203125 0 L 22.484375 0 L 21.359375 -1.546875 L 20.875 -1.546875 C 20.257812 -0.742188 19.226562 -0.0859375 17.78125 0.421875 C 16.332031 0.929688 14.738281 1.1875 13 1.1875 C 11.03125 1.1875 9.191406 0.820312 7.484375 0.09375 C 5.773438 -0.625 4.390625 -1.753906 3.328125 -3.296875 C 2.273438 -4.847656 1.75 -6.816406 1.75 -9.203125 L 1.75 -10.046875 C 1.75 -12.015625 2.378906 -13.675781 3.640625 -15.03125 C 4.910156 -16.394531 6.484375 -17.546875 8.359375 -18.484375 C 10.234375 -19.421875 12.144531 -20.191406 14.09375 -20.796875 C 16.039062 -21.410156 17.710938 -21.925781 19.109375 -22.34375 L 19.109375 -25.515625 C 19.109375 -26.492188 18.742188 -27.347656 18.015625 -28.078125 C 17.296875 -28.804688 16.445312 -29.171875 15.46875 -29.171875 L 14.96875 -29.171875 C 13.9375 -29.171875 13.046875 -28.804688 12.296875 -28.078125 C 11.546875 -27.347656 11.171875 -26.492188 11.171875 -25.515625 L 11.171875 -22.625 L 3.15625 -22.625 L 3.15625 -25.015625 C 3.15625 -27.078125 3.660156 -28.960938 4.671875 -30.671875 C 5.679688 -32.390625 7.050781 -33.757812 8.78125 -34.78125 C 10.519531 -35.8125 12.421875 -36.328125 14.484375 -36.328125 Z M 19.109375 -9.625 L 19.109375 -15.75 C 17.566406 -15.132812 16.09375 -14.640625 14.6875 -14.265625 C 13.28125 -13.890625 12.128906 -13.328125 11.234375 -12.578125 C 10.347656 -11.828125 9.90625 -10.585938 9.90625 -8.859375 L 9.90625 -8.15625 C 9.90625 -7.351562 10.175781 -6.785156 10.71875 -6.453125 C 11.257812 -6.128906 12.207031 -5.96875 13.5625 -5.96875 L 15.46875 -5.96875 C 16.445312 -5.96875 17.296875 -6.316406 18.015625 -7.015625 C 18.742188 -7.722656 19.109375 -8.59375 19.109375 -9.625 Z M 19.109375 -9.625 "/></g></g><g style="fill:#4c2b09;fill-opacity:1;"><g transform="translate(609.947549, 88.02413)"><path style="stroke:none" d="M 18.546875 -8.640625 L 18.546875 -12.515625 L 26.703125 -12.515625 L 26.703125 -9.140625 C 26.703125 -7.265625 26.234375 -5.539062 25.296875 -3.96875 C 24.359375 -2.394531 23.113281 -1.140625 21.5625 -0.203125 C 20.019531 0.722656 18.289062 1.1875 16.375 1.1875 L 13.84375 1.1875 C 11.96875 1.1875 10.242188 0.722656 8.671875 -0.203125 C 7.109375 -1.140625 5.859375 -2.394531 4.921875 -3.96875 C 3.984375 -5.539062 3.515625 -7.265625 3.515625 -9.140625 L 3.515625 -46.453125 L 11.59375 -46.453125 L 11.59375 -35.140625 L 19.328125 -35.140625 L 19.328125 -28.25 L 11.59375 -28.25 L 11.59375 -8.640625 C 11.59375 -7.890625 11.863281 -7.253906 12.40625 -6.734375 C 12.945312 -6.222656 13.59375 -5.96875 14.34375 -5.96875 L 15.890625 -5.96875 C 16.585938 -5.96875 17.203125 -6.222656 17.734375 -6.734375 C 18.273438 -7.253906 18.546875 -7.890625 18.546875 -8.640625 Z M 18.546875 -8.640625 "/></g></g><g style="fill:#4c2b09;fill-opacity:1;"><g transform="translate(636.514427, 88.02413)"><path style="stroke:none" d="M 14.765625 -36.328125 L 17.84375 -36.328125 C 19.90625 -36.328125 21.789062 -35.820312 23.5 -34.8125 C 25.21875 -33.8125 26.59375 -32.457031 27.625 -30.75 C 28.65625 -29.039062 29.171875 -27.128906 29.171875 -25.015625 L 29.171875 -10.125 C 29.171875 -8.0625 28.65625 -6.160156 27.625 -4.421875 C 26.59375 -2.691406 25.21875 -1.320312 23.5 -0.3125 C 21.789062 0.6875 19.90625 1.1875 17.84375 1.1875 L 14.765625 1.1875 C 12.703125 1.1875 10.8125 0.6875 9.09375 -0.3125 C 7.382812 -1.320312 6.023438 -2.691406 5.015625 -4.421875 C 4.015625 -6.160156 3.515625 -8.0625 3.515625 -10.125 L 3.515625 -25.015625 C 3.515625 -27.128906 4.015625 -29.039062 5.015625 -30.75 C 6.023438 -32.457031 7.382812 -33.8125 9.09375 -34.8125 C 10.8125 -35.820312 12.703125 -36.328125 14.765625 -36.328125 Z M 21.015625 -9.625 L 21.015625 -25.515625 C 21.015625 -26.546875 20.648438 -27.410156 19.921875 -28.109375 C 19.191406 -28.816406 18.335938 -29.171875 17.359375 -29.171875 L 15.328125 -29.171875 C 14.296875 -29.171875 13.425781 -28.816406 12.71875 -28.109375 C 12.019531 -27.410156 11.671875 -26.546875 11.671875 -25.515625 L 11.671875 -9.625 C 11.671875 -8.59375 12.019531 -7.722656 12.71875 -7.015625 C 13.425781 -6.316406 14.296875 -5.96875 15.328125 -5.96875 L 17.359375 -5.96875 C 18.335938 -5.96875 19.191406 -6.316406 19.921875 -7.015625 C 20.648438 -7.722656 21.015625 -8.59375 21.015625 -9.625 Z M 21.015625 -9.625 "/></g></g><g style="fill:#4c2b09;fill-opacity:1;"><g transform="translate(668.001087, 88.02413)"><path style="stroke:none" d="M 18.484375 -36.328125 L 18.765625 -36.328125 C 21.671875 -36.328125 23.988281 -35.34375 25.71875 -33.375 C 27.457031 -31.414062 28.328125 -28.796875 28.328125 -25.515625 L 28.328125 -22.625 L 20.59375 -22.625 C 20.59375 -23.519531 20.546875 -24.46875 20.453125 -25.46875 C 20.359375 -26.476562 20.050781 -27.347656 19.53125 -28.078125 C 19.019531 -28.804688 18.132812 -29.171875 16.875 -29.171875 C 13.820312 -29.171875 12.296875 -27.109375 12.296875 -22.984375 L 12.296875 0 L 4.21875 0 L 4.21875 -35.140625 L 11.171875 -35.140625 L 11.171875 -33.59375 L 11.8125 -33.59375 C 12.46875 -34.394531 13.472656 -35.050781 14.828125 -35.5625 C 16.191406 -36.070312 17.410156 -36.328125 18.484375 -36.328125 Z M 18.484375 -36.328125 "/></g></g></g></svg>